{"glyphs":{"0":{"ha":897,"x_min":83,"x_max":814,"o":"m 449 -15 q 175 104 267 -15 q 83 460 83 224 q 175 815 83 696 q 449 935 267 935 q 814 460 814 935 q 449 -15 814 -15 m 449 76 q 581 104 524 76 q 676 217 638 132 q 714 460 714 301 q 676 703 714 618 q 580 815 638 788 q 449 843 522 843 q 317 815 375 843 q 222 703 260 788 q 183 460 183 618 q 222 217 183 301 q 317 104 260 132 q 449 76 374 76 z "},"1":{"ha":626,"x_min":143,"x_max":428,"o":"m 328 0 l 328 822 l 143 700 l 143 818 l 314 926 l 428 926 l 428 0 l 328 0 z "},"2":{"ha":807,"x_min":107,"x_max":692,"o":"m 692 100 l 692 0 l 107 0 l 107 88 q 314 260 207 161 q 499 472 421 360 q 578 678 578 585 q 530 792 578 746 q 360 839 482 839 q 117 758 231 839 l 117 868 q 368 939 233 939 q 546 901 476 939 q 647 805 615 864 q 678 678 678 746 q 553 394 678 549 q 261 100 428 240 l 692 100 z "},"3":{"ha":810,"x_min":113,"x_max":701,"o":"m 360 -11 q 113 47 226 -11 l 113 150 q 347 89 221 89 q 536 135 471 89 q 601 267 601 181 q 535 399 601 353 q 342 444 468 444 l 240 444 l 240 540 l 346 540 q 501 578 447 540 q 554 689 554 617 q 498 800 554 761 q 335 839 442 839 q 135 790 232 839 l 135 892 q 346 939 235 939 q 523 903 454 939 q 623 811 592 868 q 654 689 654 754 q 628 586 654 628 q 568 521 601 544 q 535 501 535 497 q 581 476 535 506 q 665 393 628 446 q 701 264 701 340 q 667 130 701 192 q 556 28 632 68 q 360 -11 479 -11 z "},"4":{"ha":821,"x_min":53,"x_max":735,"o":"m 503 0 l 503 278 l 53 278 l 53 385 l 490 926 l 603 926 l 603 371 l 735 371 l 735 278 l 603 278 l 603 0 l 503 0 m 164 371 l 503 371 l 503 783 l 164 371 z "},"5":{"ha":786,"x_min":121,"x_max":703,"o":"m 408 578 q 617 513 532 578 q 703 283 703 449 q 617 53 703 118 q 408 -11 532 -11 q 143 46 249 -11 l 143 150 q 247 106 182 125 q 401 86 311 86 q 534 115 489 86 q 592 186 579 144 q 604 283 604 228 q 549 439 604 400 q 401 478 494 478 q 288 468 336 478 q 211 447 239 458 q 183 435 183 436 l 121 499 l 168 926 l 644 926 l 644 828 l 254 828 l 231 554 q 408 578 314 578 z "},"6":{"ha":810,"x_min":90,"x_max":721,"o":"m 406 593 q 636 515 551 593 q 721 301 721 436 q 689 152 721 224 q 586 35 657 81 q 406 -11 515 -11 q 90 424 90 -11 q 163 751 90 636 q 330 902 236 865 q 513 939 424 939 q 647 921 586 939 l 647 828 q 524 844 578 844 q 401 819 471 844 q 271 725 332 794 q 194 531 210 656 q 406 593 303 593 m 406 83 q 578 156 535 83 q 621 303 621 229 q 565 449 621 397 q 406 500 510 500 q 283 476 338 500 q 190 422 228 453 q 221 210 193 285 q 294 110 249 136 q 406 83 339 83 z "},"7":{"ha":797,"x_min":97,"x_max":729,"o":"m 97 926 l 729 926 l 729 833 l 328 0 l 217 0 l 617 826 l 97 826 l 97 926 z "},"8":{"ha":808,"x_min":85,"x_max":726,"o":"m 406 -11 q 222 31 294 -11 q 117 138 150 74 q 85 275 85 203 q 120 401 85 351 q 200 478 156 451 q 244 500 244 504 q 210 521 244 496 q 147 590 175 546 q 119 699 119 633 q 149 816 119 761 q 242 905 178 871 q 406 939 307 939 q 569 905 506 939 q 663 816 633 871 q 692 699 692 761 q 665 588 692 632 q 604 521 638 544 q 571 501 571 497 q 614 478 571 506 q 692 401 657 451 q 726 275 726 350 q 694 138 726 203 q 590 31 661 72 q 406 -11 518 -11 m 406 539 q 542 581 493 539 q 592 699 592 624 q 538 810 592 779 q 406 840 485 840 q 273 810 326 840 q 219 699 219 779 q 269 581 219 624 q 406 539 318 539 m 406 83 q 582 147 538 83 q 626 275 626 210 q 569 403 626 358 q 406 447 513 447 q 242 403 299 447 q 185 275 185 358 q 229 147 185 211 q 406 83 274 83 z "},"9":{"ha":815,"x_min":90,"x_max":721,"o":"m 406 939 q 721 504 721 939 q 648 177 721 292 q 481 26 575 63 q 299 -11 388 -11 q 164 7 225 -11 l 164 100 q 288 83 233 83 q 410 108 340 83 q 540 203 479 133 q 617 397 601 272 q 406 335 510 335 q 175 413 260 335 q 90 626 90 492 q 122 776 90 704 q 225 893 154 847 q 406 939 296 939 m 190 625 q 246 479 190 531 q 406 428 301 428 q 528 451 474 428 q 621 506 583 475 q 590 717 618 643 q 517 818 563 792 q 406 844 472 844 q 233 772 276 844 q 190 625 190 699 z "},"\u0000":{"ha":0,"x_min":0,"x_max":0,"o":""},"\r":{"ha":403,"x_min":0,"x_max":0,"o":""}," ":{"ha":403,"x_min":0,"x_max":0,"o":""},"A":{"ha":893,"x_min":28,"x_max":865,"o":"m 758 0 l 647 289 l 247 289 l 136 0 l 28 0 l 397 926 l 497 926 l 865 0 l 758 0 m 285 385 l 610 385 l 447 808 l 285 385 z "},"Á":{"ha":893,"x_min":28,"x_max":865,"o":"m 758 0 l 647 289 l 247 289 l 136 0 l 28 0 l 397 926 l 497 926 l 865 0 l 758 0 m 285 385 l 610 385 l 447 808 l 285 385 m 424 1017 l 503 1176 l 606 1176 l 490 1017 l 424 1017 z "},"Ă":{"ha":893,"x_min":28,"x_max":865,"o":"m 758 0 l 647 289 l 247 289 l 136 0 l 28 0 l 397 926 l 497 926 l 865 0 l 758 0 m 285 385 l 610 385 l 447 808 l 285 385 m 449 965 q 328 1006 379 965 q 261 1124 278 1047 l 333 1124 q 449 1038 365 1038 q 564 1124 529 1038 l 636 1124 q 571 1006 622 1047 q 449 965 519 965 z "},"Ắ":{"ha":893,"x_min":28,"x_max":865,"o":"m 758 0 l 647 289 l 247 289 l 136 0 l 28 0 l 397 926 l 497 926 l 865 0 l 758 0 m 285 385 l 610 385 l 447 808 l 285 385 m 449 990 q 328 1031 379 990 q 261 1149 278 1072 l 333 1149 q 449 1063 365 1063 q 564 1149 529 1063 l 636 1149 q 571 1031 622 1072 q 449 990 519 990 m 404 1164 l 483 1324 l 586 1324 l 471 1164 l 404 1164 z "},"Ặ":{"ha":893,"x_min":28,"x_max":865,"o":"m 758 0 l 647 289 l 247 289 l 136 0 l 28 0 l 397 926 l 497 926 l 865 0 l 758 0 m 285 385 l 610 385 l 447 808 l 285 385 m 393 -179 l 393 -69 l 503 -69 l 503 -179 l 393 -179 m 449 965 q 328 1006 379 965 q 261 1124 278 1047 l 333 1124 q 449 1038 365 1038 q 564 1124 529 1038 l 636 1124 q 571 1006 622 1047 q 449 965 519 965 z "},"Ằ":{"ha":893,"x_min":28,"x_max":865,"o":"m 758 0 l 647 289 l 247 289 l 136 0 l 28 0 l 397 926 l 497 926 l 865 0 l 758 0 m 285 385 l 610 385 l 447 808 l 285 385 m 449 990 q 328 1031 379 990 q 261 1149 278 1072 l 333 1149 q 449 1063 365 1063 q 564 1149 529 1063 l 636 1149 q 571 1031 622 1072 q 449 990 519 990 m 418 1156 l 303 1315 l 404 1315 l 483 1156 l 418 1156 z "},"Ẳ":{"ha":893,"x_min":28,"x_max":865,"o":"m 758 0 l 647 289 l 247 289 l 136 0 l 28 0 l 397 926 l 497 926 l 865 0 l 758 0 m 285 385 l 610 385 l 447 808 l 285 385 m 436 990 q 316 1031 367 990 q 249 1149 265 1072 l 321 1149 q 436 1063 353 1063 q 551 1149 517 1063 l 624 1149 q 558 1031 610 1072 q 436 990 507 990 m 401 1228 q 441 1239 428 1229 q 454 1261 454 1249 q 437 1288 454 1279 q 388 1297 419 1297 q 350 1294 372 1297 l 350 1354 q 393 1358 371 1358 q 483 1336 446 1358 q 521 1264 521 1314 q 503 1216 521 1236 q 447 1189 485 1196 l 447 1156 l 401 1156 l 401 1228 z "},"Ẵ":{"ha":893,"x_min":28,"x_max":865,"o":"m 758 0 l 647 289 l 247 289 l 136 0 l 28 0 l 397 926 l 497 926 l 865 0 l 758 0 m 285 385 l 610 385 l 447 808 l 285 385 m 449 990 q 328 1031 379 990 q 261 1149 278 1072 l 333 1149 q 449 1063 365 1063 q 564 1149 529 1063 l 636 1149 q 571 1031 622 1072 q 449 990 519 990 m 253 1197 q 247 1239 247 1218 q 280 1322 247 1290 q 354 1353 313 1353 q 413 1340 388 1353 q 474 1301 439 1326 q 511 1274 496 1283 q 543 1265 526 1265 q 569 1276 560 1265 q 579 1308 579 1288 q 576 1332 579 1315 l 649 1332 q 651 1303 651 1313 q 619 1219 651 1251 q 532 1188 586 1188 q 475 1201 501 1188 q 418 1239 449 1215 q 381 1265 396 1257 q 353 1274 367 1274 q 325 1260 336 1274 q 314 1222 314 1247 q 317 1197 314 1217 l 253 1197 z "},"Ǎ":{"ha":893,"x_min":28,"x_max":865,"o":"m 758 0 l 647 289 l 247 289 l 136 0 l 28 0 l 397 926 l 497 926 l 865 0 l 758 0 m 285 385 l 610 385 l 447 808 l 285 385 m 421 978 l 308 1144 l 386 1144 l 449 1047 l 511 1144 l 589 1144 l 478 978 l 421 978 z "},"Â":{"ha":893,"x_min":28,"x_max":865,"o":"m 758 0 l 647 289 l 247 289 l 136 0 l 28 0 l 397 926 l 497 926 l 865 0 l 758 0 m 285 385 l 610 385 l 447 808 l 285 385 m 294 999 l 407 1165 l 492 1165 l 603 999 l 539 999 l 449 1096 l 358 999 l 294 999 z "},"Ấ":{"ha":893,"x_min":28,"x_max":865,"o":"m 758 0 l 647 289 l 247 289 l 136 0 l 28 0 l 397 926 l 497 926 l 865 0 l 758 0 m 285 385 l 610 385 l 447 808 l 285 385 m 299 1017 l 411 1183 l 496 1183 l 607 1017 l 543 1017 l 453 1114 l 363 1017 l 299 1017 m 568 1117 l 647 1276 l 750 1276 l 635 1117 l 568 1117 z "},"Ậ":{"ha":893,"x_min":28,"x_max":865,"o":"m 758 0 l 647 289 l 247 289 l 136 0 l 28 0 l 397 926 l 497 926 l 865 0 l 758 0 m 285 385 l 610 385 l 447 808 l 285 385 m 393 -179 l 393 -69 l 503 -69 l 503 -179 l 393 -179 m 294 999 l 407 1165 l 492 1165 l 603 999 l 539 999 l 449 1096 l 358 999 l 294 999 z "},"Ầ":{"ha":893,"x_min":28,"x_max":865,"o":"m 758 0 l 647 289 l 247 289 l 136 0 l 28 0 l 397 926 l 497 926 l 865 0 l 758 0 m 285 385 l 610 385 l 447 808 l 285 385 m 294 1017 l 407 1183 l 492 1183 l 603 1017 l 539 1017 l 449 1114 l 358 1017 l 294 1017 m 232 1108 l 117 1268 l 219 1268 l 299 1108 l 232 1108 z "},"Ẩ":{"ha":893,"x_min":28,"x_max":865,"o":"m 758 0 l 647 289 l 247 289 l 136 0 l 28 0 l 397 926 l 497 926 l 865 0 l 758 0 m 285 385 l 610 385 l 447 808 l 285 385 m 286 1010 l 399 1176 l 483 1176 l 594 1010 l 531 1010 l 440 1107 l 350 1010 l 286 1010 m 601 1154 q 641 1165 628 1156 q 654 1188 654 1175 q 637 1215 654 1206 q 588 1224 619 1224 q 550 1221 572 1224 l 550 1281 q 593 1285 571 1285 q 683 1263 646 1285 q 721 1190 721 1240 q 703 1142 721 1163 q 647 1115 685 1122 l 647 1082 l 601 1082 l 601 1154 z "},"Ẫ":{"ha":893,"x_min":28,"x_max":865,"o":"m 758 0 l 647 289 l 247 289 l 136 0 l 28 0 l 397 926 l 497 926 l 865 0 l 758 0 m 285 385 l 610 385 l 447 808 l 285 385 m 294 989 l 407 1156 l 492 1156 l 603 989 l 539 989 l 449 1086 l 358 989 l 294 989 m 251 1204 q 246 1246 246 1225 q 278 1328 246 1297 q 353 1360 311 1360 q 412 1347 386 1360 q 472 1308 438 1333 q 510 1281 494 1290 q 542 1272 525 1272 q 568 1283 558 1272 q 578 1315 578 1294 q 575 1339 578 1322 l 647 1339 q 650 1310 650 1319 q 617 1226 650 1258 q 531 1194 585 1194 q 474 1208 500 1194 q 417 1246 447 1222 q 380 1272 394 1264 q 351 1281 365 1281 q 324 1267 335 1281 q 313 1229 313 1254 q 315 1204 313 1224 l 251 1204 z "},"Ȁ":{"ha":893,"x_min":28,"x_max":865,"o":"m 758 0 l 647 289 l 247 289 l 136 0 l 28 0 l 397 926 l 497 926 l 865 0 l 758 0 m 285 385 l 610 385 l 447 808 l 285 385 m 339 1017 l 224 1176 l 326 1176 l 406 1017 l 339 1017 m 510 1017 l 394 1176 l 497 1176 l 576 1017 l 510 1017 z "},"Ä":{"ha":893,"x_min":28,"x_max":865,"o":"m 758 0 l 647 289 l 247 289 l 136 0 l 28 0 l 397 926 l 497 926 l 865 0 l 758 0 m 285 385 l 610 385 l 447 808 l 285 385 m 290 1008 l 290 1118 l 400 1118 l 400 1008 l 290 1008 m 496 1008 l 496 1118 l 606 1118 l 606 1008 l 496 1008 z "},"Ȧ":{"ha":893,"x_min":28,"x_max":865,"o":"m 758 0 l 647 289 l 247 289 l 136 0 l 28 0 l 397 926 l 497 926 l 865 0 l 758 0 m 285 385 l 610 385 l 447 808 l 285 385 m 393 978 l 393 1088 l 503 1088 l 503 978 l 393 978 z "},"Ạ":{"ha":893,"x_min":28,"x_max":865,"o":"m 758 0 l 647 289 l 247 289 l 136 0 l 28 0 l 397 926 l 497 926 l 865 0 l 758 0 m 285 385 l 610 385 l 447 808 l 285 385 m 393 -179 l 393 -69 l 503 -69 l 503 -179 l 393 -179 z "},"À":{"ha":893,"x_min":28,"x_max":865,"o":"m 758 0 l 647 289 l 247 289 l 136 0 l 28 0 l 397 926 l 497 926 l 865 0 l 758 0 m 285 385 l 610 385 l 447 808 l 285 385 m 422 1001 l 307 1161 l 410 1161 l 489 1001 l 422 1001 z "},"Ả":{"ha":893,"x_min":28,"x_max":865,"o":"m 758 0 l 647 289 l 247 289 l 136 0 l 28 0 l 397 926 l 497 926 l 865 0 l 758 0 m 285 385 l 610 385 l 447 808 l 285 385 m 414 1047 q 453 1058 440 1049 q 467 1081 467 1068 q 449 1108 467 1099 q 400 1117 432 1117 q 363 1114 385 1117 l 363 1174 q 406 1178 383 1178 q 496 1156 458 1178 q 533 1083 533 1133 q 515 1035 533 1056 q 460 1008 497 1015 l 460 975 l 414 975 l 414 1047 z "},"Ȃ":{"ha":893,"x_min":28,"x_max":865,"o":"m 758 0 l 647 289 l 247 289 l 136 0 l 28 0 l 397 926 l 497 926 l 865 0 l 758 0 m 285 385 l 610 385 l 447 808 l 285 385 m 449 1096 q 571 1055 519 1096 q 636 938 622 1014 l 564 938 q 449 1024 529 1024 q 333 938 365 1024 l 261 938 q 328 1055 278 1014 q 449 1096 379 1096 z "},"Ā":{"ha":893,"x_min":28,"x_max":865,"o":"m 758 0 l 647 289 l 247 289 l 136 0 l 28 0 l 397 926 l 497 926 l 865 0 l 758 0 m 285 385 l 610 385 l 447 808 l 285 385 m 286 994 l 286 1068 l 611 1068 l 611 994 l 286 994 z "},"Ą":{"ha":893,"x_min":28,"x_max":865,"o":"m 863 0 q 769 -58 804 -28 q 735 -118 735 -89 q 782 -165 735 -165 q 858 -128 821 -165 l 858 -215 q 775 -240 814 -240 q 685 -210 718 -240 q 653 -125 653 -179 q 680 -51 653 -89 q 754 6 707 -14 l 756 6 l 647 289 l 247 289 l 136 0 l 28 0 l 397 926 l 497 926 l 865 0 l 863 0 m 285 385 l 610 385 l 447 808 l 285 385 z "},"Å":{"ha":893,"x_min":28,"x_max":865,"o":"m 647 289 l 247 289 l 136 0 l 28 0 l 385 896 q 326 936 344 907 q 308 1017 308 965 q 341 1114 308 1083 q 449 1144 374 1144 q 556 1114 522 1144 q 589 1017 589 1083 q 570 935 589 965 q 510 896 551 906 l 865 0 l 758 0 l 647 289 m 449 1083 q 388 1069 404 1083 q 372 1017 372 1054 q 388 964 372 979 q 449 949 404 949 q 508 964 492 949 q 524 1017 524 979 q 508 1069 524 1054 q 449 1083 492 1083 m 285 385 l 610 385 l 447 808 l 285 385 z "},"Ǻ":{"ha":893,"x_min":28,"x_max":865,"o":"m 606 1367 l 490 1207 l 424 1207 l 503 1367 l 606 1367 m 647 289 l 247 289 l 136 0 l 28 0 l 385 896 q 326 936 344 907 q 308 1017 308 965 q 341 1114 308 1083 q 449 1144 374 1144 q 556 1114 522 1144 q 589 1017 589 1083 q 570 935 589 965 q 510 896 551 906 l 865 0 l 758 0 l 647 289 m 449 1083 q 388 1069 404 1083 q 372 1017 372 1054 q 388 964 372 979 q 449 949 404 949 q 508 964 492 949 q 524 1017 524 979 q 508 1069 524 1054 q 449 1083 492 1083 m 285 385 l 610 385 l 447 808 l 285 385 z "},"Ã":{"ha":893,"x_min":28,"x_max":865,"o":"m 758 0 l 647 289 l 247 289 l 136 0 l 28 0 l 397 926 l 497 926 l 865 0 l 758 0 m 285 385 l 610 385 l 447 808 l 285 385 m 260 1010 q 254 1051 254 1031 q 287 1134 254 1103 q 361 1165 319 1165 q 420 1152 394 1165 q 481 1114 446 1139 q 518 1087 503 1096 q 550 1078 533 1078 q 576 1089 567 1078 q 586 1121 586 1100 q 583 1144 586 1128 l 656 1144 q 658 1115 658 1125 q 626 1032 658 1064 q 539 1000 593 1000 q 482 1014 508 1000 q 425 1051 456 1028 q 388 1078 403 1069 q 360 1086 374 1086 q 332 1073 343 1086 q 321 1035 321 1060 q 324 1010 321 1029 l 260 1010 z "},"Æ":{"ha":1329,"x_min":28,"x_max":1225,"o":"m 1225 831 l 757 831 l 757 511 l 1168 511 l 1168 414 l 757 414 l 757 96 l 1225 96 l 1225 0 l 657 0 l 657 290 l 340 290 l 143 0 l 28 0 l 661 926 l 1225 926 l 1225 831 m 407 390 l 657 390 l 657 758 l 407 390 z "},"Ǽ":{"ha":1329,"x_min":28,"x_max":1225,"o":"m 1225 831 l 757 831 l 757 511 l 1168 511 l 1168 414 l 757 414 l 757 96 l 1225 96 l 1225 0 l 657 0 l 657 290 l 340 290 l 143 0 l 28 0 l 661 926 l 1225 926 l 1225 831 m 407 390 l 657 390 l 657 758 l 407 390 m 914 1017 l 993 1176 l 1096 1176 l 981 1017 l 914 1017 z "},"B":{"ha":872,"x_min":118,"x_max":789,"o":"m 632 496 q 743 410 697 467 q 789 263 789 354 q 701 64 789 128 q 453 0 614 0 l 118 0 l 118 926 l 425 926 q 733 678 733 926 q 711 577 733 611 q 664 522 689 543 q 632 496 639 501 m 218 525 l 447 525 q 583 554 532 525 q 633 671 633 583 q 584 796 633 761 q 435 831 535 831 l 218 831 l 218 525 m 461 93 q 628 130 567 93 q 689 268 689 167 q 626 399 689 368 q 457 431 563 431 l 218 431 l 218 93 l 461 93 z "},"C":{"ha":864,"x_min":76,"x_max":788,"o":"m 506 -11 q 184 108 292 -11 q 76 464 76 228 q 184 819 76 700 q 506 939 292 939 q 788 871 647 939 l 788 775 q 517 844 657 844 q 261 753 342 844 q 181 464 181 661 q 260 174 181 265 q 517 83 340 83 q 788 151 664 83 l 788 56 q 506 -11 646 -11 z "},"Ć":{"ha":864,"x_min":76,"x_max":788,"o":"m 506 -11 q 184 108 292 -11 q 76 464 76 228 q 184 819 76 700 q 506 939 292 939 q 788 871 647 939 l 788 775 q 517 844 657 844 q 261 753 342 844 q 181 464 181 661 q 260 174 181 265 q 517 83 340 83 q 788 151 664 83 l 788 56 q 506 -11 646 -11 m 456 1017 l 535 1176 l 638 1176 l 522 1017 l 456 1017 z "},"Č":{"ha":864,"x_min":76,"x_max":788,"o":"m 506 -11 q 184 108 292 -11 q 76 464 76 228 q 184 819 76 700 q 506 939 292 939 q 788 871 647 939 l 788 775 q 517 844 657 844 q 261 753 342 844 q 181 464 181 661 q 260 174 181 265 q 517 83 340 83 q 788 151 664 83 l 788 56 q 506 -11 646 -11 m 453 978 l 340 1144 l 418 1144 l 481 1047 l 543 1144 l 621 1144 l 510 978 l 453 978 z "},"Ç":{"ha":864,"x_min":76,"x_max":788,"o":"m 517 844 q 261 753 342 844 q 181 464 181 661 q 260 174 181 265 q 517 83 340 83 q 788 151 664 83 l 788 56 q 522 -11 653 -7 l 444 -153 l 339 -153 l 442 -8 q 168 127 260 8 q 76 464 76 246 q 184 819 76 700 q 506 939 292 939 q 788 871 647 939 l 788 775 q 517 844 657 844 z "},"Ĉ":{"ha":864,"x_min":76,"x_max":788,"o":"m 506 -11 q 184 108 292 -11 q 76 464 76 228 q 184 819 76 700 q 506 939 292 939 q 788 871 647 939 l 788 775 q 517 844 657 844 q 261 753 342 844 q 181 464 181 661 q 260 174 181 265 q 517 83 340 83 q 788 151 664 83 l 788 56 q 506 -11 646 -11 m 326 999 l 439 1165 l 524 1165 l 635 999 l 571 999 l 481 1096 l 390 999 l 326 999 z "},"Ċ":{"ha":864,"x_min":76,"x_max":788,"o":"m 506 -11 q 184 108 292 -11 q 76 464 76 228 q 184 819 76 700 q 506 939 292 939 q 788 871 647 939 l 788 775 q 517 844 657 844 q 261 753 342 844 q 181 464 181 661 q 260 174 181 265 q 517 83 340 83 q 788 151 664 83 l 788 56 q 506 -11 646 -11 m 425 978 l 425 1088 l 535 1088 l 535 978 l 425 978 z "},"D":{"ha":926,"x_min":118,"x_max":843,"o":"m 118 926 l 408 926 q 734 810 625 926 q 843 464 843 694 q 408 0 843 0 l 118 0 l 118 926 m 401 94 q 659 183 578 94 q 740 464 740 272 q 659 744 740 656 q 401 833 578 833 l 218 833 l 218 94 l 401 94 z "},"Ǆ":{"ha":1772,"x_min":118,"x_max":1675,"o":"m 118 926 l 408 926 q 734 810 625 926 q 843 464 843 694 q 408 0 843 0 l 118 0 l 118 926 m 401 94 q 659 183 578 94 q 740 464 740 272 q 659 744 740 656 q 401 833 578 833 l 218 833 l 218 94 l 401 94 m 1675 926 l 1675 842 l 1139 94 l 1675 94 l 1675 0 l 1015 0 l 1015 88 l 1557 832 l 1029 832 l 1029 926 l 1675 926 m 1322 978 l 1210 1144 l 1288 1144 l 1350 1047 l 1413 1144 l 1490 1144 l 1379 978 l 1322 978 z "},"Ð":{"ha":926,"x_min":10,"x_max":843,"o":"m 408 926 q 734 810 625 926 q 843 464 843 694 q 408 0 843 0 l 118 0 l 118 426 l 10 426 l 10 500 l 118 500 l 118 926 l 408 926 m 401 94 q 659 183 578 94 q 740 464 740 272 q 659 744 740 656 q 401 833 578 833 l 218 833 l 218 500 l 349 500 l 349 426 l 218 426 l 218 94 l 401 94 z "},"Ď":{"ha":926,"x_min":118,"x_max":843,"o":"m 118 926 l 408 926 q 734 810 625 926 q 843 464 843 694 q 408 0 843 0 l 118 0 l 118 926 m 401 94 q 659 183 578 94 q 740 464 740 272 q 659 744 740 656 q 401 833 578 833 l 218 833 l 218 94 l 401 94 m 351 978 l 239 1144 l 317 1144 l 379 1047 l 442 1144 l 519 1144 l 408 978 l 351 978 z "},"Đ":{"ha":926,"x_min":10,"x_max":843,"o":"m 408 926 q 734 810 625 926 q 843 464 843 694 q 408 0 843 0 l 118 0 l 118 426 l 10 426 l 10 500 l 118 500 l 118 926 l 408 926 m 401 94 q 659 183 578 94 q 740 464 740 272 q 659 744 740 656 q 401 833 578 833 l 218 833 l 218 500 l 349 500 l 349 426 l 218 426 l 218 94 l 401 94 z "},"ǲ":{"ha":1558,"x_min":118,"x_max":1496,"o":"m 118 926 l 408 926 q 734 810 625 926 q 843 464 843 694 q 408 0 843 0 l 118 0 l 118 926 m 401 94 q 659 183 578 94 q 740 464 740 272 q 659 744 740 656 q 401 833 578 833 l 218 833 l 218 94 l 401 94 m 1496 693 l 1496 606 l 1104 89 l 1496 89 l 1496 0 l 989 0 l 989 90 l 1376 607 l 999 607 l 999 693 l 1496 693 z "},"ǅ":{"ha":1558,"x_min":118,"x_max":1496,"o":"m 118 926 l 408 926 q 734 810 625 926 q 843 464 843 694 q 408 0 843 0 l 118 0 l 118 926 m 401 94 q 659 183 578 94 q 740 464 740 272 q 659 744 740 656 q 401 833 578 833 l 218 833 l 218 94 l 401 94 m 1496 693 l 1496 606 l 1104 89 l 1496 89 l 1496 0 l 989 0 l 989 90 l 1376 607 l 999 607 l 999 693 l 1496 693 m 1215 783 l 1103 950 l 1181 950 l 1243 853 l 1306 950 l 1383 950 l 1272 783 l 1215 783 z "},"E":{"ha":807,"x_min":118,"x_max":703,"o":"m 118 0 l 118 926 l 703 926 l 703 832 l 218 832 l 218 513 l 644 513 l 644 415 l 218 415 l 218 94 l 703 94 l 703 0 l 118 0 z "},"É":{"ha":807,"x_min":118,"x_max":703,"o":"m 118 0 l 118 926 l 703 926 l 703 832 l 218 832 l 218 513 l 644 513 l 644 415 l 218 415 l 218 94 l 703 94 l 703 0 l 118 0 m 401 1017 l 481 1176 l 583 1176 l 468 1017 l 401 1017 z "},"Ĕ":{"ha":807,"x_min":118,"x_max":703,"o":"m 118 0 l 118 926 l 703 926 l 703 832 l 218 832 l 218 513 l 644 513 l 644 415 l 218 415 l 218 94 l 703 94 l 703 0 l 118 0 m 426 965 q 306 1006 357 965 q 239 1124 256 1047 l 311 1124 q 426 1038 343 1038 q 542 1124 507 1038 l 614 1124 q 549 1006 600 1047 q 426 965 497 965 z "},"Ě":{"ha":807,"x_min":118,"x_max":703,"o":"m 118 0 l 118 926 l 703 926 l 703 832 l 218 832 l 218 513 l 644 513 l 644 415 l 218 415 l 218 94 l 703 94 l 703 0 l 118 0 m 399 978 l 286 1144 l 364 1144 l 426 1047 l 489 1144 l 567 1144 l 456 978 l 399 978 z "},"Ḝ":{"ha":807,"x_min":118,"x_max":703,"o":"m 426 965 q 306 1006 357 965 q 239 1124 256 1047 l 311 1124 q 426 1038 343 1038 q 542 1124 507 1038 l 614 1124 q 549 1006 600 1047 q 426 965 497 965 m 703 832 l 218 832 l 218 513 l 644 513 l 644 415 l 218 415 l 218 94 l 703 94 l 703 0 l 482 0 l 399 -153 l 293 -153 l 401 0 l 118 0 l 118 926 l 703 926 l 703 832 z "},"Ê":{"ha":807,"x_min":118,"x_max":703,"o":"m 118 0 l 118 926 l 703 926 l 703 832 l 218 832 l 218 513 l 644 513 l 644 415 l 218 415 l 218 94 l 703 94 l 703 0 l 118 0 m 272 999 l 385 1165 l 469 1165 l 581 999 l 517 999 l 426 1096 l 336 999 l 272 999 z "},"Ế":{"ha":807,"x_min":118,"x_max":728,"o":"m 118 0 l 118 926 l 703 926 l 703 832 l 218 832 l 218 513 l 644 513 l 644 415 l 218 415 l 218 94 l 703 94 l 703 0 l 118 0 m 276 1017 l 389 1183 l 474 1183 l 585 1017 l 521 1017 l 431 1114 l 340 1017 l 276 1017 m 546 1117 l 625 1276 l 728 1276 l 613 1117 l 546 1117 z "},"Ệ":{"ha":807,"x_min":118,"x_max":703,"o":"m 118 0 l 118 926 l 703 926 l 703 832 l 218 832 l 218 513 l 644 513 l 644 415 l 218 415 l 218 94 l 703 94 l 703 0 l 118 0 m 335 -179 l 335 -69 l 444 -69 l 444 -179 l 335 -179 m 272 999 l 385 1165 l 469 1165 l 581 999 l 517 999 l 426 1096 l 336 999 l 272 999 z "},"Ề":{"ha":807,"x_min":94,"x_max":703,"o":"m 118 0 l 118 926 l 703 926 l 703 832 l 218 832 l 218 513 l 644 513 l 644 415 l 218 415 l 218 94 l 703 94 l 703 0 l 118 0 m 272 1017 l 385 1183 l 469 1183 l 581 1017 l 517 1017 l 426 1114 l 336 1017 l 272 1017 m 210 1108 l 94 1268 l 197 1268 l 276 1108 l 210 1108 z "},"Ể":{"ha":807,"x_min":118,"x_max":703,"o":"m 118 0 l 118 926 l 703 926 l 703 832 l 218 832 l 218 513 l 644 513 l 644 415 l 218 415 l 218 94 l 703 94 l 703 0 l 118 0 m 264 1010 l 376 1176 l 461 1176 l 572 1010 l 508 1010 l 418 1107 l 328 1010 l 264 1010 m 579 1154 q 619 1165 606 1156 q 632 1188 632 1175 q 615 1215 632 1206 q 565 1224 597 1224 q 528 1221 550 1224 l 528 1281 q 571 1285 549 1285 q 661 1263 624 1285 q 699 1190 699 1240 q 681 1142 699 1163 q 625 1115 663 1122 l 625 1082 l 579 1082 l 579 1154 z "},"Ễ":{"ha":807,"x_min":118,"x_max":703,"o":"m 118 0 l 118 926 l 703 926 l 703 832 l 218 832 l 218 513 l 644 513 l 644 415 l 218 415 l 218 94 l 703 94 l 703 0 l 118 0 m 272 989 l 385 1156 l 469 1156 l 581 989 l 517 989 l 426 1086 l 336 989 l 272 989 m 229 1204 q 224 1246 224 1225 q 256 1328 224 1297 q 331 1360 289 1360 q 390 1347 364 1360 q 450 1308 415 1333 q 488 1281 472 1290 q 519 1272 503 1272 q 546 1283 536 1272 q 556 1315 556 1294 q 553 1339 556 1322 l 625 1339 q 628 1310 628 1319 q 595 1226 628 1258 q 508 1194 563 1194 q 451 1208 478 1194 q 394 1246 425 1222 q 358 1272 372 1264 q 329 1281 343 1281 q 301 1267 313 1281 q 290 1229 290 1254 q 293 1204 290 1224 l 229 1204 z "},"Ȅ":{"ha":807,"x_min":118,"x_max":703,"o":"m 118 0 l 118 926 l 703 926 l 703 832 l 218 832 l 218 513 l 644 513 l 644 415 l 218 415 l 218 94 l 703 94 l 703 0 l 118 0 m 317 1017 l 201 1176 l 304 1176 l 383 1017 l 317 1017 m 488 1017 l 372 1176 l 475 1176 l 554 1017 l 488 1017 z "},"Ë":{"ha":807,"x_min":118,"x_max":703,"o":"m 118 0 l 118 926 l 703 926 l 703 832 l 218 832 l 218 513 l 644 513 l 644 415 l 218 415 l 218 94 l 703 94 l 703 0 l 118 0 m 268 1008 l 268 1118 l 378 1118 l 378 1008 l 268 1008 m 474 1008 l 474 1118 l 583 1118 l 583 1008 l 474 1008 z "},"Ė":{"ha":807,"x_min":118,"x_max":703,"o":"m 118 0 l 118 926 l 703 926 l 703 832 l 218 832 l 218 513 l 644 513 l 644 415 l 218 415 l 218 94 l 703 94 l 703 0 l 118 0 m 371 978 l 371 1088 l 481 1088 l 481 978 l 371 978 z "},"Ẹ":{"ha":807,"x_min":118,"x_max":703,"o":"m 118 0 l 118 926 l 703 926 l 703 832 l 218 832 l 218 513 l 644 513 l 644 415 l 218 415 l 218 94 l 703 94 l 703 0 l 118 0 m 335 -179 l 335 -69 l 444 -69 l 444 -179 l 335 -179 z "},"È":{"ha":807,"x_min":118,"x_max":703,"o":"m 118 0 l 118 926 l 703 926 l 703 832 l 218 832 l 218 513 l 644 513 l 644 415 l 218 415 l 218 94 l 703 94 l 703 0 l 118 0 m 400 1001 l 285 1161 l 388 1161 l 467 1001 l 400 1001 z "},"Ẻ":{"ha":807,"x_min":118,"x_max":703,"o":"m 118 0 l 118 926 l 703 926 l 703 832 l 218 832 l 218 513 l 644 513 l 644 415 l 218 415 l 218 94 l 703 94 l 703 0 l 118 0 m 392 1047 q 431 1058 418 1049 q 444 1081 444 1068 q 427 1108 444 1099 q 378 1117 410 1117 q 340 1114 363 1117 l 340 1174 q 383 1178 361 1178 q 474 1156 436 1178 q 511 1083 511 1133 q 493 1035 511 1056 q 438 1008 475 1015 l 438 975 l 392 975 l 392 1047 z "},"Ȇ":{"ha":807,"x_min":118,"x_max":703,"o":"m 118 0 l 118 926 l 703 926 l 703 832 l 218 832 l 218 513 l 644 513 l 644 415 l 218 415 l 218 94 l 703 94 l 703 0 l 118 0 m 426 1096 q 549 1055 497 1096 q 614 938 600 1014 l 542 938 q 426 1024 507 1024 q 311 938 343 1024 l 239 938 q 306 1055 256 1014 q 426 1096 357 1096 z "},"Ē":{"ha":807,"x_min":118,"x_max":703,"o":"m 118 0 l 118 926 l 703 926 l 703 832 l 218 832 l 218 513 l 644 513 l 644 415 l 218 415 l 218 94 l 703 94 l 703 0 l 118 0 m 264 994 l 264 1068 l 589 1068 l 589 994 l 264 994 z "},"Ḗ":{"ha":807,"x_min":118,"x_max":703,"o":"m 118 0 l 118 926 l 703 926 l 703 832 l 218 832 l 218 513 l 644 513 l 644 415 l 218 415 l 218 94 l 703 94 l 703 0 l 118 0 m 264 994 l 264 1068 l 589 1068 l 589 994 l 264 994 m 401 1158 l 481 1318 l 583 1318 l 468 1158 l 401 1158 z "},"Ḕ":{"ha":807,"x_min":118,"x_max":703,"o":"m 118 0 l 118 926 l 703 926 l 703 832 l 218 832 l 218 513 l 644 513 l 644 415 l 218 415 l 218 94 l 703 94 l 703 0 l 118 0 m 264 994 l 264 1068 l 589 1068 l 589 994 l 264 994 m 400 1143 l 285 1303 l 388 1303 l 467 1143 l 400 1143 z "},"Ę":{"ha":807,"x_min":118,"x_max":703,"o":"m 218 832 l 218 513 l 644 513 l 644 415 l 218 415 l 218 94 l 703 94 l 703 0 l 701 0 q 608 -58 643 -28 q 574 -118 574 -89 q 621 -165 574 -165 q 697 -128 660 -165 l 697 -215 q 614 -240 653 -240 q 524 -210 557 -240 q 492 -125 492 -179 q 515 -56 492 -90 q 581 0 539 -21 l 118 0 l 118 926 l 703 926 l 703 832 l 218 832 z "},"Ẽ":{"ha":807,"x_min":118,"x_max":703,"o":"m 118 0 l 118 926 l 703 926 l 703 832 l 218 832 l 218 513 l 644 513 l 644 415 l 218 415 l 218 94 l 703 94 l 703 0 l 118 0 m 238 1010 q 232 1051 232 1031 q 265 1134 232 1103 q 339 1165 297 1165 q 398 1152 372 1165 q 458 1114 424 1139 q 496 1087 481 1096 q 528 1078 511 1078 q 554 1089 544 1078 q 564 1121 564 1100 q 561 1144 564 1128 l 633 1144 q 636 1115 636 1125 q 603 1032 636 1064 q 517 1000 571 1000 q 460 1014 486 1000 q 403 1051 433 1028 q 366 1078 381 1069 q 338 1086 351 1086 q 310 1073 321 1086 q 299 1035 299 1060 q 301 1010 299 1029 l 238 1010 z "},"F":{"ha":749,"x_min":118,"x_max":686,"o":"m 118 0 l 118 926 l 686 926 l 686 832 l 218 832 l 218 513 l 629 513 l 629 415 l 218 415 l 218 0 l 118 0 z "},"Ḟ":{"ha":744,"x_min":118,"x_max":686,"o":"m 118 0 l 118 926 l 686 926 l 686 832 l 218 832 l 218 513 l 629 513 l 629 415 l 218 415 l 218 0 l 118 0 m 336 978 l 336 1088 l 446 1088 l 446 978 l 336 978 z "},"G":{"ha":954,"x_min":83,"x_max":836,"o":"m 513 -14 q 191 107 299 -14 q 83 464 83 228 q 191 819 83 700 q 513 939 299 939 q 804 876 671 939 l 804 772 q 660 825 728 806 q 524 844 592 844 q 265 752 347 844 q 183 464 183 660 q 265 174 183 267 q 524 82 347 82 q 736 115 635 82 l 736 379 l 513 379 l 513 476 l 836 476 l 836 58 q 513 -14 686 -14 z "},"Ǵ":{"ha":954,"x_min":83,"x_max":836,"o":"m 513 -14 q 191 107 299 -14 q 83 464 83 228 q 191 819 83 700 q 513 939 299 939 q 804 876 671 939 l 804 772 q 660 825 728 806 q 524 844 592 844 q 265 752 347 844 q 183 464 183 660 q 265 174 183 267 q 524 82 347 82 q 736 115 635 82 l 736 379 l 513 379 l 513 476 l 836 476 l 836 58 q 513 -14 686 -14 m 481 1017 l 560 1176 l 663 1176 l 547 1017 l 481 1017 z "},"Ğ":{"ha":954,"x_min":83,"x_max":836,"o":"m 513 -14 q 191 107 299 -14 q 83 464 83 228 q 191 819 83 700 q 513 939 299 939 q 804 876 671 939 l 804 772 q 660 825 728 806 q 524 844 592 844 q 265 752 347 844 q 183 464 183 660 q 265 174 183 267 q 524 82 347 82 q 736 115 635 82 l 736 379 l 513 379 l 513 476 l 836 476 l 836 58 q 513 -14 686 -14 m 506 965 q 385 1006 436 965 q 318 1124 335 1047 l 390 1124 q 506 1038 422 1038 q 621 1124 586 1038 l 693 1124 q 628 1006 679 1047 q 506 965 576 965 z "},"Ǧ":{"ha":954,"x_min":83,"x_max":836,"o":"m 513 -14 q 191 107 299 -14 q 83 464 83 228 q 191 819 83 700 q 513 939 299 939 q 804 876 671 939 l 804 772 q 660 825 728 806 q 524 844 592 844 q 265 752 347 844 q 183 464 183 660 q 265 174 183 267 q 524 82 347 82 q 736 115 635 82 l 736 379 l 513 379 l 513 476 l 836 476 l 836 58 q 513 -14 686 -14 m 478 978 l 365 1144 l 443 1144 l 506 1047 l 568 1144 l 646 1144 l 535 978 l 478 978 z "},"Ĝ":{"ha":954,"x_min":83,"x_max":836,"o":"m 513 -14 q 191 107 299 -14 q 83 464 83 228 q 191 819 83 700 q 513 939 299 939 q 804 876 671 939 l 804 772 q 660 825 728 806 q 524 844 592 844 q 265 752 347 844 q 183 464 183 660 q 265 174 183 267 q 524 82 347 82 q 736 115 635 82 l 736 379 l 513 379 l 513 476 l 836 476 l 836 58 q 513 -14 686 -14 m 351 999 l 464 1165 l 549 1165 l 660 999 l 596 999 l 506 1096 l 415 999 l 351 999 z "},"Ģ":{"ha":954,"x_min":83,"x_max":836,"o":"m 513 -14 q 191 107 299 -14 q 83 464 83 228 q 191 819 83 700 q 513 939 299 939 q 804 876 671 939 l 804 772 q 660 825 728 806 q 524 844 592 844 q 265 752 347 844 q 183 464 183 660 q 265 174 183 267 q 524 82 347 82 q 736 115 635 82 l 736 379 l 513 379 l 513 476 l 836 476 l 836 58 q 513 -14 686 -14 m 390 -193 q 435 -145 424 -179 q 446 -68 446 -111 l 529 -68 q 488 -207 529 -158 q 390 -268 446 -256 l 390 -193 z "},"Ġ":{"ha":954,"x_min":83,"x_max":836,"o":"m 513 -14 q 191 107 299 -14 q 83 464 83 228 q 191 819 83 700 q 513 939 299 939 q 804 876 671 939 l 804 772 q 660 825 728 806 q 524 844 592 844 q 265 752 347 844 q 183 464 183 660 q 265 174 183 267 q 524 82 347 82 q 736 115 635 82 l 736 379 l 513 379 l 513 476 l 836 476 l 836 58 q 513 -14 686 -14 m 450 978 l 450 1088 l 560 1088 l 560 978 l 450 978 z "},"Ḡ":{"ha":954,"x_min":83,"x_max":836,"o":"m 513 -14 q 191 107 299 -14 q 83 464 83 228 q 191 819 83 700 q 513 939 299 939 q 804 876 671 939 l 804 772 q 660 825 728 806 q 524 844 592 844 q 265 752 347 844 q 183 464 183 660 q 265 174 183 267 q 524 82 347 82 q 736 115 635 82 l 736 379 l 513 379 l 513 476 l 836 476 l 836 58 q 513 -14 686 -14 m 343 994 l 343 1068 l 668 1068 l 668 994 l 343 994 z "},"H":{"ha":929,"x_min":118,"x_max":811,"o":"m 118 0 l 118 926 l 218 926 l 218 510 l 711 510 l 711 926 l 811 926 l 811 0 l 711 0 l 711 415 l 218 415 l 218 0 l 118 0 z "},"Ħ":{"ha":929,"x_min":49,"x_max":881,"o":"m 881 738 l 881 664 l 811 664 l 811 0 l 711 0 l 711 415 l 218 415 l 218 0 l 118 0 l 118 664 l 49 664 l 49 738 l 118 738 l 118 926 l 218 926 l 218 738 l 711 738 l 711 926 l 811 926 l 811 738 l 881 738 m 711 510 l 711 664 l 218 664 l 218 510 l 711 510 z "},"Ḫ":{"ha":929,"x_min":118,"x_max":811,"o":"m 118 0 l 118 926 l 218 926 l 218 510 l 711 510 l 711 926 l 811 926 l 811 0 l 711 0 l 711 415 l 218 415 l 218 0 l 118 0 m 465 -196 q 345 -155 396 -196 q 278 -37 294 -114 l 350 -37 q 465 -124 382 -124 q 581 -37 546 -124 l 653 -37 q 588 -155 639 -114 q 465 -196 536 -196 z "},"Ĥ":{"ha":929,"x_min":118,"x_max":811,"o":"m 118 0 l 118 926 l 218 926 l 218 510 l 711 510 l 711 926 l 811 926 l 811 0 l 711 0 l 711 415 l 218 415 l 218 0 l 118 0 m 311 999 l 424 1165 l 508 1165 l 619 999 l 556 999 l 465 1096 l 375 999 l 311 999 z "},"I":{"ha":336,"x_min":118,"x_max":218,"o":"m 118 0 l 118 926 l 218 926 l 218 0 l 118 0 z "},"Ĳ":{"ha":965,"x_min":118,"x_max":847,"o":"m 118 0 l 118 926 l 218 926 l 218 0 l 118 0 m 582 -11 q 399 38 482 -11 l 399 142 q 569 86 478 86 q 706 133 664 86 q 747 285 747 179 l 747 926 l 847 926 l 847 276 q 770 52 847 115 q 582 -11 693 -11 z "},"Í":{"ha":336,"x_min":118,"x_max":325,"o":"m 118 0 l 118 926 l 218 926 l 218 0 l 118 0 m 143 1017 l 222 1176 l 325 1176 l 210 1017 l 143 1017 z "},"Ĭ":{"ha":336,"x_min":-19,"x_max":356,"o":"m 118 0 l 118 926 l 218 926 l 218 0 l 118 0 m 168 965 q 48 1006 99 965 q -19 1124 -3 1047 l 53 1124 q 168 1038 85 1038 q 283 1124 249 1038 l 356 1124 q 290 1006 342 1047 q 168 965 239 965 z "},"Ǐ":{"ha":336,"x_min":28,"x_max":308,"o":"m 118 0 l 118 926 l 218 926 l 218 0 l 118 0 m 140 978 l 28 1144 l 106 1144 l 168 1047 l 231 1144 l 308 1144 l 197 978 l 140 978 z "},"Î":{"ha":336,"x_min":14,"x_max":322,"o":"m 118 0 l 118 926 l 218 926 l 218 0 l 118 0 m 14 999 l 126 1165 l 211 1165 l 322 999 l 258 999 l 168 1096 l 78 999 l 14 999 z "},"Ȉ":{"ha":336,"x_min":-57,"x_max":296,"o":"m 118 0 l 118 926 l 218 926 l 218 0 l 118 0 m 58 1017 l -57 1176 l 46 1176 l 125 1017 l 58 1017 m 229 1017 l 114 1176 l 217 1176 l 296 1017 l 229 1017 z "},"Ï":{"ha":336,"x_min":10,"x_max":325,"o":"m 118 0 l 118 926 l 218 926 l 218 0 l 118 0 m 10 1008 l 10 1118 l 119 1118 l 119 1008 l 10 1008 m 215 1008 l 215 1118 l 325 1118 l 325 1008 l 215 1008 z "},"Ḯ":{"ha":336,"x_min":10,"x_max":325,"o":"m 118 0 l 118 926 l 218 926 l 218 0 l 118 0 m 10 1008 l 10 1118 l 119 1118 l 119 1008 l 10 1008 m 215 1008 l 215 1118 l 325 1118 l 325 1008 l 215 1008 m 143 1250 l 222 1410 l 325 1410 l 210 1250 l 143 1250 z "},"İ":{"ha":336,"x_min":113,"x_max":222,"o":"m 118 0 l 118 926 l 218 926 l 218 0 l 118 0 m 113 978 l 113 1088 l 222 1088 l 222 978 l 113 978 z "},"Ị":{"ha":336,"x_min":113,"x_max":222,"o":"m 118 0 l 118 926 l 218 926 l 218 0 l 118 0 m 113 -179 l 113 -69 l 222 -69 l 222 -179 l 113 -179 z "},"Ì":{"ha":336,"x_min":26,"x_max":218,"o":"m 118 0 l 118 926 l 218 926 l 218 0 l 118 0 m 142 1001 l 26 1161 l 129 1161 l 208 1001 l 142 1001 z "},"Ỉ":{"ha":336,"x_min":82,"x_max":253,"o":"m 118 0 l 118 926 l 218 926 l 218 0 l 118 0 m 133 1047 q 173 1058 160 1049 q 186 1081 186 1068 q 169 1108 186 1099 q 119 1117 151 1117 q 82 1114 104 1117 l 82 1174 q 125 1178 103 1178 q 215 1156 178 1178 q 253 1083 253 1133 q 235 1035 253 1056 q 179 1008 217 1015 l 179 975 l 133 975 l 133 1047 z "},"Ȋ":{"ha":336,"x_min":-19,"x_max":356,"o":"m 118 0 l 118 926 l 218 926 l 218 0 l 118 0 m 168 1096 q 290 1055 239 1096 q 356 938 342 1014 l 283 938 q 168 1024 249 1024 q 53 938 85 1024 l -19 938 q 48 1055 -3 1014 q 168 1096 99 1096 z "},"Ī":{"ha":336,"x_min":6,"x_max":331,"o":"m 118 0 l 118 926 l 218 926 l 218 0 l 118 0 m 6 994 l 6 1068 l 331 1068 l 331 994 l 6 994 z "},"Į":{"ha":336,"x_min":8,"x_max":218,"o":"m 218 0 q 125 -58 160 -28 q 90 -118 90 -89 q 138 -165 90 -165 q 214 -128 176 -165 l 214 -215 q 131 -240 169 -240 q 41 -210 74 -240 q 8 -125 8 -179 q 40 -49 8 -90 q 118 13 72 -8 l 118 926 l 218 926 l 218 0 z "},"Ĩ":{"ha":336,"x_min":-26,"x_max":378,"o":"m 118 0 l 118 926 l 218 926 l 218 0 l 118 0 m -21 1010 q -26 1051 -26 1031 q 6 1134 -26 1103 q 81 1165 39 1165 q 140 1152 114 1165 q 200 1114 165 1139 q 238 1087 222 1096 q 269 1078 253 1078 q 296 1089 286 1078 q 306 1121 306 1100 q 303 1144 306 1128 l 375 1144 q 378 1115 378 1125 q 345 1032 378 1064 q 258 1000 313 1000 q 201 1014 228 1000 q 144 1051 175 1028 q 108 1078 122 1069 q 79 1086 93 1086 q 51 1073 63 1086 q 40 1035 40 1060 q 43 1010 40 1029 l -21 1010 z "},"J":{"ha":629,"x_min":63,"x_max":511,"o":"m 246 -11 q 63 38 146 -11 l 63 142 q 233 86 142 86 q 369 133 328 86 q 411 285 411 179 l 411 926 l 511 926 l 511 276 q 434 52 511 115 q 246 -11 357 -11 z "},"Ĵ":{"ha":629,"x_min":63,"x_max":622,"o":"m 246 -11 q 63 38 146 -11 l 63 142 q 233 86 142 86 q 369 133 328 86 q 411 285 411 179 l 411 926 l 511 926 l 511 276 q 434 52 511 115 q 246 -11 357 -11 m 314 999 l 426 1165 l 511 1165 l 622 999 l 558 999 l 468 1096 l 378 999 l 314 999 z "},"K":{"ha":851,"x_min":118,"x_max":817,"o":"m 678 0 l 318 418 l 218 308 l 218 0 l 118 0 l 118 926 l 218 926 l 218 439 l 657 926 l 785 926 l 388 493 l 817 0 l 678 0 z "},"Ķ":{"ha":851,"x_min":118,"x_max":817,"o":"m 678 0 l 318 418 l 218 308 l 218 0 l 118 0 l 118 926 l 218 926 l 218 439 l 657 926 l 785 926 l 388 493 l 817 0 l 678 0 m 371 -193 q 415 -145 404 -179 q 426 -68 426 -111 l 510 -68 q 468 -207 510 -158 q 371 -268 426 -256 l 371 -193 z "},"L":{"ha":726,"x_min":118,"x_max":692,"o":"m 118 0 l 118 926 l 218 926 l 218 97 l 692 97 l 692 0 l 118 0 z "},"Ǉ":{"ha":1356,"x_min":118,"x_max":1238,"o":"m 118 0 l 118 926 l 218 926 l 218 97 l 692 97 l 692 0 l 118 0 m 972 -11 q 789 38 872 -11 l 789 142 q 960 86 868 86 q 1096 133 1054 86 q 1138 285 1138 179 l 1138 926 l 1238 926 l 1238 276 q 1160 52 1238 115 q 972 -11 1083 -11 z "},"Ĺ":{"ha":726,"x_min":118,"x_max":692,"o":"m 118 0 l 118 926 l 218 926 l 218 97 l 692 97 l 692 0 l 118 0 m 149 1017 l 228 1176 l 331 1176 l 215 1017 l 149 1017 z "},"Ľ":{"ha":747,"x_min":118,"x_max":692,"o":"m 118 0 l 118 926 l 218 926 l 218 97 l 692 97 l 692 0 l 118 0 m 525 807 q 569 855 558 821 q 581 932 581 889 l 664 932 q 622 793 664 842 q 525 732 581 744 l 525 807 z "},"Ļ":{"ha":726,"x_min":118,"x_max":692,"o":"m 118 0 l 118 926 l 218 926 l 218 97 l 692 97 l 692 0 l 118 0 m 304 -193 q 349 -145 338 -179 q 360 -68 360 -111 l 443 -68 q 401 -207 443 -158 q 304 -268 360 -256 l 304 -193 z "},"Ŀ":{"ha":726,"x_min":118,"x_max":692,"o":"m 118 0 l 118 926 l 218 926 l 218 97 l 692 97 l 692 0 l 118 0 m 381 404 l 381 515 l 490 515 l 490 404 l 381 404 z "},"Ḷ":{"ha":726,"x_min":118,"x_max":692,"o":"m 118 0 l 118 926 l 218 926 l 218 97 l 692 97 l 692 0 l 118 0 m 318 -179 l 318 -69 l 428 -69 l 428 -179 l 318 -179 z "},"ǈ":{"ha":1099,"x_min":118,"x_max":988,"o":"m 118 0 l 118 926 l 218 926 l 218 97 l 692 97 l 692 0 l 118 0 m 876 817 l 876 926 l 988 926 l 988 817 l 876 817 m 740 -175 q 829 -158 799 -174 q 871 -112 860 -142 q 882 -35 882 -83 l 882 693 l 982 693 l 982 -40 q 922 -212 982 -156 q 740 -268 863 -268 l 740 -175 z "},"Ḻ":{"ha":726,"x_min":118,"x_max":692,"o":"m 118 0 l 118 926 l 218 926 l 218 97 l 692 97 l 692 0 l 118 0 m 211 -165 l 211 -92 l 536 -92 l 536 -165 l 211 -165 z "},"Ł":{"ha":724,"x_min":18,"x_max":692,"o":"m 218 97 l 692 97 l 692 0 l 118 0 l 118 417 l 18 349 l 18 438 l 118 506 l 118 926 l 218 926 l 218 572 l 407 700 l 407 611 l 218 483 l 218 97 z "},"M":{"ha":1090,"x_min":118,"x_max":972,"o":"m 864 926 l 972 926 l 972 0 l 872 0 l 872 764 l 535 290 l 218 761 l 218 0 l 118 0 l 118 926 l 226 926 l 540 444 l 864 926 z "},"Ṃ":{"ha":1090,"x_min":118,"x_max":972,"o":"m 864 926 l 972 926 l 972 0 l 872 0 l 872 764 l 535 290 l 218 761 l 218 0 l 118 0 l 118 926 l 226 926 l 540 444 l 864 926 m 490 -179 l 490 -69 l 600 -69 l 600 -179 l 490 -179 z "},"N":{"ha":1003,"x_min":118,"x_max":885,"o":"m 785 926 l 885 926 l 885 0 l 772 0 l 218 781 l 218 0 l 118 0 l 118 926 l 232 926 l 785 146 l 785 926 z "},"Ǌ":{"ha":1632,"x_min":118,"x_max":1514,"o":"m 785 926 l 885 926 l 885 0 l 772 0 l 218 781 l 218 0 l 118 0 l 118 926 l 232 926 l 785 146 l 785 926 m 1249 -11 q 1065 38 1149 -11 l 1065 142 q 1236 86 1144 86 q 1372 133 1331 86 q 1414 285 1414 179 l 1414 926 l 1514 926 l 1514 276 q 1437 52 1514 115 q 1249 -11 1360 -11 z "},"Ń":{"ha":1003,"x_min":118,"x_max":885,"o":"m 785 926 l 885 926 l 885 0 l 772 0 l 218 781 l 218 0 l 118 0 l 118 926 l 232 926 l 785 146 l 785 926 m 478 1017 l 557 1176 l 660 1176 l 544 1017 l 478 1017 z "},"Ň":{"ha":1003,"x_min":118,"x_max":885,"o":"m 785 926 l 885 926 l 885 0 l 772 0 l 218 781 l 218 0 l 118 0 l 118 926 l 232 926 l 785 146 l 785 926 m 475 978 l 363 1144 l 440 1144 l 503 1047 l 565 1144 l 643 1144 l 532 978 l 475 978 z "},"Ņ":{"ha":1003,"x_min":118,"x_max":885,"o":"m 785 926 l 885 926 l 885 0 l 772 0 l 218 781 l 218 0 l 118 0 l 118 926 l 232 926 l 785 146 l 785 926 m 433 -193 q 478 -145 467 -179 q 489 -68 489 -111 l 572 -68 q 531 -207 572 -158 q 433 -268 489 -256 l 433 -193 z "},"Ṇ":{"ha":1003,"x_min":118,"x_max":885,"o":"m 785 926 l 885 926 l 885 0 l 772 0 l 218 781 l 218 0 l 118 0 l 118 926 l 232 926 l 785 146 l 785 926 m 447 -179 l 447 -69 l 557 -69 l 557 -179 l 447 -179 z "},"Ŋ":{"ha":1011,"x_min":121,"x_max":886,"o":"m 886 926 l 886 -12 q 826 -183 886 -126 q 644 -239 767 -239 l 644 -146 q 756 -115 728 -144 q 786 -17 785 -85 l 786 -11 l 221 781 l 221 0 l 121 0 l 121 926 l 235 926 l 786 146 l 786 926 l 886 926 z "},"Ɲ":{"ha":1040,"x_min":14,"x_max":922,"o":"m 922 926 l 922 0 l 810 0 l 256 781 l 256 -40 q 196 -212 256 -156 q 14 -268 136 -268 l 14 -175 q 103 -158 72 -174 q 144 -112 133 -142 q 156 -35 156 -83 l 156 926 l 269 926 l 822 146 l 822 926 l 922 926 z "},"ǋ":{"ha":1375,"x_min":118,"x_max":1264,"o":"m 785 926 l 885 926 l 885 0 l 772 0 l 218 781 l 218 0 l 118 0 l 118 926 l 232 926 l 785 146 l 785 926 m 1153 817 l 1153 926 l 1264 926 l 1264 817 l 1153 817 m 1017 -175 q 1106 -158 1075 -174 q 1147 -112 1136 -142 q 1158 -35 1158 -83 l 1158 693 l 1258 693 l 1258 -40 q 1199 -212 1258 -156 q 1017 -268 1139 -268 l 1017 -175 z "},"Ṉ":{"ha":1003,"x_min":118,"x_max":885,"o":"m 785 926 l 885 926 l 885 0 l 772 0 l 218 781 l 218 0 l 118 0 l 118 926 l 232 926 l 785 146 l 785 926 m 340 -165 l 340 -92 l 665 -92 l 665 -165 l 340 -165 z "},"Ñ":{"ha":1003,"x_min":118,"x_max":885,"o":"m 785 926 l 885 926 l 885 0 l 772 0 l 218 781 l 218 0 l 118 0 l 118 926 l 232 926 l 785 146 l 785 926 m 314 1010 q 308 1051 308 1031 q 341 1134 308 1103 q 415 1165 374 1165 q 474 1152 449 1165 q 535 1114 500 1139 q 572 1087 557 1096 q 604 1078 588 1078 q 631 1089 621 1078 q 640 1121 640 1100 q 638 1144 640 1128 l 710 1144 q 713 1115 713 1125 q 680 1032 713 1064 q 593 1000 647 1000 q 536 1014 563 1000 q 479 1051 510 1028 q 442 1078 457 1069 q 414 1086 428 1086 q 386 1073 397 1086 q 375 1035 375 1060 q 378 1010 375 1029 l 314 1010 z "},"O":{"ha":999,"x_min":83,"x_max":915,"o":"m 499 -14 q 188 106 293 -14 q 83 463 83 226 q 188 819 83 699 q 499 939 293 939 q 810 819 706 939 q 915 463 915 699 q 810 106 915 226 q 499 -14 706 -14 m 499 81 q 738 172 663 81 q 813 463 813 264 q 738 752 813 660 q 499 844 663 844 q 261 752 336 844 q 186 463 186 660 q 261 172 186 264 q 499 81 336 81 z "},"Ó":{"ha":999,"x_min":83,"x_max":915,"o":"m 499 -14 q 188 106 293 -14 q 83 463 83 226 q 188 819 83 699 q 499 939 293 939 q 810 819 706 939 q 915 463 915 699 q 810 106 915 226 q 499 -14 706 -14 m 499 81 q 738 172 663 81 q 813 463 813 264 q 738 752 813 660 q 499 844 663 844 q 261 752 336 844 q 186 463 186 660 q 261 172 186 264 q 499 81 336 81 m 485 1017 l 564 1176 l 667 1176 l 551 1017 l 485 1017 z "},"Ŏ":{"ha":999,"x_min":83,"x_max":915,"o":"m 499 -14 q 188 106 293 -14 q 83 463 83 226 q 188 819 83 699 q 499 939 293 939 q 810 819 706 939 q 915 463 915 699 q 810 106 915 226 q 499 -14 706 -14 m 499 81 q 738 172 663 81 q 813 463 813 264 q 738 752 813 660 q 499 844 663 844 q 261 752 336 844 q 186 463 186 660 q 261 172 186 264 q 499 81 336 81 m 510 965 q 390 1006 440 965 q 322 1124 339 1047 l 394 1124 q 510 1038 426 1038 q 625 1124 590 1038 l 697 1124 q 632 1006 683 1047 q 510 965 581 965 z "},"Ǒ":{"ha":999,"x_min":83,"x_max":915,"o":"m 499 -14 q 188 106 293 -14 q 83 463 83 226 q 188 819 83 699 q 499 939 293 939 q 810 819 706 939 q 915 463 915 699 q 810 106 915 226 q 499 -14 706 -14 m 499 81 q 738 172 663 81 q 813 463 813 264 q 738 752 813 660 q 499 844 663 844 q 261 752 336 844 q 186 463 186 660 q 261 172 186 264 q 499 81 336 81 m 482 978 l 369 1144 l 447 1144 l 510 1047 l 572 1144 l 650 1144 l 539 978 l 482 978 z "},"Ô":{"ha":999,"x_min":83,"x_max":915,"o":"m 499 -14 q 188 106 293 -14 q 83 463 83 226 q 188 819 83 699 q 499 939 293 939 q 810 819 706 939 q 915 463 915 699 q 810 106 915 226 q 499 -14 706 -14 m 499 81 q 738 172 663 81 q 813 463 813 264 q 738 752 813 660 q 499 844 663 844 q 261 752 336 844 q 186 463 186 660 q 261 172 186 264 q 499 81 336 81 m 356 999 l 468 1165 l 553 1165 l 664 999 l 600 999 l 510 1096 l 419 999 l 356 999 z "},"Ố":{"ha":999,"x_min":83,"x_max":915,"o":"m 499 -14 q 188 106 293 -14 q 83 463 83 226 q 188 819 83 699 q 499 939 293 939 q 810 819 706 939 q 915 463 915 699 q 810 106 915 226 q 499 -14 706 -14 m 499 81 q 738 172 663 81 q 813 463 813 264 q 738 752 813 660 q 499 844 663 844 q 261 752 336 844 q 186 463 186 660 q 261 172 186 264 q 499 81 336 81 m 360 1017 l 472 1183 l 557 1183 l 668 1017 l 604 1017 l 514 1114 l 424 1017 l 360 1017 m 629 1117 l 708 1276 l 811 1276 l 696 1117 l 629 1117 z "},"Ộ":{"ha":999,"x_min":83,"x_max":915,"o":"m 499 -14 q 188 106 293 -14 q 83 463 83 226 q 188 819 83 699 q 499 939 293 939 q 810 819 706 939 q 915 463 915 699 q 810 106 915 226 q 499 -14 706 -14 m 499 81 q 738 172 663 81 q 813 463 813 264 q 738 752 813 660 q 499 844 663 844 q 261 752 336 844 q 186 463 186 660 q 261 172 186 264 q 499 81 336 81 m 454 -179 l 454 -69 l 564 -69 l 564 -179 l 454 -179 m 356 999 l 468 1165 l 553 1165 l 664 999 l 600 999 l 510 1096 l 419 999 l 356 999 z "},"Ồ":{"ha":999,"x_min":83,"x_max":915,"o":"m 499 -14 q 188 106 293 -14 q 83 463 83 226 q 188 819 83 699 q 499 939 293 939 q 810 819 706 939 q 915 463 915 699 q 810 106 915 226 q 499 -14 706 -14 m 499 81 q 738 172 663 81 q 813 463 813 264 q 738 752 813 660 q 499 844 663 844 q 261 752 336 844 q 186 463 186 660 q 261 172 186 264 q 499 81 336 81 m 356 1017 l 468 1183 l 553 1183 l 664 1017 l 600 1017 l 510 1114 l 419 1017 l 356 1017 m 293 1108 l 178 1268 l 281 1268 l 360 1108 l 293 1108 z "},"Ổ":{"ha":999,"x_min":83,"x_max":915,"o":"m 499 -14 q 188 106 293 -14 q 83 463 83 226 q 188 819 83 699 q 499 939 293 939 q 810 819 706 939 q 915 463 915 699 q 810 106 915 226 q 499 -14 706 -14 m 499 81 q 738 172 663 81 q 813 463 813 264 q 738 752 813 660 q 499 844 663 844 q 261 752 336 844 q 186 463 186 660 q 261 172 186 264 q 499 81 336 81 m 347 1010 l 460 1176 l 544 1176 l 656 1010 l 592 1010 l 501 1107 l 411 1010 l 347 1010 m 663 1154 q 702 1165 689 1156 q 715 1188 715 1175 q 698 1215 715 1206 q 649 1224 681 1224 q 611 1221 633 1224 l 611 1281 q 654 1285 632 1285 q 744 1263 707 1285 q 782 1190 782 1240 q 764 1142 782 1163 q 708 1115 746 1122 l 708 1082 l 663 1082 l 663 1154 z "},"Ỗ":{"ha":999,"x_min":83,"x_max":915,"o":"m 499 -14 q 188 106 293 -14 q 83 463 83 226 q 188 819 83 699 q 499 939 293 939 q 810 819 706 939 q 915 463 915 699 q 810 106 915 226 q 499 -14 706 -14 m 499 81 q 738 172 663 81 q 813 463 813 264 q 738 752 813 660 q 499 844 663 844 q 261 752 336 844 q 186 463 186 660 q 261 172 186 264 q 499 81 336 81 m 356 989 l 468 1156 l 553 1156 l 664 989 l 600 989 l 510 1086 l 419 989 l 356 989 m 313 1204 q 307 1246 307 1225 q 340 1328 307 1297 q 414 1360 372 1360 q 473 1347 447 1360 q 533 1308 499 1333 q 571 1281 556 1290 q 603 1272 586 1272 q 629 1283 619 1272 q 639 1315 639 1294 q 636 1339 639 1322 l 708 1339 q 711 1310 711 1319 q 678 1226 711 1258 q 592 1194 646 1194 q 535 1208 561 1194 q 478 1246 508 1222 q 441 1272 456 1264 q 413 1281 426 1281 q 385 1267 396 1281 q 374 1229 374 1254 q 376 1204 374 1224 l 313 1204 z "},"Ȍ":{"ha":999,"x_min":83,"x_max":915,"o":"m 499 -14 q 188 106 293 -14 q 83 463 83 226 q 188 819 83 699 q 499 939 293 939 q 810 819 706 939 q 915 463 915 699 q 810 106 915 226 q 499 -14 706 -14 m 499 81 q 738 172 663 81 q 813 463 813 264 q 738 752 813 660 q 499 844 663 844 q 261 752 336 844 q 186 463 186 660 q 261 172 186 264 q 499 81 336 81 m 400 1017 l 285 1176 l 388 1176 l 467 1017 l 400 1017 m 571 1017 l 456 1176 l 558 1176 l 638 1017 l 571 1017 z "},"Ö":{"ha":999,"x_min":83,"x_max":915,"o":"m 499 -14 q 188 106 293 -14 q 83 463 83 226 q 188 819 83 699 q 499 939 293 939 q 810 819 706 939 q 915 463 915 699 q 810 106 915 226 q 499 -14 706 -14 m 499 81 q 738 172 663 81 q 813 463 813 264 q 738 752 813 660 q 499 844 663 844 q 261 752 336 844 q 186 463 186 660 q 261 172 186 264 q 499 81 336 81 m 351 1008 l 351 1118 l 461 1118 l 461 1008 l 351 1008 m 557 1008 l 557 1118 l 667 1118 l 667 1008 l 557 1008 z "},"Ȫ":{"ha":999,"x_min":83,"x_max":915,"o":"m 499 -14 q 188 106 293 -14 q 83 463 83 226 q 188 819 83 699 q 499 939 293 939 q 810 819 706 939 q 915 463 915 699 q 810 106 915 226 q 499 -14 706 -14 m 499 81 q 738 172 663 81 q 813 463 813 264 q 738 752 813 660 q 499 844 663 844 q 261 752 336 844 q 186 463 186 660 q 261 172 186 264 q 499 81 336 81 m 351 1008 l 351 1118 l 461 1118 l 461 1008 l 351 1008 m 557 1008 l 557 1118 l 667 1118 l 667 1008 l 557 1008 m 347 1228 l 347 1301 l 672 1301 l 672 1228 l 347 1228 z "},"Ȱ":{"ha":999,"x_min":83,"x_max":915,"o":"m 499 -14 q 188 106 293 -14 q 83 463 83 226 q 188 819 83 699 q 499 939 293 939 q 810 819 706 939 q 915 463 915 699 q 810 106 915 226 q 499 -14 706 -14 m 499 81 q 738 172 663 81 q 813 463 813 264 q 738 752 813 660 q 499 844 663 844 q 261 752 336 844 q 186 463 186 660 q 261 172 186 264 q 499 81 336 81 m 454 978 l 454 1088 l 564 1088 l 564 978 l 454 978 m 347 1156 l 347 1229 l 672 1229 l 672 1156 l 347 1156 z "},"Ọ":{"ha":999,"x_min":83,"x_max":915,"o":"m 499 -14 q 188 106 293 -14 q 83 463 83 226 q 188 819 83 699 q 499 939 293 939 q 810 819 706 939 q 915 463 915 699 q 810 106 915 226 q 499 -14 706 -14 m 499 81 q 738 172 663 81 q 813 463 813 264 q 738 752 813 660 q 499 844 663 844 q 261 752 336 844 q 186 463 186 660 q 261 172 186 264 q 499 81 336 81 m 454 -179 l 454 -69 l 564 -69 l 564 -179 l 454 -179 z "},"Ò":{"ha":999,"x_min":83,"x_max":915,"o":"m 499 -14 q 188 106 293 -14 q 83 463 83 226 q 188 819 83 699 q 499 939 293 939 q 810 819 706 939 q 915 463 915 699 q 810 106 915 226 q 499 -14 706 -14 m 499 81 q 738 172 663 81 q 813 463 813 264 q 738 752 813 660 q 499 844 663 844 q 261 752 336 844 q 186 463 186 660 q 261 172 186 264 q 499 81 336 81 m 483 1001 l 368 1161 l 471 1161 l 550 1001 l 483 1001 z "},"Ỏ":{"ha":999,"x_min":83,"x_max":915,"o":"m 499 -14 q 188 106 293 -14 q 83 463 83 226 q 188 819 83 699 q 499 939 293 939 q 810 819 706 939 q 915 463 915 699 q 810 106 915 226 q 499 -14 706 -14 m 499 81 q 738 172 663 81 q 813 463 813 264 q 738 752 813 660 q 499 844 663 844 q 261 752 336 844 q 186 463 186 660 q 261 172 186 264 q 499 81 336 81 m 475 1047 q 515 1058 501 1049 q 528 1081 528 1068 q 510 1108 528 1099 q 461 1117 493 1117 q 424 1114 446 1117 l 424 1174 q 467 1178 444 1178 q 557 1156 519 1178 q 594 1083 594 1133 q 576 1035 594 1056 q 521 1008 558 1015 l 521 975 l 475 975 l 475 1047 z "},"Ơ":{"ha":999,"x_min":83,"x_max":915,"o":"m 742 878 q 915 463 915 769 q 810 106 915 226 q 499 -14 706 -14 q 188 106 293 -14 q 83 463 83 226 q 188 819 83 699 q 499 939 293 939 q 647 919 581 939 q 708 953 682 926 q 733 1013 733 979 l 733 1049 l 808 1049 l 808 1010 q 790 934 808 968 q 742 878 772 900 m 499 81 q 738 172 663 81 q 813 463 813 264 q 738 752 813 660 q 499 844 663 844 q 261 752 336 844 q 186 463 186 660 q 261 172 186 264 q 499 81 336 81 z "},"Ớ":{"ha":999,"x_min":83,"x_max":915,"o":"m 742 878 q 915 463 915 769 q 810 106 915 226 q 499 -14 706 -14 q 188 106 293 -14 q 83 463 83 226 q 188 819 83 699 q 499 939 293 939 q 647 919 581 939 q 708 953 682 926 q 733 1013 733 979 l 733 1049 l 808 1049 l 808 1010 q 790 934 808 968 q 742 878 772 900 m 499 81 q 738 172 663 81 q 813 463 813 264 q 738 752 813 660 q 499 844 663 844 q 261 752 336 844 q 186 463 186 660 q 261 172 186 264 q 499 81 336 81 m 485 1017 l 564 1176 l 667 1176 l 551 1017 l 485 1017 z "},"Ợ":{"ha":999,"x_min":83,"x_max":915,"o":"m 742 878 q 915 463 915 769 q 810 106 915 226 q 499 -14 706 -14 q 188 106 293 -14 q 83 463 83 226 q 188 819 83 699 q 499 939 293 939 q 647 919 581 939 q 708 953 682 926 q 733 1013 733 979 l 733 1049 l 808 1049 l 808 1010 q 790 934 808 968 q 742 878 772 900 m 499 81 q 738 172 663 81 q 813 463 813 264 q 738 752 813 660 q 499 844 663 844 q 261 752 336 844 q 186 463 186 660 q 261 172 186 264 q 499 81 336 81 m 454 -179 l 454 -69 l 564 -69 l 564 -179 l 454 -179 z "},"Ờ":{"ha":999,"x_min":83,"x_max":915,"o":"m 742 878 q 915 463 915 769 q 810 106 915 226 q 499 -14 706 -14 q 188 106 293 -14 q 83 463 83 226 q 188 819 83 699 q 499 939 293 939 q 647 919 581 939 q 708 953 682 926 q 733 1013 733 979 l 733 1049 l 808 1049 l 808 1010 q 790 934 808 968 q 742 878 772 900 m 499 81 q 738 172 663 81 q 813 463 813 264 q 738 752 813 660 q 499 844 663 844 q 261 752 336 844 q 186 463 186 660 q 261 172 186 264 q 499 81 336 81 m 483 1001 l 368 1161 l 471 1161 l 550 1001 l 483 1001 z "},"Ở":{"ha":999,"x_min":83,"x_max":915,"o":"m 742 878 q 915 463 915 769 q 810 106 915 226 q 499 -14 706 -14 q 188 106 293 -14 q 83 463 83 226 q 188 819 83 699 q 499 939 293 939 q 647 919 581 939 q 708 953 682 926 q 733 1013 733 979 l 733 1049 l 808 1049 l 808 1010 q 790 934 808 968 q 742 878 772 900 m 499 81 q 738 172 663 81 q 813 463 813 264 q 738 752 813 660 q 499 844 663 844 q 261 752 336 844 q 186 463 186 660 q 261 172 186 264 q 499 81 336 81 m 475 1047 q 515 1058 501 1049 q 528 1081 528 1068 q 510 1108 528 1099 q 461 1117 493 1117 q 424 1114 446 1117 l 424 1174 q 467 1178 444 1178 q 557 1156 519 1178 q 594 1083 594 1133 q 576 1035 594 1056 q 521 1008 558 1015 l 521 975 l 475 975 l 475 1047 z "},"Ỡ":{"ha":999,"x_min":83,"x_max":915,"o":"m 742 878 q 915 463 915 769 q 810 106 915 226 q 499 -14 706 -14 q 188 106 293 -14 q 83 463 83 226 q 188 819 83 699 q 499 939 293 939 q 647 919 581 939 q 708 953 682 926 q 733 1013 733 979 l 733 1049 l 808 1049 l 808 1010 q 790 934 808 968 q 742 878 772 900 m 499 81 q 738 172 663 81 q 813 463 813 264 q 738 752 813 660 q 499 844 663 844 q 261 752 336 844 q 186 463 186 660 q 261 172 186 264 q 499 81 336 81 m 321 1010 q 315 1051 315 1031 q 348 1134 315 1103 q 422 1165 381 1165 q 481 1152 456 1165 q 542 1114 507 1139 q 579 1087 564 1096 q 611 1078 594 1078 q 638 1089 628 1078 q 647 1121 647 1100 q 644 1144 647 1128 l 717 1144 q 719 1115 719 1125 q 687 1032 719 1064 q 600 1000 654 1000 q 543 1014 569 1000 q 486 1051 517 1028 q 449 1078 464 1069 q 421 1086 435 1086 q 393 1073 404 1086 q 382 1035 382 1060 q 385 1010 382 1029 l 321 1010 z "},"Ő":{"ha":999,"x_min":83,"x_max":915,"o":"m 499 -14 q 188 106 293 -14 q 83 463 83 226 q 188 819 83 699 q 499 939 293 939 q 810 819 706 939 q 915 463 915 699 q 810 106 915 226 q 499 -14 706 -14 m 499 81 q 738 172 663 81 q 813 463 813 264 q 738 752 813 660 q 499 844 663 844 q 261 752 336 844 q 186 463 186 660 q 261 172 186 264 q 499 81 336 81 m 390 978 l 469 1138 l 572 1138 l 457 978 l 390 978 m 557 978 l 636 1138 l 739 1138 l 624 978 l 557 978 z "},"Ȏ":{"ha":999,"x_min":83,"x_max":915,"o":"m 499 -14 q 188 106 293 -14 q 83 463 83 226 q 188 819 83 699 q 499 939 293 939 q 810 819 706 939 q 915 463 915 699 q 810 106 915 226 q 499 -14 706 -14 m 499 81 q 738 172 663 81 q 813 463 813 264 q 738 752 813 660 q 499 844 663 844 q 261 752 336 844 q 186 463 186 660 q 261 172 186 264 q 499 81 336 81 m 510 1096 q 632 1055 581 1096 q 697 938 683 1014 l 625 938 q 510 1024 590 1024 q 394 938 426 1024 l 322 938 q 390 1055 339 1014 q 510 1096 440 1096 z "},"Ō":{"ha":999,"x_min":83,"x_max":915,"o":"m 499 -14 q 188 106 293 -14 q 83 463 83 226 q 188 819 83 699 q 499 939 293 939 q 810 819 706 939 q 915 463 915 699 q 810 106 915 226 q 499 -14 706 -14 m 499 81 q 738 172 663 81 q 813 463 813 264 q 738 752 813 660 q 499 844 663 844 q 261 752 336 844 q 186 463 186 660 q 261 172 186 264 q 499 81 336 81 m 347 994 l 347 1068 l 672 1068 l 672 994 l 347 994 z "},"Ṓ":{"ha":999,"x_min":83,"x_max":915,"o":"m 499 -14 q 188 106 293 -14 q 83 463 83 226 q 188 819 83 699 q 499 939 293 939 q 810 819 706 939 q 915 463 915 699 q 810 106 915 226 q 499 -14 706 -14 m 499 81 q 738 172 663 81 q 813 463 813 264 q 738 752 813 660 q 499 844 663 844 q 261 752 336 844 q 186 463 186 660 q 261 172 186 264 q 499 81 336 81 m 347 994 l 347 1068 l 672 1068 l 672 994 l 347 994 m 485 1158 l 564 1318 l 667 1318 l 551 1158 l 485 1158 z "},"Ṑ":{"ha":999,"x_min":83,"x_max":915,"o":"m 499 -14 q 188 106 293 -14 q 83 463 83 226 q 188 819 83 699 q 499 939 293 939 q 810 819 706 939 q 915 463 915 699 q 810 106 915 226 q 499 -14 706 -14 m 499 81 q 738 172 663 81 q 813 463 813 264 q 738 752 813 660 q 499 844 663 844 q 261 752 336 844 q 186 463 186 660 q 261 172 186 264 q 499 81 336 81 m 347 994 l 347 1068 l 672 1068 l 672 994 l 347 994 m 483 1143 l 368 1303 l 471 1303 l 550 1143 l 483 1143 z "},"Ǫ":{"ha":999,"x_min":83,"x_max":915,"o":"m 618 -3 q 528 -60 563 -29 q 494 -118 494 -90 q 542 -165 494 -165 q 618 -128 581 -165 l 618 -215 q 535 -240 574 -240 q 445 -210 478 -240 q 413 -125 413 -179 q 430 -66 413 -96 q 479 -14 447 -36 q 183 112 282 -8 q 83 463 83 232 q 188 819 83 699 q 499 939 293 939 q 810 819 706 939 q 915 463 915 699 q 618 -3 915 63 m 186 463 q 261 172 186 264 q 499 81 336 81 q 738 172 663 81 q 813 463 813 264 q 738 752 813 660 q 499 844 663 844 q 261 752 336 844 q 186 463 186 660 z "},"Ø":{"ha":999,"x_min":79,"x_max":951,"o":"m 835 788 q 915 463 915 672 q 810 106 915 226 q 499 -14 706 -14 q 226 68 329 -14 l 169 0 l 79 0 l 178 118 q 83 463 83 238 q 188 819 83 699 q 499 939 293 939 q 789 842 686 939 l 860 926 l 951 926 l 835 788 m 186 463 q 244 196 186 286 l 725 767 q 499 844 649 844 q 261 752 336 844 q 186 463 186 660 m 813 463 q 767 707 813 618 l 290 143 q 499 81 363 81 q 738 172 663 81 q 813 463 813 264 z "},"Ǿ":{"ha":999,"x_min":79,"x_max":951,"o":"m 835 788 q 915 463 915 672 q 810 106 915 226 q 499 -14 706 -14 q 226 68 329 -14 l 169 0 l 79 0 l 178 118 q 83 463 83 238 q 188 819 83 699 q 499 939 293 939 q 789 842 686 939 l 860 926 l 951 926 l 835 788 m 186 463 q 244 196 186 286 l 725 767 q 499 844 649 844 q 261 752 336 844 q 186 463 186 660 m 813 463 q 767 707 813 618 l 290 143 q 499 81 363 81 q 738 172 663 81 q 813 463 813 264 m 475 1017 l 554 1176 l 657 1176 l 542 1017 l 475 1017 z "},"Õ":{"ha":999,"x_min":83,"x_max":915,"o":"m 499 -14 q 188 106 293 -14 q 83 463 83 226 q 188 819 83 699 q 499 939 293 939 q 810 819 706 939 q 915 463 915 699 q 810 106 915 226 q 499 -14 706 -14 m 499 81 q 738 172 663 81 q 813 463 813 264 q 738 752 813 660 q 499 844 663 844 q 261 752 336 844 q 186 463 186 660 q 261 172 186 264 q 499 81 336 81 m 321 1010 q 315 1051 315 1031 q 348 1134 315 1103 q 422 1165 381 1165 q 481 1152 456 1165 q 542 1114 507 1139 q 579 1087 564 1096 q 611 1078 594 1078 q 638 1089 628 1078 q 647 1121 647 1100 q 644 1144 647 1128 l 717 1144 q 719 1115 719 1125 q 687 1032 719 1064 q 600 1000 654 1000 q 543 1014 569 1000 q 486 1051 517 1028 q 449 1078 464 1069 q 421 1086 435 1086 q 393 1073 404 1086 q 382 1035 382 1060 q 385 1010 382 1029 l 321 1010 z "},"Ṍ":{"ha":999,"x_min":83,"x_max":915,"o":"m 499 -14 q 188 106 293 -14 q 83 463 83 226 q 188 819 83 699 q 499 939 293 939 q 810 819 706 939 q 915 463 915 699 q 810 106 915 226 q 499 -14 706 -14 m 499 81 q 738 172 663 81 q 813 463 813 264 q 738 752 813 660 q 499 844 663 844 q 261 752 336 844 q 186 463 186 660 q 261 172 186 264 q 499 81 336 81 m 321 1010 q 315 1051 315 1031 q 348 1134 315 1103 q 422 1165 381 1165 q 481 1152 456 1165 q 542 1114 507 1139 q 579 1087 564 1096 q 611 1078 594 1078 q 638 1089 628 1078 q 647 1121 647 1100 q 644 1144 647 1128 l 717 1144 q 719 1115 719 1125 q 687 1032 719 1064 q 600 1000 654 1000 q 543 1014 569 1000 q 486 1051 517 1028 q 449 1078 464 1069 q 421 1086 435 1086 q 393 1073 404 1086 q 382 1035 382 1060 q 385 1010 382 1029 l 321 1010 m 485 1271 l 564 1431 l 667 1431 l 551 1271 l 485 1271 z "},"Ṏ":{"ha":999,"x_min":83,"x_max":915,"o":"m 499 -14 q 188 106 293 -14 q 83 463 83 226 q 188 819 83 699 q 499 939 293 939 q 810 819 706 939 q 915 463 915 699 q 810 106 915 226 q 499 -14 706 -14 m 499 81 q 738 172 663 81 q 813 463 813 264 q 738 752 813 660 q 499 844 663 844 q 261 752 336 844 q 186 463 186 660 q 261 172 186 264 q 499 81 336 81 m 321 1010 q 315 1051 315 1031 q 348 1134 315 1103 q 422 1165 381 1165 q 481 1152 456 1165 q 542 1114 507 1139 q 579 1087 564 1096 q 611 1078 594 1078 q 638 1089 628 1078 q 647 1121 647 1100 q 644 1144 647 1128 l 717 1144 q 719 1115 719 1125 q 687 1032 719 1064 q 600 1000 654 1000 q 543 1014 569 1000 q 486 1051 517 1028 q 449 1078 464 1069 q 421 1086 435 1086 q 393 1073 404 1086 q 382 1035 382 1060 q 385 1010 382 1029 l 321 1010 m 351 1263 l 351 1372 l 461 1372 l 461 1263 l 351 1263 m 557 1263 l 557 1372 l 667 1372 l 667 1263 l 557 1263 z "},"Ȭ":{"ha":999,"x_min":83,"x_max":915,"o":"m 499 -14 q 188 106 293 -14 q 83 463 83 226 q 188 819 83 699 q 499 939 293 939 q 810 819 706 939 q 915 463 915 699 q 810 106 915 226 q 499 -14 706 -14 m 499 81 q 738 172 663 81 q 813 463 813 264 q 738 752 813 660 q 499 844 663 844 q 261 752 336 844 q 186 463 186 660 q 261 172 186 264 q 499 81 336 81 m 321 1010 q 315 1051 315 1031 q 348 1134 315 1103 q 422 1165 381 1165 q 481 1152 456 1165 q 542 1114 507 1139 q 579 1087 564 1096 q 611 1078 594 1078 q 638 1089 628 1078 q 647 1121 647 1100 q 644 1144 647 1128 l 717 1144 q 719 1115 719 1125 q 687 1032 719 1064 q 600 1000 654 1000 q 543 1014 569 1000 q 486 1051 517 1028 q 449 1078 464 1069 q 421 1086 435 1086 q 393 1073 404 1086 q 382 1035 382 1060 q 385 1010 382 1029 l 321 1010 m 347 1249 l 347 1322 l 672 1322 l 672 1249 l 347 1249 z "},"Œ":{"ha":1503,"x_min":83,"x_max":1399,"o":"m 914 832 l 914 515 l 914 513 l 1340 513 l 1340 415 l 914 415 l 914 410 l 914 94 l 1399 94 l 1399 0 l 814 0 l 814 110 q 499 -14 710 -14 q 188 106 293 -14 q 83 463 83 226 q 188 819 83 699 q 499 939 293 939 q 814 815 710 939 l 814 926 l 1399 926 l 1399 832 l 914 832 m 499 81 q 738 172 663 81 q 813 463 813 264 q 738 752 813 660 q 499 844 663 844 q 261 752 336 844 q 186 463 186 660 q 261 172 186 264 q 499 81 336 81 z "},"P":{"ha":851,"x_min":118,"x_max":768,"o":"m 218 0 l 118 0 l 118 926 l 447 926 q 685 853 603 926 q 768 640 768 779 q 685 428 768 501 q 447 354 603 354 l 218 354 l 218 0 m 435 450 q 621 503 574 450 q 668 640 668 556 q 621 778 668 725 q 435 831 574 831 l 218 831 l 218 450 l 435 450 z "},"Þ":{"ha":792,"x_min":119,"x_max":719,"o":"m 119 926 l 219 926 l 219 786 l 400 786 q 637 712 554 786 q 719 499 719 638 q 637 286 719 360 q 400 213 554 213 l 219 213 l 219 0 l 119 0 l 119 926 m 386 308 q 572 361 525 308 q 619 499 619 414 q 572 636 619 583 q 386 689 525 689 l 219 689 l 219 308 l 386 308 z "},"Q":{"ha":999,"x_min":83,"x_max":915,"o":"m 732 40 q 781 -20 757 -1 q 832 -39 806 -39 q 869 -33 851 -39 q 914 -11 886 -28 l 914 -100 q 821 -125 867 -125 q 717 -91 764 -125 q 638 3 671 -57 q 499 -14 575 -14 q 188 106 293 -14 q 83 463 83 226 q 188 819 83 699 q 499 939 293 939 q 810 819 706 939 q 915 463 915 699 q 732 40 915 149 m 186 463 q 211 267 186 346 q 289 143 236 189 l 289 213 q 363 258 325 240 q 456 276 401 276 q 682 126 588 276 q 781 250 750 168 q 813 463 813 332 q 738 752 813 660 q 499 844 663 844 q 261 752 336 844 q 186 463 186 660 m 306 131 q 499 81 379 81 q 590 92 556 83 q 528 165 563 139 q 444 192 494 192 q 369 176 401 192 q 306 131 336 160 z "},"R":{"ha":876,"x_min":118,"x_max":814,"o":"m 696 0 l 454 374 l 218 374 l 218 0 l 118 0 l 118 926 l 499 926 q 703 858 633 926 q 772 657 772 790 q 715 476 772 550 q 563 385 658 403 l 814 0 l 696 0 m 218 468 l 453 468 q 619 514 567 468 q 672 650 672 560 q 631 785 672 739 q 488 832 589 832 l 218 832 l 218 468 z "},"Ŕ":{"ha":876,"x_min":118,"x_max":814,"o":"m 696 0 l 454 374 l 218 374 l 218 0 l 118 0 l 118 926 l 499 926 q 703 858 633 926 q 772 657 772 790 q 715 476 772 550 q 563 385 658 403 l 814 0 l 696 0 m 218 468 l 453 468 q 619 514 567 468 q 672 650 672 560 q 631 785 672 739 q 488 832 589 832 l 218 832 l 218 468 m 386 1017 l 465 1176 l 568 1176 l 453 1017 l 386 1017 z "},"Ř":{"ha":876,"x_min":118,"x_max":814,"o":"m 696 0 l 454 374 l 218 374 l 218 0 l 118 0 l 118 926 l 499 926 q 703 858 633 926 q 772 657 772 790 q 715 476 772 550 q 563 385 658 403 l 814 0 l 696 0 m 218 468 l 453 468 q 619 514 567 468 q 672 650 672 560 q 631 785 672 739 q 488 832 589 832 l 218 832 l 218 468 m 383 978 l 271 1144 l 349 1144 l 411 1047 l 474 1144 l 551 1144 l 440 978 l 383 978 z "},"Ŗ":{"ha":876,"x_min":118,"x_max":814,"o":"m 696 0 l 454 374 l 218 374 l 218 0 l 118 0 l 118 926 l 499 926 q 703 858 633 926 q 772 657 772 790 q 715 476 772 550 q 563 385 658 403 l 814 0 l 696 0 m 218 468 l 453 468 q 619 514 567 468 q 672 650 672 560 q 631 785 672 739 q 488 832 589 832 l 218 832 l 218 468 m 369 -193 q 414 -145 403 -179 q 425 -68 425 -111 l 508 -68 q 467 -207 508 -158 q 369 -268 425 -256 l 369 -193 z "},"Ȑ":{"ha":876,"x_min":118,"x_max":814,"o":"m 696 0 l 454 374 l 218 374 l 218 0 l 118 0 l 118 926 l 499 926 q 703 858 633 926 q 772 657 772 790 q 715 476 772 550 q 563 385 658 403 l 814 0 l 696 0 m 218 468 l 453 468 q 619 514 567 468 q 672 650 672 560 q 631 785 672 739 q 488 832 589 832 l 218 832 l 218 468 m 301 1017 l 186 1176 l 289 1176 l 368 1017 l 301 1017 m 472 1017 l 357 1176 l 460 1176 l 539 1017 l 472 1017 z "},"Ȓ":{"ha":876,"x_min":118,"x_max":814,"o":"m 696 0 l 454 374 l 218 374 l 218 0 l 118 0 l 118 926 l 499 926 q 703 858 633 926 q 772 657 772 790 q 715 476 772 550 q 563 385 658 403 l 814 0 l 696 0 m 218 468 l 453 468 q 619 514 567 468 q 672 650 672 560 q 631 785 672 739 q 488 832 589 832 l 218 832 l 218 468 m 411 1096 q 533 1055 482 1096 q 599 938 585 1014 l 526 938 q 411 1024 492 1024 q 296 938 328 1024 l 224 938 q 291 1055 240 1014 q 411 1096 342 1096 z "},"Ṟ":{"ha":876,"x_min":118,"x_max":814,"o":"m 696 0 l 454 374 l 218 374 l 218 0 l 118 0 l 118 926 l 499 926 q 703 858 633 926 q 772 657 772 790 q 715 476 772 550 q 563 385 658 403 l 814 0 l 696 0 m 218 468 l 453 468 q 619 514 567 468 q 672 650 672 560 q 631 785 672 739 q 488 832 589 832 l 218 832 l 218 468 m 276 -165 l 276 -92 l 601 -92 l 601 -165 l 276 -165 z "},"S":{"ha":771,"x_min":90,"x_max":688,"o":"m 381 -14 q 228 4 285 -14 q 90 65 171 22 l 90 174 q 216 105 140 132 q 385 78 292 78 q 536 121 486 78 q 586 238 586 164 q 557 327 586 292 q 488 383 528 363 q 367 433 447 403 q 230 489 281 463 q 143 567 179 515 q 107 703 107 618 q 135 814 107 760 q 227 904 164 868 q 390 940 290 940 q 510 926 464 940 q 633 875 557 913 l 633 772 q 581 802 624 778 q 494 838 539 826 q 396 849 449 849 q 254 809 300 849 q 208 710 208 769 q 233 622 208 656 q 298 568 257 589 q 414 522 339 547 q 555 465 500 493 q 649 383 610 436 q 688 249 688 331 q 615 63 688 139 q 381 -14 542 -14 z "},"Ś":{"ha":771,"x_min":90,"x_max":688,"o":"m 381 -14 q 228 4 285 -14 q 90 65 171 22 l 90 174 q 216 105 140 132 q 385 78 292 78 q 536 121 486 78 q 586 238 586 164 q 557 327 586 292 q 488 383 528 363 q 367 433 447 403 q 230 489 281 463 q 143 567 179 515 q 107 703 107 618 q 135 814 107 760 q 227 904 164 868 q 390 940 290 940 q 510 926 464 940 q 633 875 557 913 l 633 772 q 581 802 624 778 q 494 838 539 826 q 396 849 449 849 q 254 809 300 849 q 208 710 208 769 q 233 622 208 656 q 298 568 257 589 q 414 522 339 547 q 555 465 500 493 q 649 383 610 436 q 688 249 688 331 q 615 63 688 139 q 381 -14 542 -14 m 363 1017 l 442 1176 l 544 1176 l 429 1017 l 363 1017 z "},"Ṥ":{"ha":771,"x_min":90,"x_max":688,"o":"m 381 -14 q 228 4 285 -14 q 90 65 171 22 l 90 174 q 216 105 140 132 q 385 78 292 78 q 536 121 486 78 q 586 238 586 164 q 557 327 586 292 q 488 383 528 363 q 367 433 447 403 q 230 489 281 463 q 143 567 179 515 q 107 703 107 618 q 135 814 107 760 q 227 904 164 868 q 390 940 290 940 q 510 926 464 940 q 633 875 557 913 l 633 772 q 581 802 624 778 q 494 838 539 826 q 396 849 449 849 q 254 809 300 849 q 208 710 208 769 q 233 622 208 656 q 298 568 257 589 q 414 522 339 547 q 555 465 500 493 q 649 383 610 436 q 688 249 688 331 q 615 63 688 139 q 381 -14 542 -14 m 404 1017 l 483 1176 l 586 1176 l 471 1017 l 404 1017 m 272 1021 l 272 1131 l 382 1131 l 382 1021 l 272 1021 z "},"Š":{"ha":771,"x_min":90,"x_max":688,"o":"m 381 -14 q 228 4 285 -14 q 90 65 171 22 l 90 174 q 216 105 140 132 q 385 78 292 78 q 536 121 486 78 q 586 238 586 164 q 557 327 586 292 q 488 383 528 363 q 367 433 447 403 q 230 489 281 463 q 143 567 179 515 q 107 703 107 618 q 135 814 107 760 q 227 904 164 868 q 390 940 290 940 q 510 926 464 940 q 633 875 557 913 l 633 772 q 581 802 624 778 q 494 838 539 826 q 396 849 449 849 q 254 809 300 849 q 208 710 208 769 q 233 622 208 656 q 298 568 257 589 q 414 522 339 547 q 555 465 500 493 q 649 383 610 436 q 688 249 688 331 q 615 63 688 139 q 381 -14 542 -14 m 360 978 l 247 1144 l 325 1144 l 388 1047 l 450 1144 l 528 1144 l 417 978 l 360 978 z "},"Ṧ":{"ha":771,"x_min":90,"x_max":688,"o":"m 381 -14 q 228 4 285 -14 q 90 65 171 22 l 90 174 q 216 105 140 132 q 385 78 292 78 q 536 121 486 78 q 586 238 586 164 q 557 327 586 292 q 488 383 528 363 q 367 433 447 403 q 230 489 281 463 q 143 567 179 515 q 107 703 107 618 q 135 814 107 760 q 227 904 164 868 q 390 940 290 940 q 510 926 464 940 q 633 875 557 913 l 633 772 q 581 802 624 778 q 494 838 539 826 q 396 849 449 849 q 254 809 300 849 q 208 710 208 769 q 233 622 208 656 q 298 568 257 589 q 414 522 339 547 q 555 465 500 493 q 649 383 610 436 q 688 249 688 331 q 615 63 688 139 q 381 -14 542 -14 m 360 978 l 247 1144 l 325 1144 l 388 1047 l 450 1144 l 528 1144 l 417 978 l 360 978 m 332 1196 l 332 1306 l 442 1306 l 442 1196 l 332 1196 z "},"Ş":{"ha":771,"x_min":90,"x_max":688,"o":"m 688 249 q 638 88 688 158 q 476 -4 588 18 l 396 -153 l 290 -153 l 389 -14 l 381 -14 q 228 4 285 -14 q 90 65 171 22 l 90 174 q 216 105 140 132 q 385 78 292 78 q 536 121 486 78 q 586 238 586 164 q 557 327 586 292 q 488 383 528 363 q 367 433 447 403 q 230 489 281 463 q 143 567 179 515 q 107 703 107 618 q 135 814 107 760 q 227 904 164 868 q 390 940 290 940 q 510 926 464 940 q 633 875 557 913 l 633 772 q 581 802 624 778 q 494 838 539 826 q 396 849 449 849 q 254 809 300 849 q 208 710 208 769 q 233 622 208 656 q 298 568 257 589 q 414 522 339 547 q 555 465 500 493 q 649 383 610 436 q 688 249 688 331 z "},"Ŝ":{"ha":771,"x_min":90,"x_max":688,"o":"m 381 -14 q 228 4 285 -14 q 90 65 171 22 l 90 174 q 216 105 140 132 q 385 78 292 78 q 536 121 486 78 q 586 238 586 164 q 557 327 586 292 q 488 383 528 363 q 367 433 447 403 q 230 489 281 463 q 143 567 179 515 q 107 703 107 618 q 135 814 107 760 q 227 904 164 868 q 390 940 290 940 q 510 926 464 940 q 633 875 557 913 l 633 772 q 581 802 624 778 q 494 838 539 826 q 396 849 449 849 q 254 809 300 849 q 208 710 208 769 q 233 622 208 656 q 298 568 257 589 q 414 522 339 547 q 555 465 500 493 q 649 383 610 436 q 688 249 688 331 q 615 63 688 139 q 381 -14 542 -14 m 233 999 l 346 1165 l 431 1165 l 542 999 l 478 999 l 388 1096 l 297 999 l 233 999 z "},"Ș":{"ha":771,"x_min":90,"x_max":688,"o":"m 381 -14 q 228 4 285 -14 q 90 65 171 22 l 90 174 q 216 105 140 132 q 385 78 292 78 q 536 121 486 78 q 586 238 586 164 q 557 327 586 292 q 488 383 528 363 q 367 433 447 403 q 230 489 281 463 q 143 567 179 515 q 107 703 107 618 q 135 814 107 760 q 227 904 164 868 q 390 940 290 940 q 510 926 464 940 q 633 875 557 913 l 633 772 q 581 802 624 778 q 494 838 539 826 q 396 849 449 849 q 254 809 300 849 q 208 710 208 769 q 233 622 208 656 q 298 568 257 589 q 414 522 339 547 q 555 465 500 493 q 649 383 610 436 q 688 249 688 331 q 615 63 688 139 q 381 -14 542 -14 m 318 -193 q 363 -145 351 -179 q 374 -68 374 -111 l 457 -68 q 415 -207 457 -158 q 318 -268 374 -256 l 318 -193 z "},"Ṡ":{"ha":771,"x_min":90,"x_max":688,"o":"m 381 -14 q 228 4 285 -14 q 90 65 171 22 l 90 174 q 216 105 140 132 q 385 78 292 78 q 536 121 486 78 q 586 238 586 164 q 557 327 586 292 q 488 383 528 363 q 367 433 447 403 q 230 489 281 463 q 143 567 179 515 q 107 703 107 618 q 135 814 107 760 q 227 904 164 868 q 390 940 290 940 q 510 926 464 940 q 633 875 557 913 l 633 772 q 581 802 624 778 q 494 838 539 826 q 396 849 449 849 q 254 809 300 849 q 208 710 208 769 q 233 622 208 656 q 298 568 257 589 q 414 522 339 547 q 555 465 500 493 q 649 383 610 436 q 688 249 688 331 q 615 63 688 139 q 381 -14 542 -14 m 332 978 l 332 1088 l 442 1088 l 442 978 l 332 978 z "},"Ṣ":{"ha":771,"x_min":90,"x_max":688,"o":"m 381 -14 q 228 4 285 -14 q 90 65 171 22 l 90 174 q 216 105 140 132 q 385 78 292 78 q 536 121 486 78 q 586 238 586 164 q 557 327 586 292 q 488 383 528 363 q 367 433 447 403 q 230 489 281 463 q 143 567 179 515 q 107 703 107 618 q 135 814 107 760 q 227 904 164 868 q 390 940 290 940 q 510 926 464 940 q 633 875 557 913 l 633 772 q 581 802 624 778 q 494 838 539 826 q 396 849 449 849 q 254 809 300 849 q 208 710 208 769 q 233 622 208 656 q 298 568 257 589 q 414 522 339 547 q 555 465 500 493 q 649 383 610 436 q 688 249 688 331 q 615 63 688 139 q 381 -14 542 -14 m 332 -179 l 332 -69 l 442 -69 l 442 -179 l 332 -179 z "},"Ṩ":{"ha":771,"x_min":90,"x_max":688,"o":"m 381 -14 q 228 4 285 -14 q 90 65 171 22 l 90 174 q 216 105 140 132 q 385 78 292 78 q 536 121 486 78 q 586 238 586 164 q 557 327 586 292 q 488 383 528 363 q 367 433 447 403 q 230 489 281 463 q 143 567 179 515 q 107 703 107 618 q 135 814 107 760 q 227 904 164 868 q 390 940 290 940 q 510 926 464 940 q 633 875 557 913 l 633 772 q 581 802 624 778 q 494 838 539 826 q 396 849 449 849 q 254 809 300 849 q 208 710 208 769 q 233 622 208 656 q 298 568 257 589 q 414 522 339 547 q 555 465 500 493 q 649 383 610 436 q 688 249 688 331 q 615 63 688 139 q 381 -14 542 -14 m 332 -179 l 332 -69 l 442 -69 l 442 -179 l 332 -179 m 332 978 l 332 1088 l 442 1088 l 442 978 l 332 978 z "},"ẞ":{"ha":981,"x_min":118,"x_max":897,"o":"m 635 607 q 828 486 760 563 q 897 290 897 410 q 824 75 897 164 q 590 -14 751 -14 q 369 65 482 -14 l 369 174 q 465 105 407 132 q 594 78 524 78 q 746 132 696 78 q 796 279 796 186 q 722 458 796 394 q 497 550 647 521 l 497 625 l 722 732 q 625 824 692 788 q 458 860 558 860 q 280 800 342 860 q 218 640 218 740 l 218 0 l 118 0 l 118 631 q 156 788 118 718 q 268 899 193 858 q 453 940 343 940 q 633 915 564 940 q 742 844 701 889 q 822 722 782 799 l 822 693 l 635 607 z "},"Ə":{"ha":996,"x_min":81,"x_max":913,"o":"m 481 933 q 799 812 685 933 q 913 454 913 690 q 803 103 913 222 q 497 -15 693 -15 q 182 117 283 -15 q 83 472 81 249 l 811 472 q 723 748 811 654 q 475 842 635 842 q 281 813 374 842 q 126 744 188 783 l 126 847 q 289 910 197 886 q 481 933 381 933 m 497 76 q 662 104 597 76 q 763 198 726 132 q 808 381 799 264 l 188 381 q 269 151 194 225 q 497 76 344 76 z "},"T":{"ha":810,"x_min":28,"x_max":782,"o":"m 356 0 l 356 832 l 28 832 l 28 926 l 782 926 l 782 832 l 456 832 l 456 0 l 356 0 z "},"Ŧ":{"ha":810,"x_min":28,"x_max":782,"o":"m 782 832 l 456 832 l 456 500 l 575 500 l 575 426 l 456 426 l 456 0 l 356 0 l 356 426 l 236 426 l 236 500 l 356 500 l 356 832 l 28 832 l 28 926 l 782 926 l 782 832 z "},"Ť":{"ha":789,"x_min":17,"x_max":771,"o":"m 365 1006 l 253 1174 l 331 1174 l 394 1075 l 457 1174 l 535 1174 l 422 1006 l 365 1006 m 344 0 l 344 829 l 17 829 l 17 926 l 771 926 l 771 829 l 444 829 l 444 0 l 344 0 z "},"Ţ":{"ha":810,"x_min":28,"x_max":782,"o":"m 782 832 l 456 832 l 456 7 l 501 7 l 414 -153 l 308 -153 l 417 0 l 356 0 l 356 832 l 28 832 l 28 926 l 782 926 l 782 832 z "},"Ṯ":{"ha":810,"x_min":28,"x_max":782,"o":"m 356 0 l 356 832 l 28 832 l 28 926 l 782 926 l 782 832 l 456 832 l 456 0 l 356 0 m 243 -165 l 243 -92 l 568 -92 l 568 -165 l 243 -165 z "},"U":{"ha":961,"x_min":118,"x_max":843,"o":"m 481 -14 q 213 88 308 -14 q 118 378 118 189 l 118 926 l 218 926 l 218 372 q 481 81 218 81 q 746 372 746 81 l 746 926 l 843 926 l 843 378 q 748 88 843 189 q 481 -14 653 -14 z "},"Ú":{"ha":961,"x_min":118,"x_max":843,"o":"m 481 -14 q 213 88 308 -14 q 118 378 118 189 l 118 926 l 218 926 l 218 372 q 481 81 218 81 q 746 372 746 81 l 746 926 l 843 926 l 843 378 q 748 88 843 189 q 481 -14 653 -14 m 456 1017 l 535 1176 l 638 1176 l 522 1017 l 456 1017 z "},"Ŭ":{"ha":961,"x_min":118,"x_max":843,"o":"m 481 -14 q 213 88 308 -14 q 118 378 118 189 l 118 926 l 218 926 l 218 372 q 481 81 218 81 q 746 372 746 81 l 746 926 l 843 926 l 843 378 q 748 88 843 189 q 481 -14 653 -14 m 481 965 q 360 1006 411 965 q 293 1124 310 1047 l 365 1124 q 481 1038 397 1038 q 596 1124 561 1038 l 668 1124 q 603 1006 654 1047 q 481 965 551 965 z "},"Ǔ":{"ha":961,"x_min":118,"x_max":843,"o":"m 481 -14 q 213 88 308 -14 q 118 378 118 189 l 118 926 l 218 926 l 218 372 q 481 81 218 81 q 746 372 746 81 l 746 926 l 843 926 l 843 378 q 748 88 843 189 q 481 -14 653 -14 m 453 978 l 340 1144 l 418 1144 l 481 1047 l 543 1144 l 621 1144 l 510 978 l 453 978 z "},"Û":{"ha":961,"x_min":118,"x_max":843,"o":"m 481 -14 q 213 88 308 -14 q 118 378 118 189 l 118 926 l 218 926 l 218 372 q 481 81 218 81 q 746 372 746 81 l 746 926 l 843 926 l 843 378 q 748 88 843 189 q 481 -14 653 -14 m 326 999 l 439 1165 l 524 1165 l 635 999 l 571 999 l 481 1096 l 390 999 l 326 999 z "},"Ȕ":{"ha":961,"x_min":118,"x_max":843,"o":"m 481 -14 q 213 88 308 -14 q 118 378 118 189 l 118 926 l 218 926 l 218 372 q 481 81 218 81 q 746 372 746 81 l 746 926 l 843 926 l 843 378 q 748 88 843 189 q 481 -14 653 -14 m 371 1017 l 256 1176 l 358 1176 l 438 1017 l 371 1017 m 542 1017 l 426 1176 l 529 1176 l 608 1017 l 542 1017 z "},"Ü":{"ha":961,"x_min":118,"x_max":843,"o":"m 481 -14 q 213 88 308 -14 q 118 378 118 189 l 118 926 l 218 926 l 218 372 q 481 81 218 81 q 746 372 746 81 l 746 926 l 843 926 l 843 378 q 748 88 843 189 q 481 -14 653 -14 m 322 1008 l 322 1118 l 432 1118 l 432 1008 l 322 1008 m 528 1008 l 528 1118 l 638 1118 l 638 1008 l 528 1008 z "},"Ụ":{"ha":961,"x_min":118,"x_max":843,"o":"m 481 -14 q 213 88 308 -14 q 118 378 118 189 l 118 926 l 218 926 l 218 372 q 481 81 218 81 q 746 372 746 81 l 746 926 l 843 926 l 843 378 q 748 88 843 189 q 481 -14 653 -14 m 425 -179 l 425 -69 l 535 -69 l 535 -179 l 425 -179 z "},"Ù":{"ha":961,"x_min":118,"x_max":843,"o":"m 481 -14 q 213 88 308 -14 q 118 378 118 189 l 118 926 l 218 926 l 218 372 q 481 81 218 81 q 746 372 746 81 l 746 926 l 843 926 l 843 378 q 748 88 843 189 q 481 -14 653 -14 m 454 1001 l 339 1161 l 442 1161 l 521 1001 l 454 1001 z "},"Ủ":{"ha":961,"x_min":118,"x_max":843,"o":"m 481 -14 q 213 88 308 -14 q 118 378 118 189 l 118 926 l 218 926 l 218 372 q 481 81 218 81 q 746 372 746 81 l 746 926 l 843 926 l 843 378 q 748 88 843 189 q 481 -14 653 -14 m 446 1047 q 485 1058 472 1049 q 499 1081 499 1068 q 481 1108 499 1099 q 432 1117 464 1117 q 394 1114 417 1117 l 394 1174 q 438 1178 415 1178 q 528 1156 490 1178 q 565 1083 565 1133 q 547 1035 565 1056 q 492 1008 529 1015 l 492 975 l 446 975 l 446 1047 z "},"Ư":{"ha":1031,"x_min":118,"x_max":964,"o":"m 964 1056 l 964 1017 q 930 916 964 957 q 843 860 896 875 l 843 378 q 748 88 843 189 q 481 -14 653 -14 q 213 88 308 -14 q 118 378 118 189 l 118 926 l 218 926 l 218 372 q 481 81 218 81 q 746 372 746 81 l 746 926 l 803 926 q 863 960 838 933 q 889 1019 889 986 l 889 1056 l 964 1056 z "},"Ứ":{"ha":1031,"x_min":118,"x_max":964,"o":"m 964 1056 l 964 1017 q 930 916 964 957 q 843 860 896 875 l 843 378 q 748 88 843 189 q 481 -14 653 -14 q 213 88 308 -14 q 118 378 118 189 l 118 926 l 218 926 l 218 372 q 481 81 218 81 q 746 372 746 81 l 746 926 l 803 926 q 863 960 838 933 q 889 1019 889 986 l 889 1056 l 964 1056 m 456 1017 l 535 1176 l 638 1176 l 522 1017 l 456 1017 z "},"Ự":{"ha":1031,"x_min":118,"x_max":964,"o":"m 964 1056 l 964 1017 q 930 916 964 957 q 843 860 896 875 l 843 378 q 748 88 843 189 q 481 -14 653 -14 q 213 88 308 -14 q 118 378 118 189 l 118 926 l 218 926 l 218 372 q 481 81 218 81 q 746 372 746 81 l 746 926 l 803 926 q 863 960 838 933 q 889 1019 889 986 l 889 1056 l 964 1056 m 425 -179 l 425 -69 l 535 -69 l 535 -179 l 425 -179 z "},"Ừ":{"ha":1031,"x_min":118,"x_max":964,"o":"m 964 1056 l 964 1017 q 930 916 964 957 q 843 860 896 875 l 843 378 q 748 88 843 189 q 481 -14 653 -14 q 213 88 308 -14 q 118 378 118 189 l 118 926 l 218 926 l 218 372 q 481 81 218 81 q 746 372 746 81 l 746 926 l 803 926 q 863 960 838 933 q 889 1019 889 986 l 889 1056 l 964 1056 m 454 1001 l 339 1161 l 442 1161 l 521 1001 l 454 1001 z "},"Ử":{"ha":1031,"x_min":118,"x_max":964,"o":"m 964 1056 l 964 1017 q 930 916 964 957 q 843 860 896 875 l 843 378 q 748 88 843 189 q 481 -14 653 -14 q 213 88 308 -14 q 118 378 118 189 l 118 926 l 218 926 l 218 372 q 481 81 218 81 q 746 372 746 81 l 746 926 l 803 926 q 863 960 838 933 q 889 1019 889 986 l 889 1056 l 964 1056 m 446 1047 q 485 1058 472 1049 q 499 1081 499 1068 q 481 1108 499 1099 q 432 1117 464 1117 q 394 1114 417 1117 l 394 1174 q 438 1178 415 1178 q 528 1156 490 1178 q 565 1083 565 1133 q 547 1035 565 1056 q 492 1008 529 1015 l 492 975 l 446 975 l 446 1047 z "},"Ữ":{"ha":1031,"x_min":118,"x_max":964,"o":"m 964 1056 l 964 1017 q 930 916 964 957 q 843 860 896 875 l 843 378 q 748 88 843 189 q 481 -14 653 -14 q 213 88 308 -14 q 118 378 118 189 l 118 926 l 218 926 l 218 372 q 481 81 218 81 q 746 372 746 81 l 746 926 l 803 926 q 863 960 838 933 q 889 1019 889 986 l 889 1056 l 964 1056 m 292 1010 q 286 1051 286 1031 q 319 1134 286 1103 q 393 1165 351 1165 q 452 1152 426 1165 q 513 1114 478 1139 q 550 1087 535 1096 q 582 1078 565 1078 q 608 1089 599 1078 q 618 1121 618 1100 q 615 1144 618 1128 l 688 1144 q 690 1115 690 1125 q 658 1032 690 1064 q 571 1000 625 1000 q 514 1014 540 1000 q 457 1051 488 1028 q 420 1078 435 1069 q 392 1086 406 1086 q 364 1073 375 1086 q 353 1035 353 1060 q 356 1010 353 1029 l 292 1010 z "},"Ű":{"ha":961,"x_min":118,"x_max":843,"o":"m 481 -14 q 213 88 308 -14 q 118 378 118 189 l 118 926 l 218 926 l 218 372 q 481 81 218 81 q 746 372 746 81 l 746 926 l 843 926 l 843 378 q 748 88 843 189 q 481 -14 653 -14 m 361 978 l 440 1138 l 543 1138 l 428 978 l 361 978 m 528 978 l 607 1138 l 710 1138 l 594 978 l 528 978 z "},"Ȗ":{"ha":961,"x_min":118,"x_max":843,"o":"m 481 -14 q 213 88 308 -14 q 118 378 118 189 l 118 926 l 218 926 l 218 372 q 481 81 218 81 q 746 372 746 81 l 746 926 l 843 926 l 843 378 q 748 88 843 189 q 481 -14 653 -14 m 481 1096 q 603 1055 551 1096 q 668 938 654 1014 l 596 938 q 481 1024 561 1024 q 365 938 397 1024 l 293 938 q 360 1055 310 1014 q 481 1096 411 1096 z "},"Ū":{"ha":961,"x_min":118,"x_max":843,"o":"m 481 -14 q 213 88 308 -14 q 118 378 118 189 l 118 926 l 218 926 l 218 372 q 481 81 218 81 q 746 372 746 81 l 746 926 l 843 926 l 843 378 q 748 88 843 189 q 481 -14 653 -14 m 318 994 l 318 1068 l 643 1068 l 643 994 l 318 994 z "},"Ṻ":{"ha":961,"x_min":118,"x_max":843,"o":"m 481 -14 q 213 88 308 -14 q 118 378 118 189 l 118 926 l 218 926 l 218 372 q 481 81 218 81 q 746 372 746 81 l 746 926 l 843 926 l 843 378 q 748 88 843 189 q 481 -14 653 -14 m 318 994 l 318 1068 l 643 1068 l 643 994 l 318 994 m 322 1150 l 322 1260 l 432 1260 l 432 1150 l 322 1150 m 528 1150 l 528 1260 l 638 1260 l 638 1150 l 528 1150 z "},"Ų":{"ha":961,"x_min":118,"x_max":843,"o":"m 843 926 l 843 378 q 779 128 843 225 q 597 0 715 32 l 599 0 q 506 -58 540 -28 q 471 -118 471 -89 q 518 -165 471 -165 q 594 -128 557 -165 l 594 -215 q 511 -240 550 -240 q 422 -210 454 -240 q 389 -125 389 -179 q 406 -65 389 -96 q 456 -14 424 -35 q 206 96 294 -6 q 118 378 118 197 l 118 926 l 218 926 l 218 372 q 481 81 218 81 q 746 372 746 81 l 746 926 l 843 926 z "},"Ů":{"ha":961,"x_min":118,"x_max":843,"o":"m 481 -14 q 213 88 308 -14 q 118 378 118 189 l 118 926 l 218 926 l 218 372 q 481 81 218 81 q 746 372 746 81 l 746 926 l 843 926 l 843 378 q 748 88 843 189 q 481 -14 653 -14 m 481 889 q 373 919 406 889 q 340 1017 340 950 q 373 1114 340 1083 q 481 1144 406 1144 q 588 1114 554 1144 q 621 1017 621 1083 q 588 919 621 950 q 481 889 554 889 m 481 949 q 540 964 524 949 q 556 1017 556 979 q 540 1069 556 1054 q 481 1083 524 1083 q 420 1069 436 1083 q 404 1017 404 1054 q 420 964 404 979 q 481 949 436 949 z "},"Ũ":{"ha":961,"x_min":118,"x_max":843,"o":"m 481 -14 q 213 88 308 -14 q 118 378 118 189 l 118 926 l 218 926 l 218 372 q 481 81 218 81 q 746 372 746 81 l 746 926 l 843 926 l 843 378 q 748 88 843 189 q 481 -14 653 -14 m 292 1010 q 286 1051 286 1031 q 319 1134 286 1103 q 393 1165 351 1165 q 452 1152 426 1165 q 513 1114 478 1139 q 550 1087 535 1096 q 582 1078 565 1078 q 608 1089 599 1078 q 618 1121 618 1100 q 615 1144 618 1128 l 688 1144 q 690 1115 690 1125 q 658 1032 690 1064 q 571 1000 625 1000 q 514 1014 540 1000 q 457 1051 488 1028 q 420 1078 435 1069 q 392 1086 406 1086 q 364 1073 375 1086 q 353 1035 353 1060 q 356 1010 353 1029 l 292 1010 z "},"Ṹ":{"ha":961,"x_min":118,"x_max":843,"o":"m 481 -14 q 213 88 308 -14 q 118 378 118 189 l 118 926 l 218 926 l 218 372 q 481 81 218 81 q 746 372 746 81 l 746 926 l 843 926 l 843 378 q 748 88 843 189 q 481 -14 653 -14 m 292 1010 q 286 1051 286 1031 q 319 1134 286 1103 q 393 1165 351 1165 q 452 1152 426 1165 q 513 1114 478 1139 q 550 1087 535 1096 q 582 1078 565 1078 q 608 1089 599 1078 q 618 1121 618 1100 q 615 1144 618 1128 l 688 1144 q 690 1115 690 1125 q 658 1032 690 1064 q 571 1000 625 1000 q 514 1014 540 1000 q 457 1051 488 1028 q 420 1078 435 1069 q 392 1086 406 1086 q 364 1073 375 1086 q 353 1035 353 1060 q 356 1010 353 1029 l 292 1010 m 456 1271 l 535 1431 l 638 1431 l 522 1271 l 456 1271 z "},"V":{"ha":865,"x_min":28,"x_max":838,"o":"m 735 924 l 838 926 l 482 0 l 383 0 l 28 926 l 135 926 l 438 132 l 735 924 z "},"W":{"ha":1356,"x_min":35,"x_max":1321,"o":"m 1215 926 l 1321 926 l 1022 0 l 921 0 l 678 768 l 435 0 l 332 0 l 35 926 l 140 926 l 390 136 l 628 926 l 728 926 l 969 136 l 1215 926 z "},"Ẃ":{"ha":1356,"x_min":35,"x_max":1321,"o":"m 1215 926 l 1321 926 l 1022 0 l 921 0 l 678 768 l 435 0 l 332 0 l 35 926 l 140 926 l 390 136 l 628 926 l 728 926 l 969 136 l 1215 926 m 654 1017 l 733 1176 l 836 1176 l 721 1017 l 654 1017 z "},"Ŵ":{"ha":1356,"x_min":35,"x_max":1321,"o":"m 1215 926 l 1321 926 l 1022 0 l 921 0 l 678 768 l 435 0 l 332 0 l 35 926 l 140 926 l 390 136 l 628 926 l 728 926 l 969 136 l 1215 926 m 525 999 l 638 1165 l 722 1165 l 833 999 l 769 999 l 679 1096 l 589 999 l 525 999 z "},"Ẅ":{"ha":1356,"x_min":35,"x_max":1321,"o":"m 1215 926 l 1321 926 l 1022 0 l 921 0 l 678 768 l 435 0 l 332 0 l 35 926 l 140 926 l 390 136 l 628 926 l 728 926 l 969 136 l 1215 926 m 521 1008 l 521 1118 l 631 1118 l 631 1008 l 521 1008 m 726 1008 l 726 1118 l 836 1118 l 836 1008 l 726 1008 z "},"Ẁ":{"ha":1356,"x_min":35,"x_max":1321,"o":"m 1215 926 l 1321 926 l 1022 0 l 921 0 l 678 768 l 435 0 l 332 0 l 35 926 l 140 926 l 390 136 l 628 926 l 728 926 l 969 136 l 1215 926 m 653 1001 l 538 1161 l 640 1161 l 719 1001 l 653 1001 z "},"X":{"ha":818,"x_min":17,"x_max":796,"o":"m 796 0 l 676 0 l 407 382 l 139 0 l 17 0 l 346 469 l 25 926 l 144 926 l 407 554 l 668 926 l 790 926 l 468 467 l 796 0 z "},"Y":{"ha":831,"x_min":17,"x_max":807,"o":"m 807 926 l 463 425 l 463 0 l 363 0 l 363 425 l 17 926 l 138 926 l 411 521 l 686 926 l 807 926 z "},"Ý":{"ha":831,"x_min":17,"x_max":807,"o":"m 807 926 l 463 425 l 463 0 l 363 0 l 363 425 l 17 926 l 138 926 l 411 521 l 686 926 l 807 926 m 399 1017 l 478 1176 l 581 1176 l 465 1017 l 399 1017 z "},"Ŷ":{"ha":831,"x_min":17,"x_max":807,"o":"m 807 926 l 463 425 l 463 0 l 363 0 l 363 425 l 17 926 l 138 926 l 411 521 l 686 926 l 807 926 m 269 999 l 382 1165 l 467 1165 l 578 999 l 514 999 l 424 1096 l 333 999 l 269 999 z "},"Ÿ":{"ha":831,"x_min":17,"x_max":807,"o":"m 807 926 l 463 425 l 463 0 l 363 0 l 363 425 l 17 926 l 138 926 l 411 521 l 686 926 l 807 926 m 265 1008 l 265 1118 l 375 1118 l 375 1008 l 265 1008 m 471 1008 l 471 1118 l 581 1118 l 581 1008 l 471 1008 z "},"Ẏ":{"ha":831,"x_min":17,"x_max":807,"o":"m 807 926 l 463 425 l 463 0 l 363 0 l 363 425 l 17 926 l 138 926 l 411 521 l 686 926 l 807 926 m 368 978 l 368 1088 l 478 1088 l 478 978 l 368 978 z "},"Ỵ":{"ha":831,"x_min":17,"x_max":807,"o":"m 807 926 l 463 425 l 463 0 l 363 0 l 363 425 l 17 926 l 138 926 l 411 521 l 686 926 l 807 926 m 360 -179 l 360 -69 l 469 -69 l 469 -179 l 360 -179 z "},"Ỳ":{"ha":831,"x_min":17,"x_max":807,"o":"m 807 926 l 463 425 l 463 0 l 363 0 l 363 425 l 17 926 l 138 926 l 411 521 l 686 926 l 807 926 m 397 1001 l 282 1161 l 385 1161 l 464 1001 l 397 1001 z "},"Ỷ":{"ha":831,"x_min":17,"x_max":807,"o":"m 807 926 l 463 425 l 463 0 l 363 0 l 363 425 l 17 926 l 138 926 l 411 521 l 686 926 l 807 926 m 389 1047 q 428 1058 415 1049 q 442 1081 442 1068 q 424 1108 442 1099 q 375 1117 407 1117 q 338 1114 360 1117 l 338 1174 q 381 1178 358 1178 q 471 1156 433 1178 q 508 1083 508 1133 q 490 1035 508 1056 q 435 1008 472 1015 l 435 975 l 389 975 l 389 1047 z "},"Ȳ":{"ha":831,"x_min":17,"x_max":807,"o":"m 807 926 l 463 425 l 463 0 l 363 0 l 363 425 l 17 926 l 138 926 l 411 521 l 686 926 l 807 926 m 261 994 l 261 1068 l 586 1068 l 586 994 l 261 994 z "},"Ỹ":{"ha":831,"x_min":17,"x_max":807,"o":"m 807 926 l 463 425 l 463 0 l 363 0 l 363 425 l 17 926 l 138 926 l 411 521 l 686 926 l 807 926 m 235 1010 q 229 1051 229 1031 q 262 1134 229 1103 q 336 1165 294 1165 q 395 1152 369 1165 q 456 1114 421 1139 q 493 1087 478 1096 q 525 1078 508 1078 q 551 1089 542 1078 q 561 1121 561 1100 q 558 1144 561 1128 l 631 1144 q 633 1115 633 1125 q 601 1032 633 1064 q 514 1000 568 1000 q 457 1014 483 1000 q 400 1051 431 1028 q 363 1078 378 1069 q 335 1086 349 1086 q 307 1073 318 1086 q 296 1035 296 1060 q 299 1010 296 1029 l 235 1010 z "},"Z":{"ha":846,"x_min":89,"x_max":749,"o":"m 749 926 l 749 842 l 213 94 l 749 94 l 749 0 l 89 0 l 89 88 l 631 832 l 103 832 l 103 926 l 749 926 z "},"Ź":{"ha":846,"x_min":89,"x_max":749,"o":"m 749 926 l 749 842 l 213 94 l 749 94 l 749 0 l 89 0 l 89 88 l 631 832 l 103 832 l 103 926 l 749 926 m 399 1017 l 478 1176 l 581 1176 l 465 1017 l 399 1017 z "},"Ž":{"ha":846,"x_min":89,"x_max":749,"o":"m 749 926 l 749 842 l 213 94 l 749 94 l 749 0 l 89 0 l 89 88 l 631 832 l 103 832 l 103 926 l 749 926 m 396 978 l 283 1144 l 361 1144 l 424 1047 l 486 1144 l 564 1144 l 453 978 l 396 978 z "},"Ż":{"ha":846,"x_min":89,"x_max":749,"o":"m 749 926 l 749 842 l 213 94 l 749 94 l 749 0 l 89 0 l 89 88 l 631 832 l 103 832 l 103 926 l 749 926 m 368 978 l 368 1088 l 478 1088 l 478 978 l 368 978 z "},"a":{"ha":769,"x_min":83,"x_max":658,"o":"m 407 706 q 591 649 524 706 q 658 483 658 592 l 658 147 q 576 13 658 47 q 350 -21 494 -21 q 162 28 240 -21 q 83 190 83 76 q 151 370 83 314 q 339 426 219 426 q 557 378 474 426 l 557 460 q 375 615 557 615 q 254 599 315 615 q 151 549 193 582 l 151 649 q 265 690 193 675 q 407 706 336 706 m 374 68 q 514 83 471 68 q 557 142 557 97 l 557 297 q 469 326 519 315 q 365 336 419 336 q 231 303 278 336 q 183 206 183 269 q 239 101 183 133 q 374 68 294 68 z "},"á":{"ha":769,"x_min":83,"x_max":658,"o":"m 407 706 q 591 649 524 706 q 658 483 658 592 l 658 147 q 576 13 658 47 q 350 -21 494 -21 q 162 28 240 -21 q 83 190 83 76 q 151 370 83 314 q 339 426 219 426 q 557 378 474 426 l 557 460 q 375 615 557 615 q 254 599 315 615 q 151 549 193 582 l 151 649 q 265 690 193 675 q 407 706 336 706 m 374 68 q 514 83 471 68 q 557 142 557 97 l 557 297 q 469 326 519 315 q 365 336 419 336 q 231 303 278 336 q 183 206 183 269 q 239 101 183 133 q 374 68 294 68 m 368 783 l 447 943 l 550 943 l 435 783 l 368 783 z "},"ă":{"ha":769,"x_min":83,"x_max":658,"o":"m 407 706 q 591 649 524 706 q 658 483 658 592 l 658 147 q 576 13 658 47 q 350 -21 494 -21 q 162 28 240 -21 q 83 190 83 76 q 151 370 83 314 q 339 426 219 426 q 557 378 474 426 l 557 460 q 375 615 557 615 q 254 599 315 615 q 151 549 193 582 l 151 649 q 265 690 193 675 q 407 706 336 706 m 374 68 q 514 83 471 68 q 557 142 557 97 l 557 297 q 469 326 519 315 q 365 336 419 336 q 231 303 278 336 q 183 206 183 269 q 239 101 183 133 q 374 68 294 68 m 404 757 q 284 798 335 757 q 217 915 233 839 l 289 915 q 404 829 321 829 q 519 915 485 829 l 592 915 q 526 798 578 839 q 404 757 475 757 z "},"ắ":{"ha":769,"x_min":83,"x_max":658,"o":"m 407 706 q 591 649 524 706 q 658 483 658 592 l 658 147 q 576 13 658 47 q 350 -21 494 -21 q 162 28 240 -21 q 83 190 83 76 q 151 370 83 314 q 339 426 219 426 q 557 378 474 426 l 557 460 q 375 615 557 615 q 254 599 315 615 q 151 549 193 582 l 151 649 q 265 690 193 675 q 407 706 336 706 m 374 68 q 514 83 471 68 q 557 142 557 97 l 557 297 q 469 326 519 315 q 365 336 419 336 q 231 303 278 336 q 183 206 183 269 q 239 101 183 133 q 374 68 294 68 m 404 757 q 284 798 335 757 q 217 915 233 839 l 289 915 q 404 829 321 829 q 519 915 485 829 l 592 915 q 526 798 578 839 q 404 757 475 757 m 360 931 l 439 1090 l 542 1090 l 426 931 l 360 931 z "},"ặ":{"ha":742,"x_min":83,"x_max":658,"o":"m 378 749 q 271 787 310 749 q 232 893 232 825 l 299 893 q 317 833 299 851 q 378 815 336 815 q 438 833 419 815 q 457 893 457 851 l 524 893 q 485 787 524 825 q 378 749 446 749 m 407 706 q 591 649 524 706 q 658 483 658 592 l 658 147 q 576 13 658 47 q 350 -21 494 -21 q 162 28 240 -21 q 83 190 83 76 q 151 370 83 314 q 339 426 219 426 q 557 378 474 426 l 557 460 q 375 615 557 615 q 254 599 315 615 q 151 549 193 582 l 151 649 q 265 690 193 675 q 407 706 336 706 m 374 68 q 514 83 471 68 q 557 142 557 97 l 557 297 q 469 326 519 315 q 365 336 419 336 q 231 303 278 336 q 183 206 183 269 q 239 101 183 133 q 374 68 294 68 m 335 -179 l 335 -69 l 444 -69 l 444 -179 l 335 -179 z "},"ằ":{"ha":769,"x_min":83,"x_max":658,"o":"m 407 706 q 591 649 524 706 q 658 483 658 592 l 658 147 q 576 13 658 47 q 350 -21 494 -21 q 162 28 240 -21 q 83 190 83 76 q 151 370 83 314 q 339 426 219 426 q 557 378 474 426 l 557 460 q 375 615 557 615 q 254 599 315 615 q 151 549 193 582 l 151 649 q 265 690 193 675 q 407 706 336 706 m 374 68 q 514 83 471 68 q 557 142 557 97 l 557 297 q 469 326 519 315 q 365 336 419 336 q 231 303 278 336 q 183 206 183 269 q 239 101 183 133 q 374 68 294 68 m 404 757 q 284 798 335 757 q 217 915 233 839 l 289 915 q 404 829 321 829 q 519 915 485 829 l 592 915 q 526 798 578 839 q 404 757 475 757 m 374 922 l 258 1082 l 360 1082 l 439 922 l 374 922 z "},"ẳ":{"ha":769,"x_min":83,"x_max":658,"o":"m 407 706 q 591 649 524 706 q 658 483 658 592 l 658 147 q 576 13 658 47 q 350 -21 494 -21 q 162 28 240 -21 q 83 190 83 76 q 151 370 83 314 q 339 426 219 426 q 557 378 474 426 l 557 460 q 375 615 557 615 q 254 599 315 615 q 151 549 193 582 l 151 649 q 265 690 193 675 q 407 706 336 706 m 374 68 q 514 83 471 68 q 557 142 557 97 l 557 297 q 469 326 519 315 q 365 336 419 336 q 231 303 278 336 q 183 206 183 269 q 239 101 183 133 q 374 68 294 68 m 392 757 q 272 798 322 757 q 204 915 221 839 l 276 915 q 392 829 308 829 q 507 915 472 829 l 579 915 q 514 798 565 839 q 392 757 463 757 m 357 994 q 397 1006 383 996 q 410 1028 410 1015 q 392 1055 410 1046 q 343 1064 375 1064 q 306 1061 328 1064 l 306 1121 q 349 1125 326 1125 q 439 1103 401 1125 q 476 1031 476 1081 q 458 983 476 1003 q 403 956 440 963 l 403 922 l 357 922 l 357 994 z "},"ẵ":{"ha":769,"x_min":83,"x_max":658,"o":"m 407 706 q 591 649 524 706 q 658 483 658 592 l 658 147 q 576 13 658 47 q 350 -21 494 -21 q 162 28 240 -21 q 83 190 83 76 q 151 370 83 314 q 339 426 219 426 q 557 378 474 426 l 557 460 q 375 615 557 615 q 254 599 315 615 q 151 549 193 582 l 151 649 q 265 690 193 675 q 407 706 336 706 m 374 68 q 514 83 471 68 q 557 142 557 97 l 557 297 q 469 326 519 315 q 365 336 419 336 q 231 303 278 336 q 183 206 183 269 q 239 101 183 133 q 374 68 294 68 m 404 757 q 284 798 335 757 q 217 915 233 839 l 289 915 q 404 829 321 829 q 519 915 485 829 l 592 915 q 526 798 578 839 q 404 757 475 757 m 208 964 q 203 1006 203 985 q 235 1088 203 1057 q 310 1119 268 1119 q 369 1106 343 1119 q 429 1068 394 1093 q 467 1041 451 1050 q 499 1032 482 1032 q 525 1043 515 1032 q 535 1075 535 1054 q 532 1099 535 1082 l 604 1099 q 607 1069 607 1079 q 574 986 607 1018 q 488 954 542 954 q 431 968 457 954 q 374 1006 404 982 q 337 1032 351 1024 q 308 1040 322 1040 q 281 1027 292 1040 q 269 989 269 1014 q 272 964 269 983 l 208 964 z "},"ǎ":{"ha":769,"x_min":83,"x_max":658,"o":"m 407 706 q 591 649 524 706 q 658 483 658 592 l 658 147 q 576 13 658 47 q 350 -21 494 -21 q 162 28 240 -21 q 83 190 83 76 q 151 370 83 314 q 339 426 219 426 q 557 378 474 426 l 557 460 q 375 615 557 615 q 254 599 315 615 q 151 549 193 582 l 151 649 q 265 690 193 675 q 407 706 336 706 m 374 68 q 514 83 471 68 q 557 142 557 97 l 557 297 q 469 326 519 315 q 365 336 419 336 q 231 303 278 336 q 183 206 183 269 q 239 101 183 133 q 374 68 294 68 m 376 783 l 264 950 l 342 950 l 404 853 l 467 950 l 544 950 l 433 783 l 376 783 z "},"â":{"ha":769,"x_min":83,"x_max":658,"o":"m 407 706 q 591 649 524 706 q 658 483 658 592 l 658 147 q 576 13 658 47 q 350 -21 494 -21 q 162 28 240 -21 q 83 190 83 76 q 151 370 83 314 q 339 426 219 426 q 557 378 474 426 l 557 460 q 375 615 557 615 q 254 599 315 615 q 151 549 193 582 l 151 649 q 265 690 193 675 q 407 706 336 706 m 374 68 q 514 83 471 68 q 557 142 557 97 l 557 297 q 469 326 519 315 q 365 336 419 336 q 231 303 278 336 q 183 206 183 269 q 239 101 183 133 q 374 68 294 68 m 250 783 l 363 950 l 447 950 l 558 783 l 494 783 l 404 881 l 314 783 l 250 783 z "},"ấ":{"ha":769,"x_min":83,"x_max":706,"o":"m 407 706 q 591 649 524 706 q 658 483 658 592 l 658 147 q 576 13 658 47 q 350 -21 494 -21 q 162 28 240 -21 q 83 190 83 76 q 151 370 83 314 q 339 426 219 426 q 557 378 474 426 l 557 460 q 375 615 557 615 q 254 599 315 615 q 151 549 193 582 l 151 649 q 265 690 193 675 q 407 706 336 706 m 374 68 q 514 83 471 68 q 557 142 557 97 l 557 297 q 469 326 519 315 q 365 336 419 336 q 231 303 278 336 q 183 206 183 269 q 239 101 183 133 q 374 68 294 68 m 254 783 l 367 950 l 451 950 l 563 783 l 499 783 l 408 881 l 318 783 l 254 783 m 524 883 l 603 1043 l 706 1043 l 590 883 l 524 883 z "},"ậ":{"ha":742,"x_min":83,"x_max":658,"o":"m 407 706 q 591 649 524 706 q 658 483 658 592 l 658 147 q 576 13 658 47 q 350 -21 494 -21 q 162 28 240 -21 q 83 190 83 76 q 151 370 83 314 q 339 426 219 426 q 557 378 474 426 l 557 460 q 375 615 557 615 q 254 599 315 615 q 151 549 193 582 l 151 649 q 265 690 193 675 q 407 706 336 706 m 374 68 q 514 83 471 68 q 557 142 557 97 l 557 297 q 469 326 519 315 q 365 336 419 336 q 231 303 278 336 q 183 206 183 269 q 239 101 183 133 q 374 68 294 68 m 335 -179 l 335 -69 l 444 -69 l 444 -179 l 335 -179 m 250 783 l 363 950 l 447 950 l 558 783 l 494 783 l 404 881 l 314 783 l 250 783 z "},"ầ":{"ha":769,"x_min":72,"x_max":658,"o":"m 407 706 q 591 649 524 706 q 658 483 658 592 l 658 147 q 576 13 658 47 q 350 -21 494 -21 q 162 28 240 -21 q 83 190 83 76 q 151 370 83 314 q 339 426 219 426 q 557 378 474 426 l 557 460 q 375 615 557 615 q 254 599 315 615 q 151 549 193 582 l 151 649 q 265 690 193 675 q 407 706 336 706 m 374 68 q 514 83 471 68 q 557 142 557 97 l 557 297 q 469 326 519 315 q 365 336 419 336 q 231 303 278 336 q 183 206 183 269 q 239 101 183 133 q 374 68 294 68 m 250 783 l 363 950 l 447 950 l 558 783 l 494 783 l 404 881 l 314 783 l 250 783 m 188 875 l 72 1035 l 175 1035 l 254 875 l 188 875 z "},"ẩ":{"ha":769,"x_min":83,"x_max":676,"o":"m 407 706 q 591 649 524 706 q 658 483 658 592 l 658 147 q 576 13 658 47 q 350 -21 494 -21 q 162 28 240 -21 q 83 190 83 76 q 151 370 83 314 q 339 426 219 426 q 557 378 474 426 l 557 460 q 375 615 557 615 q 254 599 315 615 q 151 549 193 582 l 151 649 q 265 690 193 675 q 407 706 336 706 m 374 68 q 514 83 471 68 q 557 142 557 97 l 557 297 q 469 326 519 315 q 365 336 419 336 q 231 303 278 336 q 183 206 183 269 q 239 101 183 133 q 374 68 294 68 m 242 776 l 354 943 l 439 943 l 550 776 l 486 776 l 396 874 l 306 776 l 242 776 m 557 921 q 597 932 583 922 q 610 954 610 942 q 592 981 610 972 q 543 990 575 990 q 506 988 528 990 l 506 1047 q 549 1051 526 1051 q 639 1029 601 1051 q 676 957 676 1007 q 658 909 676 929 q 603 882 640 889 l 603 849 l 557 849 l 557 921 z "},"ẫ":{"ha":769,"x_min":83,"x_max":658,"o":"m 407 706 q 591 649 524 706 q 658 483 658 592 l 658 147 q 576 13 658 47 q 350 -21 494 -21 q 162 28 240 -21 q 83 190 83 76 q 151 370 83 314 q 339 426 219 426 q 557 378 474 426 l 557 460 q 375 615 557 615 q 254 599 315 615 q 151 549 193 582 l 151 649 q 265 690 193 675 q 407 706 336 706 m 374 68 q 514 83 471 68 q 557 142 557 97 l 557 297 q 469 326 519 315 q 365 336 419 336 q 231 303 278 336 q 183 206 183 269 q 239 101 183 133 q 374 68 294 68 m 250 756 l 363 922 l 447 922 l 558 756 l 494 756 l 404 853 l 314 756 l 250 756 m 207 971 q 201 1013 201 992 q 234 1095 201 1064 q 308 1126 267 1126 q 367 1113 342 1126 q 428 1075 393 1100 q 465 1048 450 1057 q 497 1039 481 1039 q 524 1050 514 1039 q 533 1082 533 1061 q 531 1106 533 1089 l 603 1106 q 606 1076 606 1086 q 573 993 606 1025 q 486 961 540 961 q 429 975 456 961 q 372 1013 403 989 q 335 1039 350 1031 q 307 1047 321 1047 q 279 1034 290 1047 q 268 996 268 1021 q 271 971 268 990 l 207 971 z "},"ȁ":{"ha":769,"x_min":83,"x_max":658,"o":"m 407 706 q 591 649 524 706 q 658 483 658 592 l 658 147 q 576 13 658 47 q 350 -21 494 -21 q 162 28 240 -21 q 83 190 83 76 q 151 370 83 314 q 339 426 219 426 q 557 378 474 426 l 557 460 q 375 615 557 615 q 254 599 315 615 q 151 549 193 582 l 151 649 q 265 690 193 675 q 407 706 336 706 m 374 68 q 514 83 471 68 q 557 142 557 97 l 557 297 q 469 326 519 315 q 365 336 419 336 q 231 303 278 336 q 183 206 183 269 q 239 101 183 133 q 374 68 294 68 m 318 783 l 203 943 l 304 943 l 383 783 l 318 783 m 504 783 l 389 943 l 490 943 l 569 783 l 504 783 z "},"ä":{"ha":769,"x_min":83,"x_max":658,"o":"m 407 706 q 591 649 524 706 q 658 483 658 592 l 658 147 q 576 13 658 47 q 350 -21 494 -21 q 162 28 240 -21 q 83 190 83 76 q 151 370 83 314 q 339 426 219 426 q 557 378 474 426 l 557 460 q 375 615 557 615 q 254 599 315 615 q 151 549 193 582 l 151 649 q 265 690 193 675 q 407 706 336 706 m 374 68 q 514 83 471 68 q 557 142 557 97 l 557 297 q 469 326 519 315 q 365 336 419 336 q 231 303 278 336 q 183 206 183 269 q 239 101 183 133 q 374 68 294 68 m 246 783 l 246 893 l 356 893 l 356 783 l 246 783 m 451 783 l 451 893 l 561 893 l 561 783 l 451 783 z "},"ạ":{"ha":742,"x_min":83,"x_max":658,"o":"m 407 706 q 591 649 524 706 q 658 483 658 592 l 658 147 q 576 13 658 47 q 350 -21 494 -21 q 162 28 240 -21 q 83 190 83 76 q 151 370 83 314 q 339 426 219 426 q 557 378 474 426 l 557 460 q 375 615 557 615 q 254 599 315 615 q 151 549 193 582 l 151 649 q 265 690 193 675 q 407 706 336 706 m 374 68 q 514 83 471 68 q 557 142 557 97 l 557 297 q 469 326 519 315 q 365 336 419 336 q 231 303 278 336 q 183 206 183 269 q 239 101 183 133 q 374 68 294 68 m 335 -179 l 335 -69 l 444 -69 l 444 -179 l 335 -179 z "},"à":{"ha":769,"x_min":83,"x_max":658,"o":"m 407 706 q 591 649 524 706 q 658 483 658 592 l 658 147 q 576 13 658 47 q 350 -21 494 -21 q 162 28 240 -21 q 83 190 83 76 q 151 370 83 314 q 339 426 219 426 q 557 378 474 426 l 557 460 q 375 615 557 615 q 254 599 315 615 q 151 549 193 582 l 151 649 q 265 690 193 675 q 407 706 336 706 m 374 68 q 514 83 471 68 q 557 142 557 97 l 557 297 q 469 326 519 315 q 365 336 419 336 q 231 303 278 336 q 183 206 183 269 q 239 101 183 133 q 374 68 294 68 m 374 783 l 258 943 l 360 943 l 439 783 l 374 783 z "},"ả":{"ha":769,"x_min":83,"x_max":658,"o":"m 407 706 q 591 649 524 706 q 658 483 658 592 l 658 147 q 576 13 658 47 q 350 -21 494 -21 q 162 28 240 -21 q 83 190 83 76 q 151 370 83 314 q 339 426 219 426 q 557 378 474 426 l 557 460 q 375 615 557 615 q 254 599 315 615 q 151 549 193 582 l 151 649 q 265 690 193 675 q 407 706 336 706 m 374 68 q 514 83 471 68 q 557 142 557 97 l 557 297 q 469 326 519 315 q 365 336 419 336 q 231 303 278 336 q 183 206 183 269 q 239 101 183 133 q 374 68 294 68 m 369 853 q 409 864 396 854 q 422 886 422 874 q 405 913 422 904 q 356 922 388 922 q 318 919 340 922 l 318 979 q 361 983 339 983 q 451 961 414 983 q 489 889 489 939 q 471 841 489 861 q 415 814 453 821 l 415 781 l 369 781 l 369 853 z "},"ȃ":{"ha":769,"x_min":83,"x_max":658,"o":"m 407 706 q 591 649 524 706 q 658 483 658 592 l 658 147 q 576 13 658 47 q 350 -21 494 -21 q 162 28 240 -21 q 83 190 83 76 q 151 370 83 314 q 339 426 219 426 q 557 378 474 426 l 557 460 q 375 615 557 615 q 254 599 315 615 q 151 549 193 582 l 151 649 q 265 690 193 675 q 407 706 336 706 m 374 68 q 514 83 471 68 q 557 142 557 97 l 557 297 q 469 326 519 315 q 365 336 419 336 q 231 303 278 336 q 183 206 183 269 q 239 101 183 133 q 374 68 294 68 m 404 901 q 526 860 475 901 q 592 743 578 819 l 519 743 q 404 829 485 829 q 289 743 321 829 l 217 743 q 284 860 233 819 q 404 901 335 901 z "},"ā":{"ha":769,"x_min":83,"x_max":658,"o":"m 407 706 q 591 649 524 706 q 658 483 658 592 l 658 147 q 576 13 658 47 q 350 -21 494 -21 q 162 28 240 -21 q 83 190 83 76 q 151 370 83 314 q 339 426 219 426 q 557 378 474 426 l 557 460 q 375 615 557 615 q 254 599 315 615 q 151 549 193 582 l 151 649 q 265 690 193 675 q 407 706 336 706 m 374 68 q 514 83 471 68 q 557 142 557 97 l 557 297 q 469 326 519 315 q 365 336 419 336 q 231 303 278 336 q 183 206 183 269 q 239 101 183 133 q 374 68 294 68 m 242 800 l 242 874 l 567 874 l 567 800 l 242 800 z "},"ą":{"ha":769,"x_min":83,"x_max":658,"o":"m 407 706 q 591 649 524 706 q 658 483 658 592 l 658 147 q 618 42 658 82 l 619 42 l 617 40 q 551 3 590 15 q 492 -76 492 -39 q 539 -124 492 -124 q 615 -86 578 -124 l 615 -174 q 532 -199 571 -199 q 442 -168 475 -199 q 410 -83 410 -137 q 431 -18 410 -51 q 350 -21 404 -21 q 162 28 240 -21 q 83 190 83 76 q 151 370 83 314 q 339 426 219 426 q 557 378 474 426 l 557 460 q 375 615 557 615 q 254 599 315 615 q 151 549 193 582 l 151 649 q 265 690 193 675 q 407 706 336 706 m 183 206 q 239 101 183 133 q 374 68 294 68 q 514 83 471 68 q 557 142 557 97 l 557 297 q 469 326 519 315 q 365 336 419 336 q 231 303 278 336 q 183 206 183 269 z "},"å":{"ha":769,"x_min":83,"x_max":658,"o":"m 407 706 q 591 649 524 706 q 658 483 658 592 l 658 147 q 576 13 658 47 q 350 -21 494 -21 q 162 28 240 -21 q 83 190 83 76 q 151 370 83 314 q 339 426 219 426 q 557 378 474 426 l 557 460 q 375 615 557 615 q 254 599 315 615 q 151 549 193 582 l 151 649 q 265 690 193 675 q 407 706 336 706 m 374 68 q 514 83 471 68 q 557 142 557 97 l 557 297 q 469 326 519 315 q 365 336 419 336 q 231 303 278 336 q 183 206 183 269 q 239 101 183 133 q 374 68 294 68 m 404 743 q 297 774 329 743 q 264 871 264 804 q 297 968 264 938 q 404 999 329 999 q 511 968 478 999 q 544 871 544 938 q 511 774 544 804 q 404 743 478 743 m 404 803 q 463 818 447 803 q 479 871 479 833 q 463 923 479 908 q 404 938 447 938 q 344 923 360 938 q 328 871 328 908 q 344 818 328 833 q 404 803 360 803 z "},"ǻ":{"ha":769,"x_min":83,"x_max":658,"o":"m 407 706 q 591 649 524 706 q 658 483 658 592 l 658 147 q 576 13 658 47 q 350 -21 494 -21 q 162 28 240 -21 q 83 190 83 76 q 151 370 83 314 q 339 426 219 426 q 557 378 474 426 l 557 460 q 375 615 557 615 q 254 599 315 615 q 151 549 193 582 l 151 649 q 265 690 193 675 q 407 706 336 706 m 374 68 q 514 83 471 68 q 557 142 557 97 l 557 297 q 469 326 519 315 q 365 336 419 336 q 231 303 278 336 q 183 206 183 269 q 239 101 183 133 q 374 68 294 68 m 404 743 q 297 774 329 743 q 264 871 264 804 q 297 968 264 938 q 404 999 329 999 q 511 968 478 999 q 544 871 544 938 q 511 774 544 804 q 404 743 478 743 m 404 803 q 463 818 447 803 q 479 871 479 833 q 463 923 479 908 q 404 938 447 938 q 344 923 360 938 q 328 871 328 908 q 344 818 328 833 q 404 803 360 803 m 368 1075 l 447 1235 l 550 1235 l 435 1075 l 368 1075 z "},"ã":{"ha":769,"x_min":83,"x_max":658,"o":"m 407 706 q 591 649 524 706 q 658 483 658 592 l 658 147 q 576 13 658 47 q 350 -21 494 -21 q 162 28 240 -21 q 83 190 83 76 q 151 370 83 314 q 339 426 219 426 q 557 378 474 426 l 557 460 q 375 615 557 615 q 254 599 315 615 q 151 549 193 582 l 151 649 q 265 690 193 675 q 407 706 336 706 m 374 68 q 514 83 471 68 q 557 142 557 97 l 557 297 q 469 326 519 315 q 365 336 419 336 q 231 303 278 336 q 183 206 183 269 q 239 101 183 133 q 374 68 294 68 m 208 756 q 203 797 203 776 q 235 880 203 849 q 310 911 268 911 q 369 898 343 911 q 429 860 394 885 q 467 833 451 842 q 499 824 482 824 q 525 835 515 824 q 535 867 535 846 q 532 890 535 874 l 604 890 q 607 861 607 871 q 574 778 607 810 q 488 746 542 746 q 431 760 457 746 q 374 797 404 774 q 337 824 351 815 q 308 832 322 832 q 281 819 292 832 q 269 781 269 806 q 272 756 269 775 l 208 756 z "},"æ":{"ha":1240,"x_min":83,"x_max":1167,"o":"m 861 706 q 1093 603 1019 706 q 1164 329 1167 500 l 658 329 q 717 138 658 204 q 883 71 775 71 q 1121 131 1022 71 l 1121 28 q 878 -21 1019 -21 q 635 76 718 -21 q 520 6 583 33 q 374 -21 457 -21 q 160 31 238 -21 q 83 190 83 82 q 163 372 83 317 q 376 426 243 426 q 557 386 485 426 l 557 460 q 375 615 557 615 q 254 599 315 615 q 151 549 193 582 l 151 649 q 265 690 193 675 q 407 706 336 706 q 629 604 567 706 q 861 706 706 706 m 861 614 q 722 572 769 614 q 663 421 675 529 l 1058 421 q 1003 566 1051 518 q 861 614 956 614 m 374 68 q 497 88 438 68 q 592 144 557 108 q 558 296 563 213 q 470 325 521 314 q 365 336 419 336 q 228 302 274 336 q 183 199 183 268 q 238 99 183 131 q 374 68 293 68 z "},"ǽ":{"ha":1240,"x_min":83,"x_max":1164,"o":"m 861 706 q 1093 603 1019 706 q 1164 329 1167 500 l 658 329 q 717 138 658 204 q 883 71 775 71 q 1121 131 1022 71 l 1121 28 q 878 -21 1019 -21 q 635 76 718 -21 q 520 6 583 33 q 374 -21 457 -21 q 160 31 238 -21 q 83 190 83 82 q 163 372 83 317 q 376 426 243 426 q 557 386 485 426 l 557 460 q 375 615 557 615 q 254 599 315 615 q 151 549 193 582 l 151 649 q 265 690 193 675 q 407 706 336 706 q 629 604 567 706 q 861 706 706 706 m 861 614 q 722 572 769 614 q 663 421 675 529 l 1058 421 q 1003 566 1051 518 q 861 614 956 614 m 374 68 q 497 88 438 68 q 592 144 557 108 q 558 296 563 213 q 470 325 521 314 q 365 336 419 336 q 228 302 274 336 q 183 199 183 268 q 238 99 183 131 q 374 68 293 68 m 596 783 l 675 943 l 778 943 l 663 783 l 596 783 z "},"b":{"ha":790,"x_min":111,"x_max":714,"o":"m 397 704 q 634 612 554 704 q 714 356 714 519 q 617 62 713 144 q 389 -21 521 -21 q 111 118 111 -21 l 111 986 l 211 986 l 211 664 q 308 692 254 681 q 397 704 361 704 m 375 71 q 559 147 510 71 q 608 356 608 224 q 557 544 608 475 q 397 613 506 613 q 302 600 351 613 q 211 564 253 588 l 211 142 q 260 86 211 101 q 375 71 308 71 z "},"c":{"ha":683,"x_min":76,"x_max":607,"o":"m 401 -11 q 170 67 264 -11 q 76 347 76 146 q 170 626 76 547 q 401 706 264 706 q 607 667 506 706 l 607 571 q 413 610 513 610 q 233 547 289 610 q 176 347 176 485 q 233 147 176 208 q 413 85 289 85 q 607 124 517 85 l 607 26 q 401 -11 510 -11 z "},"ć":{"ha":683,"x_min":76,"x_max":607,"o":"m 401 -11 q 170 67 264 -11 q 76 347 76 146 q 170 626 76 547 q 401 706 264 706 q 607 667 506 706 l 607 571 q 413 610 513 610 q 233 547 289 610 q 176 347 176 485 q 233 147 176 208 q 413 85 289 85 q 607 124 517 85 l 607 26 q 401 -11 510 -11 m 333 783 l 413 943 l 515 943 l 400 783 l 333 783 z "},"č":{"ha":683,"x_min":76,"x_max":607,"o":"m 401 -11 q 170 67 264 -11 q 76 347 76 146 q 170 626 76 547 q 401 706 264 706 q 607 667 506 706 l 607 571 q 413 610 513 610 q 233 547 289 610 q 176 347 176 485 q 233 147 176 208 q 413 85 289 85 q 607 124 517 85 l 607 26 q 401 -11 510 -11 m 342 783 l 229 950 l 307 950 l 369 853 l 432 950 l 510 950 l 399 783 l 342 783 z "},"ç":{"ha":683,"x_min":76,"x_max":607,"o":"m 413 610 q 233 547 289 610 q 176 347 176 485 q 233 147 176 208 q 413 85 289 85 q 607 124 517 85 l 607 26 q 436 -10 524 -6 l 350 -167 l 244 -167 l 357 -10 q 156 83 235 1 q 76 347 76 164 q 170 626 76 547 q 401 706 264 706 q 607 667 506 706 l 607 571 q 413 610 513 610 z "},"ḉ":{"ha":683,"x_min":76,"x_max":607,"o":"m 515 943 l 400 783 l 333 783 l 413 943 l 515 943 m 413 610 q 233 547 289 610 q 176 347 176 485 q 233 147 176 208 q 413 85 289 85 q 607 124 517 85 l 607 26 q 436 -10 524 -6 l 350 -167 l 244 -167 l 357 -10 q 156 83 235 1 q 76 347 76 164 q 170 626 76 547 q 401 706 264 706 q 607 667 506 706 l 607 571 q 413 610 513 610 z "},"ĉ":{"ha":683,"x_min":76,"x_max":607,"o":"m 401 -11 q 170 67 264 -11 q 76 347 76 146 q 170 626 76 547 q 401 706 264 706 q 607 667 506 706 l 607 571 q 413 610 513 610 q 233 547 289 610 q 176 347 176 485 q 233 147 176 208 q 413 85 289 85 q 607 124 517 85 l 607 26 q 401 -11 510 -11 m 215 783 l 328 950 l 413 950 l 524 783 l 460 783 l 369 881 l 279 783 l 215 783 z "},"ċ":{"ha":683,"x_min":76,"x_max":607,"o":"m 401 -11 q 170 67 264 -11 q 76 347 76 146 q 170 626 76 547 q 401 706 264 706 q 607 667 506 706 l 607 571 q 413 610 513 610 q 233 547 289 610 q 176 347 176 485 q 233 147 176 208 q 413 85 289 85 q 607 124 517 85 l 607 26 q 401 -11 510 -11 m 314 783 l 314 893 l 424 893 l 424 783 l 314 783 z "},"d":{"ha":790,"x_min":76,"x_max":679,"o":"m 679 986 l 679 119 q 590 14 679 49 q 394 -21 500 -21 q 172 62 267 -21 q 76 356 78 144 q 156 612 76 519 q 393 704 236 704 q 483 692 429 704 q 579 664 536 681 l 579 986 l 679 986 m 579 564 q 488 600 538 588 q 393 613 439 613 q 233 544 285 613 q 182 356 182 475 q 229 148 182 225 q 400 71 276 71 q 526 88 474 71 q 579 129 579 104 l 579 564 z "},"ð":{"ha":788,"x_min":76,"x_max":711,"o":"m 539 811 q 711 376 711 600 q 631 85 711 190 q 396 -21 550 -21 q 156 74 236 -21 q 76 344 76 168 q 158 615 76 524 q 393 706 239 706 q 514 678 461 706 q 424 793 475 738 l 240 763 l 228 842 l 353 863 q 242 953 297 911 l 242 957 l 400 957 q 475 882 444 915 l 619 906 l 631 826 l 539 811 m 394 71 q 508 95 461 71 q 582 187 554 119 q 611 376 610 254 q 576 557 611 468 q 493 599 540 583 q 394 614 446 614 q 176 344 176 614 q 394 71 176 71 z "},"ď":{"ha":790,"x_min":76,"x_max":958,"o":"m 679 986 l 679 119 q 590 14 679 49 q 394 -21 500 -21 q 172 62 267 -21 q 76 356 78 144 q 156 612 76 519 q 393 704 236 704 q 483 692 429 704 q 579 664 536 681 l 579 986 l 679 986 m 579 564 q 488 600 538 588 q 393 613 439 613 q 233 544 285 613 q 182 356 182 475 q 229 148 182 225 q 400 71 276 71 q 526 88 474 71 q 579 129 579 104 l 579 564 m 742 708 l 844 981 l 958 981 l 842 708 l 742 708 z "},"đ":{"ha":790,"x_min":76,"x_max":769,"o":"m 769 801 l 679 801 l 679 119 q 590 14 679 49 q 394 -21 500 -21 q 172 62 267 -21 q 76 356 78 144 q 156 612 76 519 q 393 704 236 704 q 483 692 429 704 q 579 664 536 681 l 579 801 l 431 801 l 431 875 l 579 875 l 579 986 l 679 986 l 679 875 l 769 875 l 769 801 m 579 564 q 488 600 538 588 q 393 613 439 613 q 233 544 285 613 q 182 356 182 475 q 229 148 182 225 q 400 71 276 71 q 526 88 474 71 q 579 129 579 104 l 579 564 z "},"ḏ":{"ha":790,"x_min":76,"x_max":679,"o":"m 679 986 l 679 119 q 590 14 679 49 q 394 -21 500 -21 q 172 62 267 -21 q 76 356 78 144 q 156 612 76 519 q 393 704 236 704 q 483 692 429 704 q 579 664 536 681 l 579 986 l 679 986 m 579 564 q 488 600 538 588 q 393 613 439 613 q 233 544 285 613 q 182 356 182 475 q 229 148 182 225 q 400 71 276 71 q 526 88 474 71 q 579 129 579 104 l 579 564 m 249 -165 l 249 -92 l 574 -92 l 574 -165 l 249 -165 z "},"ǆ":{"ha":1422,"x_min":76,"x_max":1360,"o":"m 679 986 l 679 119 q 590 14 679 49 q 394 -21 500 -21 q 172 62 267 -21 q 76 356 78 144 q 156 612 76 519 q 393 704 236 704 q 483 692 429 704 q 579 664 536 681 l 579 986 l 679 986 m 579 564 q 488 600 538 588 q 393 613 439 613 q 233 544 285 613 q 182 356 182 475 q 229 148 182 225 q 400 71 276 71 q 526 88 474 71 q 579 129 579 104 l 579 564 m 1360 693 l 1360 606 l 968 89 l 1360 89 l 1360 0 l 853 0 l 853 90 l 1240 607 l 863 607 l 863 693 l 1360 693 m 1079 783 l 967 950 l 1044 950 l 1107 853 l 1169 950 l 1247 950 l 1136 783 l 1079 783 z "},"e":{"ha":760,"x_min":76,"x_max":686,"o":"m 381 706 q 613 603 539 706 q 683 329 686 500 l 178 329 q 236 138 178 204 q 403 71 294 71 q 640 131 542 71 l 640 28 q 397 -21 539 -21 q 161 73 246 -21 q 76 347 76 167 q 156 615 76 524 q 381 706 236 706 m 381 614 q 242 572 289 614 q 182 421 194 529 l 578 421 q 523 566 571 518 q 381 614 475 614 z "},"é":{"ha":760,"x_min":76,"x_max":683,"o":"m 381 706 q 613 603 539 706 q 683 329 686 500 l 178 329 q 236 138 178 204 q 403 71 294 71 q 640 131 542 71 l 640 28 q 397 -21 539 -21 q 161 73 246 -21 q 76 347 76 167 q 156 615 76 524 q 381 706 236 706 m 381 614 q 242 572 289 614 q 182 421 194 529 l 578 421 q 523 566 571 518 q 381 614 475 614 m 357 783 l 436 943 l 539 943 l 424 783 l 357 783 z "},"ĕ":{"ha":760,"x_min":76,"x_max":683,"o":"m 381 706 q 613 603 539 706 q 683 329 686 500 l 178 329 q 236 138 178 204 q 403 71 294 71 q 640 131 542 71 l 640 28 q 397 -21 539 -21 q 161 73 246 -21 q 76 347 76 167 q 156 615 76 524 q 381 706 236 706 m 381 614 q 242 572 289 614 q 182 421 194 529 l 578 421 q 523 566 571 518 q 381 614 475 614 m 393 757 q 273 798 324 757 q 206 915 222 839 l 278 915 q 393 829 310 829 q 508 915 474 829 l 581 915 q 515 798 567 839 q 393 757 464 757 z "},"ě":{"ha":760,"x_min":76,"x_max":683,"o":"m 381 706 q 613 603 539 706 q 683 329 686 500 l 178 329 q 236 138 178 204 q 403 71 294 71 q 640 131 542 71 l 640 28 q 397 -21 539 -21 q 161 73 246 -21 q 76 347 76 167 q 156 615 76 524 q 381 706 236 706 m 381 614 q 242 572 289 614 q 182 421 194 529 l 578 421 q 523 566 571 518 q 381 614 475 614 m 365 783 l 253 950 l 331 950 l 393 853 l 456 950 l 533 950 l 422 783 l 365 783 z "},"ḝ":{"ha":760,"x_min":76,"x_max":686,"o":"m 393 757 q 273 798 324 757 q 206 915 222 839 l 278 915 q 393 829 310 829 q 508 915 474 829 l 581 915 q 515 798 567 839 q 393 757 464 757 m 381 706 q 613 603 539 706 q 683 329 686 500 l 178 329 q 236 138 178 204 q 403 71 294 71 q 640 131 542 71 l 640 28 q 483 -15 574 -4 l 401 -167 l 296 -167 l 400 -21 l 397 -21 q 161 73 246 -21 q 76 347 76 167 q 156 615 76 524 q 381 706 236 706 m 381 614 q 242 572 289 614 q 182 421 194 529 l 578 421 q 523 566 571 518 q 381 614 475 614 z "},"ê":{"ha":760,"x_min":76,"x_max":683,"o":"m 381 706 q 613 603 539 706 q 683 329 686 500 l 178 329 q 236 138 178 204 q 403 71 294 71 q 640 131 542 71 l 640 28 q 397 -21 539 -21 q 161 73 246 -21 q 76 347 76 167 q 156 615 76 524 q 381 706 236 706 m 381 614 q 242 572 289 614 q 182 421 194 529 l 578 421 q 523 566 571 518 q 381 614 475 614 m 239 783 l 351 950 l 436 950 l 547 783 l 483 783 l 393 881 l 303 783 l 239 783 z "},"ế":{"ha":760,"x_min":76,"x_max":694,"o":"m 381 706 q 613 603 539 706 q 683 329 686 500 l 178 329 q 236 138 178 204 q 403 71 294 71 q 640 131 542 71 l 640 28 q 397 -21 539 -21 q 161 73 246 -21 q 76 347 76 167 q 156 615 76 524 q 381 706 236 706 m 381 614 q 242 572 289 614 q 182 421 194 529 l 578 421 q 523 566 571 518 q 381 614 475 614 m 243 783 l 356 950 l 440 950 l 551 783 l 488 783 l 397 881 l 307 783 l 243 783 m 513 883 l 592 1043 l 694 1043 l 579 883 l 513 883 z "},"ệ":{"ha":760,"x_min":76,"x_max":683,"o":"m 381 706 q 613 603 539 706 q 683 329 686 500 l 178 329 q 236 138 178 204 q 403 71 294 71 q 640 131 542 71 l 640 28 q 397 -21 539 -21 q 161 73 246 -21 q 76 347 76 167 q 156 615 76 524 q 381 706 236 706 m 381 614 q 242 572 289 614 q 182 421 194 529 l 578 421 q 523 566 571 518 q 381 614 475 614 m 239 783 l 351 950 l 436 950 l 547 783 l 483 783 l 393 881 l 303 783 l 239 783 m 338 -179 l 338 -69 l 447 -69 l 447 -179 l 338 -179 z "},"ề":{"ha":760,"x_min":61,"x_max":683,"o":"m 381 706 q 613 603 539 706 q 683 329 686 500 l 178 329 q 236 138 178 204 q 403 71 294 71 q 640 131 542 71 l 640 28 q 397 -21 539 -21 q 161 73 246 -21 q 76 347 76 167 q 156 615 76 524 q 381 706 236 706 m 381 614 q 242 572 289 614 q 182 421 194 529 l 578 421 q 523 566 571 518 q 381 614 475 614 m 239 783 l 351 950 l 436 950 l 547 783 l 483 783 l 393 881 l 303 783 l 239 783 m 176 875 l 61 1035 l 164 1035 l 243 875 l 176 875 z "},"ể":{"ha":760,"x_min":76,"x_max":683,"o":"m 381 706 q 613 603 539 706 q 683 329 686 500 l 178 329 q 236 138 178 204 q 403 71 294 71 q 640 131 542 71 l 640 28 q 397 -21 539 -21 q 161 73 246 -21 q 76 347 76 167 q 156 615 76 524 q 381 706 236 706 m 381 614 q 242 572 289 614 q 182 421 194 529 l 578 421 q 523 566 571 518 q 381 614 475 614 m 231 776 l 343 943 l 428 943 l 539 776 l 475 776 l 385 874 l 294 776 l 231 776 m 546 921 q 585 932 572 922 q 599 954 599 942 q 581 981 599 972 q 532 990 564 990 q 494 988 517 990 l 494 1047 q 538 1051 515 1051 q 628 1029 590 1051 q 665 957 665 1007 q 647 909 665 929 q 592 882 629 889 l 592 849 l 546 849 l 546 921 z "},"ễ":{"ha":760,"x_min":76,"x_max":683,"o":"m 381 706 q 613 603 539 706 q 683 329 686 500 l 178 329 q 236 138 178 204 q 403 71 294 71 q 640 131 542 71 l 640 28 q 397 -21 539 -21 q 161 73 246 -21 q 76 347 76 167 q 156 615 76 524 q 381 706 236 706 m 381 614 q 242 572 289 614 q 182 421 194 529 l 578 421 q 523 566 571 518 q 381 614 475 614 m 239 756 l 351 922 l 436 922 l 547 756 l 483 756 l 393 853 l 303 756 l 239 756 m 196 971 q 190 1013 190 992 q 223 1095 190 1064 q 297 1126 256 1126 q 356 1113 331 1126 q 417 1075 382 1100 q 454 1048 439 1057 q 486 1039 469 1039 q 513 1050 503 1039 q 522 1082 522 1061 q 519 1106 522 1089 l 592 1106 q 594 1076 594 1086 q 562 993 594 1025 q 475 961 529 961 q 418 975 444 961 q 361 1013 392 989 q 324 1039 339 1031 q 296 1047 310 1047 q 268 1034 279 1047 q 257 996 257 1021 q 260 971 257 990 l 196 971 z "},"ȅ":{"ha":760,"x_min":76,"x_max":683,"o":"m 381 706 q 613 603 539 706 q 683 329 686 500 l 178 329 q 236 138 178 204 q 403 71 294 71 q 640 131 542 71 l 640 28 q 397 -21 539 -21 q 161 73 246 -21 q 76 347 76 167 q 156 615 76 524 q 381 706 236 706 m 381 614 q 242 572 289 614 q 182 421 194 529 l 578 421 q 523 566 571 518 q 381 614 475 614 m 307 783 l 192 943 l 293 943 l 372 783 l 307 783 m 493 783 l 378 943 l 479 943 l 558 783 l 493 783 z "},"ë":{"ha":760,"x_min":76,"x_max":683,"o":"m 381 706 q 613 603 539 706 q 683 329 686 500 l 178 329 q 236 138 178 204 q 403 71 294 71 q 640 131 542 71 l 640 28 q 397 -21 539 -21 q 161 73 246 -21 q 76 347 76 167 q 156 615 76 524 q 381 706 236 706 m 381 614 q 242 572 289 614 q 182 421 194 529 l 578 421 q 523 566 571 518 q 381 614 475 614 m 235 783 l 235 893 l 344 893 l 344 783 l 235 783 m 440 783 l 440 893 l 550 893 l 550 783 l 440 783 z "},"ė":{"ha":760,"x_min":76,"x_max":683,"o":"m 381 706 q 613 603 539 706 q 683 329 686 500 l 178 329 q 236 138 178 204 q 403 71 294 71 q 640 131 542 71 l 640 28 q 397 -21 539 -21 q 161 73 246 -21 q 76 347 76 167 q 156 615 76 524 q 381 706 236 706 m 381 614 q 242 572 289 614 q 182 421 194 529 l 578 421 q 523 566 571 518 q 381 614 475 614 m 338 783 l 338 893 l 447 893 l 447 783 l 338 783 z "},"ẹ":{"ha":760,"x_min":76,"x_max":683,"o":"m 381 706 q 613 603 539 706 q 683 329 686 500 l 178 329 q 236 138 178 204 q 403 71 294 71 q 640 131 542 71 l 640 28 q 397 -21 539 -21 q 161 73 246 -21 q 76 347 76 167 q 156 615 76 524 q 381 706 236 706 m 381 614 q 242 572 289 614 q 182 421 194 529 l 578 421 q 523 566 571 518 q 381 614 475 614 m 338 -179 l 338 -69 l 447 -69 l 447 -179 l 338 -179 z "},"è":{"ha":760,"x_min":76,"x_max":683,"o":"m 381 706 q 613 603 539 706 q 683 329 686 500 l 178 329 q 236 138 178 204 q 403 71 294 71 q 640 131 542 71 l 640 28 q 397 -21 539 -21 q 161 73 246 -21 q 76 347 76 167 q 156 615 76 524 q 381 706 236 706 m 381 614 q 242 572 289 614 q 182 421 194 529 l 578 421 q 523 566 571 518 q 381 614 475 614 m 363 783 l 247 943 l 349 943 l 428 783 l 363 783 z "},"ẻ":{"ha":760,"x_min":76,"x_max":683,"o":"m 381 706 q 613 603 539 706 q 683 329 686 500 l 178 329 q 236 138 178 204 q 403 71 294 71 q 640 131 542 71 l 640 28 q 397 -21 539 -21 q 161 73 246 -21 q 76 347 76 167 q 156 615 76 524 q 381 706 236 706 m 381 614 q 242 572 289 614 q 182 421 194 529 l 578 421 q 523 566 571 518 q 381 614 475 614 m 358 853 q 398 864 385 854 q 411 886 411 874 q 394 913 411 904 q 344 922 376 922 q 307 919 329 922 l 307 979 q 350 983 328 983 q 440 961 403 983 q 478 889 478 939 q 460 841 478 861 q 404 814 442 821 l 404 781 l 358 781 l 358 853 z "},"ȇ":{"ha":760,"x_min":76,"x_max":683,"o":"m 381 706 q 613 603 539 706 q 683 329 686 500 l 178 329 q 236 138 178 204 q 403 71 294 71 q 640 131 542 71 l 640 28 q 397 -21 539 -21 q 161 73 246 -21 q 76 347 76 167 q 156 615 76 524 q 381 706 236 706 m 381 614 q 242 572 289 614 q 182 421 194 529 l 578 421 q 523 566 571 518 q 381 614 475 614 m 393 901 q 515 860 464 901 q 581 743 567 819 l 508 743 q 393 829 474 829 q 278 743 310 829 l 206 743 q 273 860 222 819 q 393 901 324 901 z "},"ē":{"ha":760,"x_min":76,"x_max":683,"o":"m 381 706 q 613 603 539 706 q 683 329 686 500 l 178 329 q 236 138 178 204 q 403 71 294 71 q 640 131 542 71 l 640 28 q 397 -21 539 -21 q 161 73 246 -21 q 76 347 76 167 q 156 615 76 524 q 381 706 236 706 m 381 614 q 242 572 289 614 q 182 421 194 529 l 578 421 q 523 566 571 518 q 381 614 475 614 m 231 800 l 231 874 l 556 874 l 556 800 l 231 800 z "},"ḗ":{"ha":760,"x_min":76,"x_max":683,"o":"m 381 706 q 613 603 539 706 q 683 329 686 500 l 178 329 q 236 138 178 204 q 403 71 294 71 q 640 131 542 71 l 640 28 q 397 -21 539 -21 q 161 73 246 -21 q 76 347 76 167 q 156 615 76 524 q 381 706 236 706 m 381 614 q 242 572 289 614 q 182 421 194 529 l 578 421 q 523 566 571 518 q 381 614 475 614 m 231 800 l 231 874 l 556 874 l 556 800 l 231 800 m 357 964 l 436 1124 l 539 1124 l 424 964 l 357 964 z "},"ḕ":{"ha":760,"x_min":76,"x_max":683,"o":"m 381 706 q 613 603 539 706 q 683 329 686 500 l 178 329 q 236 138 178 204 q 403 71 294 71 q 640 131 542 71 l 640 28 q 397 -21 539 -21 q 161 73 246 -21 q 76 347 76 167 q 156 615 76 524 q 381 706 236 706 m 381 614 q 242 572 289 614 q 182 421 194 529 l 578 421 q 523 566 571 518 q 381 614 475 614 m 231 800 l 231 874 l 556 874 l 556 800 l 231 800 m 363 964 l 247 1124 l 349 1124 l 428 964 l 363 964 z "},"ę":{"ha":760,"x_min":76,"x_max":686,"o":"m 381 706 q 613 603 539 706 q 683 329 686 500 l 178 329 q 236 138 178 204 q 403 71 294 71 q 640 131 542 71 l 640 28 q 599 11 622 18 q 510 -87 510 -40 q 557 -135 510 -135 q 633 -97 596 -135 l 633 -185 q 550 -210 589 -210 q 460 -179 493 -210 q 428 -94 428 -149 q 457 -18 428 -56 q 397 -21 418 -21 q 161 73 246 -21 q 76 347 76 167 q 156 615 76 524 q 381 706 236 706 m 381 614 q 242 572 289 614 q 182 421 194 529 l 578 421 q 523 566 571 518 q 381 614 475 614 z "},"ẽ":{"ha":760,"x_min":76,"x_max":683,"o":"m 381 706 q 613 603 539 706 q 683 329 686 500 l 178 329 q 236 138 178 204 q 403 71 294 71 q 640 131 542 71 l 640 28 q 397 -21 539 -21 q 161 73 246 -21 q 76 347 76 167 q 156 615 76 524 q 381 706 236 706 m 381 614 q 242 572 289 614 q 182 421 194 529 l 578 421 q 523 566 571 518 q 381 614 475 614 m 197 756 q 192 797 192 776 q 224 880 192 849 q 299 911 257 911 q 358 898 332 911 q 418 860 383 885 q 456 833 440 842 q 488 824 471 824 q 514 835 504 824 q 524 867 524 846 q 521 890 524 874 l 593 890 q 596 861 596 871 q 563 778 596 810 q 476 746 531 746 q 419 760 446 746 q 363 797 393 774 q 326 824 340 815 q 297 832 311 832 q 269 819 281 832 q 258 781 258 806 q 261 756 258 775 l 197 756 z "},"ə":{"ha":760,"x_min":74,"x_max":683,"o":"m 363 714 q 599 620 514 714 q 683 346 683 526 q 603 78 683 169 q 379 -12 524 -12 q 147 90 221 -12 q 76 364 74 193 l 582 364 q 524 556 582 489 q 357 622 465 622 q 119 563 218 622 l 119 665 q 363 714 221 714 m 379 79 q 518 122 471 79 q 578 272 565 164 l 182 272 q 237 127 189 175 q 379 79 285 79 z "},"f":{"ha":521,"x_min":56,"x_max":465,"o":"m 175 601 l 56 601 l 56 693 l 175 693 l 175 731 q 215 902 175 846 q 302 972 256 958 q 399 985 349 985 q 465 976 436 985 l 465 888 q 415 893 438 893 q 343 885 371 893 q 295 842 315 876 q 275 732 275 807 l 275 693 l 465 693 l 465 601 l 275 601 l 275 0 l 175 0 l 175 601 z "},"g":{"ha":790,"x_min":76,"x_max":679,"o":"m 414 704 q 602 662 525 704 q 679 532 679 619 l 679 -29 q 613 -203 679 -132 q 378 -275 546 -275 q 290 -267 331 -275 q 219 -252 249 -260 q 181 -243 189 -244 l 181 -149 q 276 -172 235 -164 q 367 -181 317 -181 q 536 -139 493 -181 q 579 -32 579 -97 l 579 19 q 483 -9 536 3 q 393 -21 429 -21 q 156 72 236 -21 q 76 328 76 164 q 175 622 78 540 q 414 704 272 704 m 182 328 q 233 140 182 208 q 393 71 285 71 q 488 83 439 71 q 579 119 538 96 l 579 518 q 537 592 579 572 q 422 613 494 613 q 233 536 283 613 q 182 328 182 460 z "},"ğ":{"ha":790,"x_min":76,"x_max":679,"o":"m 414 704 q 602 662 525 704 q 679 532 679 619 l 679 -29 q 613 -203 679 -132 q 378 -275 546 -275 q 290 -267 331 -275 q 219 -252 249 -260 q 181 -243 189 -244 l 181 -149 q 276 -172 235 -164 q 367 -181 317 -181 q 536 -139 493 -181 q 579 -32 579 -97 l 579 19 q 483 -9 536 3 q 393 -21 429 -21 q 156 72 236 -21 q 76 328 76 164 q 175 622 78 540 q 414 704 272 704 m 182 328 q 233 140 182 208 q 393 71 285 71 q 488 83 439 71 q 579 119 538 96 l 579 518 q 537 592 579 572 q 422 613 494 613 q 233 536 283 613 q 182 328 182 460 m 432 757 q 312 798 363 757 q 244 915 261 839 l 317 915 q 432 829 349 829 q 547 915 513 829 l 619 915 q 554 798 606 839 q 432 757 503 757 z "},"ǧ":{"ha":790,"x_min":76,"x_max":679,"o":"m 414 704 q 602 662 525 704 q 679 532 679 619 l 679 -29 q 613 -203 679 -132 q 378 -275 546 -275 q 290 -267 331 -275 q 219 -252 249 -260 q 181 -243 189 -244 l 181 -149 q 276 -172 235 -164 q 367 -181 317 -181 q 536 -139 493 -181 q 579 -32 579 -97 l 579 19 q 483 -9 536 3 q 393 -21 429 -21 q 156 72 236 -21 q 76 328 76 164 q 175 622 78 540 q 414 704 272 704 m 182 328 q 233 140 182 208 q 393 71 285 71 q 488 83 439 71 q 579 119 538 96 l 579 518 q 537 592 579 572 q 422 613 494 613 q 233 536 283 613 q 182 328 182 460 m 404 783 l 292 950 l 369 950 l 432 853 l 494 950 l 572 950 l 461 783 l 404 783 z "},"ĝ":{"ha":790,"x_min":76,"x_max":679,"o":"m 414 704 q 602 662 525 704 q 679 532 679 619 l 679 -29 q 613 -203 679 -132 q 378 -275 546 -275 q 290 -267 331 -275 q 219 -252 249 -260 q 181 -243 189 -244 l 181 -149 q 276 -172 235 -164 q 367 -181 317 -181 q 536 -139 493 -181 q 579 -32 579 -97 l 579 19 q 483 -9 536 3 q 393 -21 429 -21 q 156 72 236 -21 q 76 328 76 164 q 175 622 78 540 q 414 704 272 704 m 182 328 q 233 140 182 208 q 393 71 285 71 q 488 83 439 71 q 579 119 538 96 l 579 518 q 537 592 579 572 q 422 613 494 613 q 233 536 283 613 q 182 328 182 460 m 278 783 l 390 950 l 475 950 l 586 783 l 522 783 l 432 881 l 342 783 l 278 783 z "},"ģ":{"ha":790,"x_min":76,"x_max":679,"o":"m 501 886 q 457 838 468 872 q 446 761 446 804 l 363 761 q 404 900 363 851 q 501 961 446 949 l 501 886 m 414 704 q 602 662 525 704 q 679 532 679 619 l 679 -29 q 613 -203 679 -132 q 378 -275 546 -275 q 290 -267 331 -275 q 219 -252 249 -260 q 181 -243 189 -244 l 181 -149 q 276 -172 235 -164 q 367 -181 317 -181 q 536 -139 493 -181 q 579 -32 579 -97 l 579 19 q 483 -9 536 3 q 393 -21 429 -21 q 156 72 236 -21 q 76 328 76 164 q 175 622 78 540 q 414 704 272 704 m 182 328 q 233 140 182 208 q 393 71 285 71 q 488 83 439 71 q 579 119 538 96 l 579 518 q 537 592 579 572 q 422 613 494 613 q 233 536 283 613 q 182 328 182 460 z "},"ġ":{"ha":790,"x_min":76,"x_max":679,"o":"m 414 704 q 602 662 525 704 q 679 532 679 619 l 679 -29 q 613 -203 679 -132 q 378 -275 546 -275 q 290 -267 331 -275 q 219 -252 249 -260 q 181 -243 189 -244 l 181 -149 q 276 -172 235 -164 q 367 -181 317 -181 q 536 -139 493 -181 q 579 -32 579 -97 l 579 19 q 483 -9 536 3 q 393 -21 429 -21 q 156 72 236 -21 q 76 328 76 164 q 175 622 78 540 q 414 704 272 704 m 182 328 q 233 140 182 208 q 393 71 285 71 q 488 83 439 71 q 579 119 538 96 l 579 518 q 537 592 579 572 q 422 613 494 613 q 233 536 283 613 q 182 328 182 460 m 376 783 l 376 893 l 486 893 l 486 783 l 376 783 z "},"ḡ":{"ha":790,"x_min":76,"x_max":679,"o":"m 414 704 q 602 662 525 704 q 679 532 679 619 l 679 -29 q 613 -203 679 -132 q 378 -275 546 -275 q 290 -267 331 -275 q 219 -252 249 -260 q 181 -243 189 -244 l 181 -149 q 276 -172 235 -164 q 367 -181 317 -181 q 536 -139 493 -181 q 579 -32 579 -97 l 579 19 q 483 -9 536 3 q 393 -21 429 -21 q 156 72 236 -21 q 76 328 76 164 q 175 622 78 540 q 414 704 272 704 m 182 328 q 233 140 182 208 q 393 71 285 71 q 488 83 439 71 q 579 119 538 96 l 579 518 q 537 592 579 572 q 422 613 494 613 q 233 536 283 613 q 182 328 182 460 m 269 800 l 269 874 l 594 874 l 594 800 l 269 800 z "},"h":{"ha":799,"x_min":111,"x_max":688,"o":"m 421 706 q 619 633 551 706 q 688 411 688 560 l 688 0 l 588 0 l 588 411 q 542 561 588 508 q 410 614 497 614 q 211 558 313 614 l 211 0 l 111 0 l 111 1000 l 211 1000 l 211 647 q 317 690 263 675 q 421 706 372 706 z "},"ħ":{"ha":799,"x_min":-14,"x_max":688,"o":"m 421 706 q 619 633 551 706 q 688 411 688 560 l 688 0 l 588 0 l 588 411 q 542 561 588 508 q 410 614 497 614 q 211 558 313 614 l 211 0 l 111 0 l 111 801 l -14 801 l -14 875 l 111 875 l 111 1000 l 211 1000 l 211 875 l 325 875 l 325 801 l 211 801 l 211 647 q 317 690 263 675 q 421 706 372 706 z "},"ḫ":{"ha":799,"x_min":111,"x_max":688,"o":"m 421 706 q 619 633 551 706 q 688 411 688 560 l 688 0 l 588 0 l 588 411 q 542 561 588 508 q 410 614 497 614 q 211 558 313 614 l 211 0 l 111 0 l 111 1000 l 211 1000 l 211 647 q 317 690 263 675 q 421 706 372 706 m 394 -194 q 274 -153 325 -194 q 207 -36 224 -112 l 279 -36 q 394 -122 311 -122 q 510 -36 475 -122 l 582 -36 q 517 -153 568 -112 q 394 -194 465 -194 z "},"ĥ":{"ha":799,"x_min":3,"x_max":688,"o":"m 421 706 q 619 633 551 706 q 688 411 688 560 l 688 0 l 588 0 l 588 411 q 542 561 588 508 q 410 614 497 614 q 211 558 313 614 l 211 0 l 111 0 l 111 1000 l 211 1000 l 211 647 q 317 690 263 675 q 421 706 372 706 m 3 1072 l 115 1239 l 200 1239 l 311 1072 l 247 1072 l 157 1169 l 67 1072 l 3 1072 z "},"i":{"ha":333,"x_min":111,"x_max":222,"o":"m 111 817 l 111 926 l 222 926 l 222 817 l 111 817 m 117 0 l 117 693 l 217 693 l 217 0 l 117 0 z "},"ı":{"ha":322,"x_min":111,"x_max":211,"o":"m 111 0 l 111 693 l 211 693 l 211 0 l 111 0 z "},"í":{"ha":375,"x_min":138,"x_max":335,"o":"m 154 783 l 232 943 l 335 943 l 219 783 l 154 783 m 138 0 l 138 693 l 238 693 l 238 0 l 138 0 z "},"ĭ":{"ha":322,"x_min":-26,"x_max":349,"o":"m 111 0 l 111 693 l 211 693 l 211 0 l 111 0 m 161 757 q 41 798 92 757 q -26 915 -10 839 l 46 915 q 161 829 78 829 q 276 915 242 829 l 349 915 q 283 798 335 839 q 161 757 232 757 z "},"ǐ":{"ha":322,"x_min":21,"x_max":301,"o":"m 111 0 l 111 693 l 211 693 l 211 0 l 111 0 m 133 783 l 21 950 l 99 950 l 161 853 l 224 950 l 301 950 l 190 783 l 133 783 z "},"î":{"ha":375,"x_min":46,"x_max":328,"o":"m 46 783 l 158 950 l 215 950 l 328 783 l 250 783 l 188 881 l 124 783 l 46 783 m 138 0 l 138 693 l 238 693 l 238 0 l 138 0 z "},"ȉ":{"ha":322,"x_min":-40,"x_max":326,"o":"m 111 0 l 111 693 l 211 693 l 211 0 l 111 0 m 75 783 l -40 943 l 61 943 l 140 783 l 75 783 m 261 783 l 146 943 l 247 943 l 326 783 l 261 783 z "},"ï":{"ha":375,"x_min":29,"x_max":344,"o":"m 29 783 l 29 893 l 139 893 l 139 783 l 29 783 m 235 783 l 235 893 l 344 893 l 344 783 l 235 783 m 138 0 l 138 693 l 238 693 l 238 0 l 138 0 z "},"ḯ":{"ha":322,"x_min":3,"x_max":318,"o":"m 111 0 l 111 693 l 211 693 l 211 0 l 111 0 m 3 783 l 3 893 l 113 893 l 113 783 l 3 783 m 208 783 l 208 893 l 318 893 l 318 783 l 208 783 m 125 983 l 204 1143 l 307 1143 l 192 983 l 125 983 z "},"ị":{"ha":375,"x_min":132,"x_max":243,"o":"m 132 817 l 132 926 l 243 926 l 243 817 l 132 817 m 138 0 l 138 693 l 238 693 l 238 0 l 138 0 m 132 -179 l 132 -69 l 242 -69 l 242 -179 l 132 -179 z "},"ì":{"ha":375,"x_min":39,"x_max":238,"o":"m 154 783 l 39 943 l 142 943 l 221 783 l 154 783 m 138 0 l 138 693 l 238 693 l 238 0 l 138 0 z "},"ỉ":{"ha":375,"x_min":111,"x_max":282,"o":"m 163 856 q 202 867 189 857 q 215 888 215 876 q 198 915 215 906 q 149 925 181 925 q 111 921 128 925 l 111 982 q 154 985 139 985 q 244 963 207 985 q 282 890 282 942 q 264 842 282 863 q 208 817 246 822 l 208 783 l 163 783 l 163 856 m 138 0 l 138 693 l 238 693 l 238 0 l 138 0 z "},"ȋ":{"ha":322,"x_min":-26,"x_max":349,"o":"m 111 0 l 111 693 l 211 693 l 211 0 l 111 0 m 161 901 q 283 860 232 901 q 349 743 335 819 l 276 743 q 161 829 242 829 q 46 743 78 829 l -26 743 q 41 860 -10 819 q 161 901 92 901 z "},"ĳ":{"ha":706,"x_min":111,"x_max":594,"o":"m 111 817 l 111 926 l 222 926 l 222 817 l 111 817 m 117 0 l 117 693 l 217 693 l 217 0 l 117 0 m 483 817 l 483 926 l 594 926 l 594 817 l 483 817 m 347 -175 q 436 -158 406 -174 q 478 -112 467 -142 q 489 -35 489 -83 l 489 693 l 589 693 l 589 -40 q 529 -212 589 -156 q 347 -268 469 -268 l 347 -175 z "},"ī":{"ha":375,"x_min":25,"x_max":349,"o":"m 25 800 l 25 874 l 349 874 l 349 800 l 25 800 m 138 0 l 138 693 l 238 693 l 238 0 l 138 0 z "},"į":{"ha":333,"x_min":7,"x_max":222,"o":"m 111 926 l 222 926 l 222 817 l 111 817 l 111 926 m 117 693 l 217 693 l 217 0 q 124 -58 158 -28 q 89 -118 89 -89 q 136 -165 89 -165 q 213 -128 175 -165 l 213 -215 q 129 -240 168 -240 q 40 -210 72 -240 q 7 -125 7 -179 q 38 -49 7 -90 q 117 13 69 -8 l 117 693 z "},"ĩ":{"ha":322,"x_min":-40,"x_max":364,"o":"m 111 0 l 111 693 l 211 693 l 211 0 l 111 0 m -35 756 q -40 797 -40 776 q -8 880 -40 849 q 67 911 25 911 q 126 898 100 911 q 186 860 151 885 q 224 833 208 842 q 256 824 239 824 q 282 835 272 824 q 292 867 292 846 q 289 890 292 874 l 361 890 q 364 861 364 871 q 331 778 364 810 q 244 746 299 746 q 188 760 214 746 q 131 797 161 774 q 94 824 108 815 q 65 832 79 832 q 38 819 49 832 q 26 781 26 806 q 29 756 26 775 l -35 756 z "},"j":{"ha":372,"x_min":14,"x_max":261,"o":"m 150 817 l 150 926 l 261 926 l 261 817 l 150 817 m 14 -175 q 103 -158 72 -174 q 144 -112 133 -142 q 156 -35 156 -83 l 156 693 l 256 693 l 256 -40 q 196 -212 256 -156 q 14 -268 136 -268 l 14 -175 z "},"ȷ":{"ha":349,"x_min":4,"x_max":246,"o":"m 4 -175 q 93 -158 63 -174 q 135 -112 124 -142 q 146 -35 146 -83 l 146 693 l 246 693 l 246 -40 q 186 -212 246 -156 q 4 -268 126 -268 l 4 -175 z "},"ĵ":{"ha":349,"x_min":4,"x_max":336,"o":"m 56 783 l 167 950 l 225 950 l 336 783 l 258 783 l 196 881 l 133 783 l 56 783 m 4 -175 q 93 -158 63 -174 q 135 -112 124 -142 q 146 -35 146 -83 l 146 693 l 246 693 l 246 -40 q 186 -212 246 -156 q 4 -268 126 -268 l 4 -175 z "},"k":{"ha":710,"x_min":111,"x_max":668,"o":"m 668 0 l 535 0 l 211 328 l 211 0 l 111 0 l 111 957 l 211 957 l 211 436 l 493 693 l 618 693 l 278 393 l 668 0 z "},"ķ":{"ha":763,"x_min":128,"x_max":713,"o":"m 128 0 l 128 957 l 228 957 l 228 353 l 540 693 l 675 693 l 379 375 l 713 0 l 581 0 l 314 304 l 228 211 l 228 0 l 128 0 m 294 -193 q 340 -145 329 -179 q 351 -68 351 -111 l 435 -68 q 393 -207 435 -158 q 294 -268 351 -256 l 294 -193 z "},"ĸ":{"ha":763,"x_min":128,"x_max":713,"o":"m 128 0 l 128 693 l 228 693 l 228 353 l 540 693 l 675 693 l 379 375 l 713 0 l 581 0 l 314 304 l 228 211 l 228 0 l 128 0 z "},"l":{"ha":322,"x_min":111,"x_max":211,"o":"m 211 0 l 111 0 l 111 957 l 211 957 l 211 0 z "},"ĺ":{"ha":322,"x_min":111,"x_max":318,"o":"m 211 0 l 111 0 l 111 957 l 211 957 l 211 0 m 136 1047 l 215 1207 l 318 1207 l 203 1047 l 136 1047 z "},"ľ":{"ha":375,"x_min":140,"x_max":426,"o":"m 140 0 l 140 957 l 240 957 l 240 0 l 140 0 m 288 833 q 343 957 343 854 l 426 957 q 385 819 426 867 q 288 758 343 771 l 288 833 z "},"ļ":{"ha":322,"x_min":92,"x_max":231,"o":"m 211 0 l 111 0 l 111 957 l 211 957 l 211 0 m 92 -193 q 136 -145 125 -179 q 147 -68 147 -111 l 231 -68 q 189 -207 231 -158 q 92 -268 147 -256 l 92 -193 z "},"ŀ":{"ha":322,"x_min":96,"x_max":211,"o":"m 111 957 l 211 957 l 211 0 l 111 0 l 111 288 l 96 288 l 96 399 l 111 399 l 111 957 z "},"ḷ":{"ha":322,"x_min":106,"x_max":215,"o":"m 211 0 l 111 0 l 111 957 l 211 957 l 211 0 m 106 -179 l 106 -69 l 215 -69 l 215 -179 l 106 -179 z "},"ǉ":{"ha":694,"x_min":111,"x_max":583,"o":"m 211 0 l 111 0 l 111 957 l 211 957 l 211 0 m 472 817 l 472 926 l 583 926 l 583 817 l 472 817 m 336 -175 q 425 -158 394 -174 q 467 -112 456 -142 q 478 -35 478 -83 l 478 693 l 578 693 l 578 -40 q 518 -212 578 -156 q 336 -268 458 -268 l 336 -175 z "},"ḻ":{"ha":322,"x_min":-1,"x_max":324,"o":"m 211 0 l 111 0 l 111 957 l 211 957 l 211 0 m -1 -165 l -1 -92 l 324 -92 l 324 -165 l -1 -165 z "},"ł":{"ha":375,"x_min":49,"x_max":349,"o":"m 140 0 l 140 471 l 49 410 l 49 499 l 140 560 l 140 957 l 240 957 l 240 628 l 349 700 l 349 611 l 240 539 l 240 0 l 140 0 z "},"m":{"ha":1226,"x_min":111,"x_max":1115,"o":"m 840 706 q 1051 642 986 706 q 1115 451 1115 578 l 1115 0 l 1015 0 l 1015 451 q 829 615 1015 615 q 661 568 740 615 q 679 451 679 519 l 679 0 l 579 0 l 579 451 q 393 615 579 615 q 211 588 307 615 l 211 0 l 111 0 l 111 638 q 404 706 246 706 q 607 649 539 706 q 840 706 711 706 z "},"ṃ":{"ha":1226,"x_min":111,"x_max":1115,"o":"m 840 706 q 1051 642 986 706 q 1115 451 1115 578 l 1115 0 l 1015 0 l 1015 451 q 829 615 1015 615 q 661 568 740 615 q 679 451 679 519 l 679 0 l 579 0 l 579 451 q 393 615 579 615 q 211 588 307 615 l 211 0 l 111 0 l 111 638 q 404 706 246 706 q 607 649 539 706 q 840 706 711 706 m 558 -179 l 558 -69 l 668 -69 l 668 -179 l 558 -179 z "},"n":{"ha":790,"x_min":111,"x_max":679,"o":"m 111 638 q 404 706 246 706 q 615 642 550 706 q 679 451 679 578 l 679 0 l 579 0 l 579 451 q 393 615 579 615 q 211 588 307 615 l 211 0 l 111 0 l 111 638 z "},"ń":{"ha":790,"x_min":111,"x_max":679,"o":"m 111 638 q 404 706 246 706 q 615 642 550 706 q 679 451 679 578 l 679 0 l 579 0 l 579 451 q 393 615 579 615 q 211 588 307 615 l 211 0 l 111 0 l 111 638 m 361 783 l 440 943 l 543 943 l 428 783 l 361 783 z "},"ŉ":{"ha":807,"x_min":44,"x_max":682,"o":"m 44 797 q 90 845 79 811 q 101 922 101 879 l 185 922 q 142 783 185 832 q 44 722 100 735 l 44 797 m 114 638 q 237 683 160 661 q 407 706 314 706 q 610 639 538 706 q 682 451 682 572 l 682 0 l 582 0 l 582 451 q 545 561 582 517 q 397 606 508 606 q 214 578 311 606 l 214 0 l 114 0 l 114 638 z "},"ň":{"ha":790,"x_min":111,"x_max":679,"o":"m 111 638 q 404 706 246 706 q 615 642 550 706 q 679 451 679 578 l 679 0 l 579 0 l 579 451 q 393 615 579 615 q 211 588 307 615 l 211 0 l 111 0 l 111 638 m 369 783 l 257 950 l 335 950 l 397 853 l 460 950 l 538 950 l 426 783 l 369 783 z "},"ņ":{"ha":790,"x_min":111,"x_max":679,"o":"m 111 638 q 404 706 246 706 q 615 642 550 706 q 679 451 679 578 l 679 0 l 579 0 l 579 451 q 393 615 579 615 q 211 588 307 615 l 211 0 l 111 0 l 111 638 m 328 -193 q 372 -145 361 -179 q 383 -68 383 -111 l 467 -68 q 425 -207 467 -158 q 328 -268 383 -256 l 328 -193 z "},"ṅ":{"ha":790,"x_min":111,"x_max":679,"o":"m 111 638 q 404 706 246 706 q 615 642 550 706 q 679 451 679 578 l 679 0 l 579 0 l 579 451 q 393 615 579 615 q 211 588 307 615 l 211 0 l 111 0 l 111 638 m 342 783 l 342 893 l 451 893 l 451 783 l 342 783 z "},"ṇ":{"ha":790,"x_min":111,"x_max":679,"o":"m 111 638 q 404 706 246 706 q 615 642 550 706 q 679 451 679 578 l 679 0 l 579 0 l 579 451 q 393 615 579 615 q 211 588 307 615 l 211 0 l 111 0 l 111 638 m 342 -179 l 342 -69 l 451 -69 l 451 -179 l 342 -179 z "},"ŋ":{"ha":807,"x_min":114,"x_max":682,"o":"m 114 638 q 237 683 160 661 q 407 706 314 706 q 610 639 538 706 q 682 451 682 572 l 682 -12 q 622 -183 682 -126 q 440 -239 563 -239 l 440 -146 q 529 -130 499 -146 q 571 -84 560 -114 q 582 -6 582 -54 l 582 451 q 545 561 582 517 q 397 606 508 606 q 214 578 311 606 l 214 0 l 114 0 l 114 638 z "},"ɲ":{"ha":790,"x_min":-31,"x_max":679,"o":"m 111 638 q 404 706 246 706 q 615 642 550 706 q 679 451 679 578 l 679 0 l 579 0 l 579 451 q 393 615 579 615 q 211 588 307 615 l 211 0 q 151 -172 211 -115 q -31 -228 92 -228 l -31 -135 q 58 -117 28 -133 q 100 -72 89 -101 q 111 6 111 -43 l 111 638 z "},"ǌ":{"ha":1163,"x_min":111,"x_max":1051,"o":"m 111 638 q 404 706 246 706 q 615 642 550 706 q 679 451 679 578 l 679 0 l 579 0 l 579 451 q 393 615 579 615 q 211 588 307 615 l 211 0 l 111 0 l 111 638 m 940 817 l 940 926 l 1051 926 l 1051 817 l 940 817 m 804 -175 q 893 -158 863 -174 q 935 -112 924 -142 q 946 -35 946 -83 l 946 693 l 1046 693 l 1046 -40 q 986 -212 1046 -156 q 804 -268 926 -268 l 804 -175 z "},"ṉ":{"ha":790,"x_min":111,"x_max":679,"o":"m 111 638 q 404 706 246 706 q 615 642 550 706 q 679 451 679 578 l 679 0 l 579 0 l 579 451 q 393 615 579 615 q 211 588 307 615 l 211 0 l 111 0 l 111 638 m 235 -165 l 235 -92 l 560 -92 l 560 -165 l 235 -165 z "},"ñ":{"ha":790,"x_min":111,"x_max":679,"o":"m 111 638 q 404 706 246 706 q 615 642 550 706 q 679 451 679 578 l 679 0 l 579 0 l 579 451 q 393 615 579 615 q 211 588 307 615 l 211 0 l 111 0 l 111 638 m 201 756 q 196 797 196 776 q 228 880 196 849 q 303 911 261 911 q 362 898 336 911 q 422 860 388 885 q 460 833 444 842 q 492 824 475 824 q 518 835 508 824 q 528 867 528 846 q 525 890 528 874 l 597 890 q 600 861 600 871 q 567 778 600 810 q 481 746 535 746 q 424 760 450 746 q 367 797 397 774 q 330 824 344 815 q 301 832 315 832 q 274 819 285 832 q 263 781 263 806 q 265 756 263 775 l 201 756 z "},"o":{"ha":790,"x_min":76,"x_max":714,"o":"m 396 -21 q 156 74 236 -21 q 76 344 76 168 q 158 615 76 524 q 393 706 239 706 q 635 609 556 706 q 714 344 714 513 q 631 76 714 172 q 396 -21 547 -21 m 394 71 q 614 344 614 71 q 563 544 614 475 q 394 614 511 614 q 176 344 176 614 q 394 71 176 71 z "},"ó":{"ha":790,"x_min":76,"x_max":714,"o":"m 396 -21 q 156 74 236 -21 q 76 344 76 168 q 158 615 76 524 q 393 706 239 706 q 635 609 556 706 q 714 344 714 513 q 631 76 714 172 q 396 -21 547 -21 m 394 71 q 614 344 614 71 q 563 544 614 475 q 394 614 511 614 q 176 344 176 614 q 394 71 176 71 m 363 783 l 442 943 l 544 943 l 429 783 l 363 783 z "},"ŏ":{"ha":790,"x_min":76,"x_max":714,"o":"m 396 -21 q 156 74 236 -21 q 76 344 76 168 q 158 615 76 524 q 393 706 239 706 q 635 609 556 706 q 714 344 714 513 q 631 76 714 172 q 396 -21 547 -21 m 394 71 q 614 344 614 71 q 563 544 614 475 q 394 614 511 614 q 176 344 176 614 q 394 71 176 71 m 399 757 q 278 798 329 757 q 211 915 228 839 l 283 915 q 399 829 315 829 q 514 915 479 829 l 586 915 q 521 798 572 839 q 399 757 469 757 z "},"ǒ":{"ha":790,"x_min":76,"x_max":714,"o":"m 396 -21 q 156 74 236 -21 q 76 344 76 168 q 158 615 76 524 q 393 706 239 706 q 635 609 556 706 q 714 344 714 513 q 631 76 714 172 q 396 -21 547 -21 m 394 71 q 614 344 614 71 q 563 544 614 475 q 394 614 511 614 q 176 344 176 614 q 394 71 176 71 m 371 783 l 258 950 l 336 950 l 399 853 l 461 950 l 539 950 l 428 783 l 371 783 z "},"ô":{"ha":790,"x_min":76,"x_max":714,"o":"m 396 -21 q 156 74 236 -21 q 76 344 76 168 q 158 615 76 524 q 393 706 239 706 q 635 609 556 706 q 714 344 714 513 q 631 76 714 172 q 396 -21 547 -21 m 394 71 q 614 344 614 71 q 563 544 614 475 q 394 614 511 614 q 176 344 176 614 q 394 71 176 71 m 244 783 l 357 950 l 442 950 l 553 783 l 489 783 l 399 881 l 308 783 l 244 783 z "},"ố":{"ha":790,"x_min":76,"x_max":714,"o":"m 396 -21 q 156 74 236 -21 q 76 344 76 168 q 158 615 76 524 q 393 706 239 706 q 635 609 556 706 q 714 344 714 513 q 631 76 714 172 q 396 -21 547 -21 m 394 71 q 614 344 614 71 q 563 544 614 475 q 394 614 511 614 q 176 344 176 614 q 394 71 176 71 m 249 783 l 361 950 l 446 950 l 557 783 l 493 783 l 403 881 l 313 783 l 249 783 m 518 883 l 597 1043 l 700 1043 l 585 883 l 518 883 z "},"ộ":{"ha":790,"x_min":76,"x_max":714,"o":"m 396 -21 q 156 74 236 -21 q 76 344 76 168 q 158 615 76 524 q 393 706 239 706 q 635 609 556 706 q 714 344 714 513 q 631 76 714 172 q 396 -21 547 -21 m 394 71 q 614 344 614 71 q 563 544 614 475 q 394 614 511 614 q 176 344 176 614 q 394 71 176 71 m 244 783 l 357 950 l 442 950 l 553 783 l 489 783 l 399 881 l 308 783 l 244 783 m 343 -179 l 343 -69 l 453 -69 l 453 -179 l 343 -179 z "},"ồ":{"ha":790,"x_min":67,"x_max":714,"o":"m 396 -21 q 156 74 236 -21 q 76 344 76 168 q 158 615 76 524 q 393 706 239 706 q 635 609 556 706 q 714 344 714 513 q 631 76 714 172 q 396 -21 547 -21 m 394 71 q 614 344 614 71 q 563 544 614 475 q 394 614 511 614 q 176 344 176 614 q 394 71 176 71 m 244 783 l 357 950 l 442 950 l 553 783 l 489 783 l 399 881 l 308 783 l 244 783 m 182 875 l 67 1035 l 169 1035 l 249 875 l 182 875 z "},"ổ":{"ha":790,"x_min":76,"x_max":714,"o":"m 396 -21 q 156 74 236 -21 q 76 344 76 168 q 158 615 76 524 q 393 706 239 706 q 635 609 556 706 q 714 344 714 513 q 631 76 714 172 q 396 -21 547 -21 m 394 71 q 614 344 614 71 q 563 544 614 475 q 394 614 511 614 q 176 344 176 614 q 394 71 176 71 m 236 776 l 349 943 l 433 943 l 544 776 l 481 776 l 390 874 l 300 776 l 236 776 m 551 921 q 591 932 578 922 q 604 954 604 942 q 587 981 604 972 q 538 990 569 990 q 500 988 522 990 l 500 1047 q 543 1051 521 1051 q 633 1029 596 1051 q 671 957 671 1007 q 653 909 671 929 q 597 882 635 889 l 597 849 l 551 849 l 551 921 z "},"ỗ":{"ha":790,"x_min":76,"x_max":714,"o":"m 396 -21 q 156 74 236 -21 q 76 344 76 168 q 158 615 76 524 q 393 706 239 706 q 635 609 556 706 q 714 344 714 513 q 631 76 714 172 q 396 -21 547 -21 m 394 71 q 614 344 614 71 q 563 544 614 475 q 394 614 511 614 q 176 344 176 614 q 394 71 176 71 m 244 756 l 357 922 l 442 922 l 553 756 l 489 756 l 399 853 l 308 756 l 244 756 m 201 971 q 196 1013 196 992 q 228 1095 196 1064 q 303 1126 261 1126 q 362 1113 336 1126 q 422 1075 388 1100 q 460 1048 444 1057 q 492 1039 475 1039 q 518 1050 508 1039 q 528 1082 528 1061 q 525 1106 528 1089 l 597 1106 q 600 1076 600 1086 q 567 993 600 1025 q 481 961 535 961 q 424 975 450 961 q 367 1013 397 989 q 330 1039 344 1031 q 301 1047 315 1047 q 274 1034 285 1047 q 263 996 263 1021 q 265 971 263 990 l 201 971 z "},"ȍ":{"ha":790,"x_min":76,"x_max":714,"o":"m 396 -21 q 156 74 236 -21 q 76 344 76 168 q 158 615 76 524 q 393 706 239 706 q 635 609 556 706 q 714 344 714 513 q 631 76 714 172 q 396 -21 547 -21 m 394 71 q 614 344 614 71 q 563 544 614 475 q 394 614 511 614 q 176 344 176 614 q 394 71 176 71 m 313 783 l 197 943 l 299 943 l 378 783 l 313 783 m 499 783 l 383 943 l 485 943 l 564 783 l 499 783 z "},"ö":{"ha":790,"x_min":76,"x_max":714,"o":"m 396 -21 q 156 74 236 -21 q 76 344 76 168 q 158 615 76 524 q 393 706 239 706 q 635 609 556 706 q 714 344 714 513 q 631 76 714 172 q 396 -21 547 -21 m 394 71 q 614 344 614 71 q 563 544 614 475 q 394 614 511 614 q 176 344 176 614 q 394 71 176 71 m 240 783 l 240 893 l 350 893 l 350 783 l 240 783 m 446 783 l 446 893 l 556 893 l 556 783 l 446 783 z "},"ȫ":{"ha":790,"x_min":76,"x_max":714,"o":"m 396 -21 q 156 74 236 -21 q 76 344 76 168 q 158 615 76 524 q 393 706 239 706 q 635 609 556 706 q 714 344 714 513 q 631 76 714 172 q 396 -21 547 -21 m 394 71 q 614 344 614 71 q 563 544 614 475 q 394 614 511 614 q 176 344 176 614 q 394 71 176 71 m 240 783 l 240 893 l 350 893 l 350 783 l 240 783 m 446 783 l 446 893 l 556 893 l 556 783 l 446 783 m 236 1000 l 236 1074 l 561 1074 l 561 1000 l 236 1000 z "},"ȱ":{"ha":790,"x_min":76,"x_max":714,"o":"m 396 -21 q 156 74 236 -21 q 76 344 76 168 q 158 615 76 524 q 393 706 239 706 q 635 609 556 706 q 714 344 714 513 q 631 76 714 172 q 396 -21 547 -21 m 394 71 q 614 344 614 71 q 563 544 614 475 q 394 614 511 614 q 176 344 176 614 q 394 71 176 71 m 343 783 l 343 893 l 453 893 l 453 783 l 343 783 m 236 1000 l 236 1074 l 561 1074 l 561 1000 l 236 1000 z "},"ọ":{"ha":790,"x_min":76,"x_max":714,"o":"m 396 -21 q 156 74 236 -21 q 76 344 76 168 q 158 615 76 524 q 393 706 239 706 q 635 609 556 706 q 714 344 714 513 q 631 76 714 172 q 396 -21 547 -21 m 394 71 q 614 344 614 71 q 563 544 614 475 q 394 614 511 614 q 176 344 176 614 q 394 71 176 71 m 343 -179 l 343 -69 l 453 -69 l 453 -179 l 343 -179 z "},"ò":{"ha":790,"x_min":76,"x_max":714,"o":"m 396 -21 q 156 74 236 -21 q 76 344 76 168 q 158 615 76 524 q 393 706 239 706 q 635 609 556 706 q 714 344 714 513 q 631 76 714 172 q 396 -21 547 -21 m 394 71 q 614 344 614 71 q 563 544 614 475 q 394 614 511 614 q 176 344 176 614 q 394 71 176 71 m 368 783 l 253 943 l 354 943 l 433 783 l 368 783 z "},"ỏ":{"ha":790,"x_min":76,"x_max":714,"o":"m 396 -21 q 156 74 236 -21 q 76 344 76 168 q 158 615 76 524 q 393 706 239 706 q 635 609 556 706 q 714 344 714 513 q 631 76 714 172 q 396 -21 547 -21 m 394 71 q 614 344 614 71 q 563 544 614 475 q 394 614 511 614 q 176 344 176 614 q 394 71 176 71 m 364 853 q 403 864 390 854 q 417 886 417 874 q 399 913 417 904 q 350 922 382 922 q 313 919 335 922 l 313 979 q 356 983 333 983 q 446 961 408 983 q 483 889 483 939 q 465 841 483 861 q 410 814 447 821 l 410 781 l 364 781 l 364 853 z "},"ơ":{"ha":790,"x_min":76,"x_max":714,"o":"m 592 649 q 683 526 653 604 q 714 344 714 447 q 631 76 714 172 q 396 -21 547 -21 q 156 74 236 -21 q 76 344 76 168 q 158 615 76 524 q 393 706 239 706 q 496 693 450 706 q 562 724 533 696 q 590 788 590 751 l 590 824 l 665 824 l 665 785 q 645 706 665 740 q 592 649 625 671 m 394 71 q 614 344 614 71 q 563 544 614 475 q 394 614 511 614 q 176 344 176 614 q 394 71 176 71 z "},"ớ":{"ha":790,"x_min":76,"x_max":714,"o":"m 592 649 q 683 526 653 604 q 714 344 714 447 q 631 76 714 172 q 396 -21 547 -21 q 156 74 236 -21 q 76 344 76 168 q 158 615 76 524 q 393 706 239 706 q 496 693 450 706 q 562 724 533 696 q 590 788 590 751 l 590 824 l 665 824 l 665 785 q 645 706 665 740 q 592 649 625 671 m 394 71 q 614 344 614 71 q 563 544 614 475 q 394 614 511 614 q 176 344 176 614 q 394 71 176 71 m 363 783 l 442 943 l 544 943 l 429 783 l 363 783 z "},"ợ":{"ha":790,"x_min":76,"x_max":714,"o":"m 592 649 q 683 526 653 604 q 714 344 714 447 q 631 76 714 172 q 396 -21 547 -21 q 156 74 236 -21 q 76 344 76 168 q 158 615 76 524 q 393 706 239 706 q 496 693 450 706 q 562 724 533 696 q 590 788 590 751 l 590 824 l 665 824 l 665 785 q 645 706 665 740 q 592 649 625 671 m 394 71 q 614 344 614 71 q 563 544 614 475 q 394 614 511 614 q 176 344 176 614 q 394 71 176 71 m 343 -179 l 343 -69 l 453 -69 l 453 -179 l 343 -179 z "},"ờ":{"ha":790,"x_min":76,"x_max":714,"o":"m 592 649 q 683 526 653 604 q 714 344 714 447 q 631 76 714 172 q 396 -21 547 -21 q 156 74 236 -21 q 76 344 76 168 q 158 615 76 524 q 393 706 239 706 q 496 693 450 706 q 562 724 533 696 q 590 788 590 751 l 590 824 l 665 824 l 665 785 q 645 706 665 740 q 592 649 625 671 m 394 71 q 614 344 614 71 q 563 544 614 475 q 394 614 511 614 q 176 344 176 614 q 394 71 176 71 m 368 783 l 253 943 l 354 943 l 433 783 l 368 783 z "},"ở":{"ha":790,"x_min":76,"x_max":714,"o":"m 592 649 q 683 526 653 604 q 714 344 714 447 q 631 76 714 172 q 396 -21 547 -21 q 156 74 236 -21 q 76 344 76 168 q 158 615 76 524 q 393 706 239 706 q 496 693 450 706 q 562 724 533 696 q 590 788 590 751 l 590 824 l 665 824 l 665 785 q 645 706 665 740 q 592 649 625 671 m 394 71 q 614 344 614 71 q 563 544 614 475 q 394 614 511 614 q 176 344 176 614 q 394 71 176 71 m 364 853 q 403 864 390 854 q 417 886 417 874 q 399 913 417 904 q 350 922 382 922 q 313 919 335 922 l 313 979 q 356 983 333 983 q 446 961 408 983 q 483 889 483 939 q 465 841 483 861 q 410 814 447 821 l 410 781 l 364 781 l 364 853 z "},"ỡ":{"ha":790,"x_min":76,"x_max":714,"o":"m 592 649 q 683 526 653 604 q 714 344 714 447 q 631 76 714 172 q 396 -21 547 -21 q 156 74 236 -21 q 76 344 76 168 q 158 615 76 524 q 393 706 239 706 q 496 693 450 706 q 562 724 533 696 q 590 788 590 751 l 590 824 l 665 824 l 665 785 q 645 706 665 740 q 592 649 625 671 m 394 71 q 614 344 614 71 q 563 544 614 475 q 394 614 511 614 q 176 344 176 614 q 394 71 176 71 m 179 776 q 174 818 174 797 q 206 901 174 869 q 281 932 239 932 q 340 919 314 932 q 400 881 365 906 q 438 853 422 863 q 469 844 453 844 q 496 856 486 844 q 506 888 506 867 q 503 911 506 894 l 575 911 q 578 882 578 892 q 545 799 578 831 q 458 767 513 767 q 401 781 428 767 q 344 818 375 794 q 308 844 322 836 q 279 853 293 853 q 251 840 263 853 q 240 801 240 826 q 243 776 240 796 l 179 776 z "},"ő":{"ha":790,"x_min":76,"x_max":714,"o":"m 396 -21 q 156 74 236 -21 q 76 344 76 168 q 158 615 76 524 q 393 706 239 706 q 635 609 556 706 q 714 344 714 513 q 631 76 714 172 q 396 -21 547 -21 m 394 71 q 614 344 614 71 q 563 544 614 475 q 394 614 511 614 q 176 344 176 614 q 394 71 176 71 m 279 783 l 358 943 l 461 943 l 346 783 l 279 783 m 446 783 l 525 943 l 628 943 l 513 783 l 446 783 z "},"ȏ":{"ha":790,"x_min":76,"x_max":714,"o":"m 396 -21 q 156 74 236 -21 q 76 344 76 168 q 158 615 76 524 q 393 706 239 706 q 635 609 556 706 q 714 344 714 513 q 631 76 714 172 q 396 -21 547 -21 m 394 71 q 614 344 614 71 q 563 544 614 475 q 394 614 511 614 q 176 344 176 614 q 394 71 176 71 m 399 901 q 521 860 469 901 q 586 743 572 819 l 514 743 q 399 829 479 829 q 283 743 315 829 l 211 743 q 278 860 228 819 q 399 901 329 901 z "},"ō":{"ha":790,"x_min":76,"x_max":714,"o":"m 396 -21 q 156 74 236 -21 q 76 344 76 168 q 158 615 76 524 q 393 706 239 706 q 635 609 556 706 q 714 344 714 513 q 631 76 714 172 q 396 -21 547 -21 m 394 71 q 614 344 614 71 q 563 544 614 475 q 394 614 511 614 q 176 344 176 614 q 394 71 176 71 m 236 800 l 236 874 l 561 874 l 561 800 l 236 800 z "},"ṓ":{"ha":790,"x_min":76,"x_max":714,"o":"m 396 -21 q 156 74 236 -21 q 76 344 76 168 q 158 615 76 524 q 393 706 239 706 q 635 609 556 706 q 714 344 714 513 q 631 76 714 172 q 396 -21 547 -21 m 394 71 q 614 344 614 71 q 563 544 614 475 q 394 614 511 614 q 176 344 176 614 q 394 71 176 71 m 236 800 l 236 874 l 561 874 l 561 800 l 236 800 m 363 964 l 442 1124 l 544 1124 l 429 964 l 363 964 z "},"ṑ":{"ha":790,"x_min":76,"x_max":714,"o":"m 396 -21 q 156 74 236 -21 q 76 344 76 168 q 158 615 76 524 q 393 706 239 706 q 635 609 556 706 q 714 344 714 513 q 631 76 714 172 q 396 -21 547 -21 m 394 71 q 614 344 614 71 q 563 544 614 475 q 394 614 511 614 q 176 344 176 614 q 394 71 176 71 m 236 800 l 236 874 l 561 874 l 561 800 l 236 800 m 368 964 l 253 1124 l 354 1124 l 433 964 l 368 964 z "},"ǫ":{"ha":790,"x_min":76,"x_max":714,"o":"m 714 344 q 665 125 714 214 q 522 0 615 36 l 528 0 q 435 -58 469 -28 q 400 -118 400 -89 q 447 -165 400 -165 q 524 -128 486 -165 l 524 -215 q 440 -240 479 -240 q 351 -210 383 -240 q 318 -125 318 -179 q 333 -70 318 -99 q 375 -21 347 -42 q 151 79 225 -15 q 76 344 76 174 q 158 615 76 524 q 393 706 239 706 q 635 609 556 706 q 714 344 714 513 m 394 71 q 614 344 614 71 q 563 544 614 475 q 394 614 511 614 q 176 344 176 614 q 394 71 176 71 z "},"ø":{"ha":797,"x_min":51,"x_max":744,"o":"m 653 585 q 714 344 714 494 q 631 76 714 172 q 396 -21 547 -21 q 193 39 269 -21 l 160 0 l 51 0 l 136 100 q 76 344 76 190 q 158 615 76 524 q 393 706 239 706 q 596 646 519 706 l 636 693 l 744 693 l 653 585 m 176 344 q 204 182 176 246 l 535 572 q 394 614 482 614 q 176 344 176 614 m 614 344 q 586 506 614 444 l 256 114 q 394 71 307 71 q 614 344 614 71 z "},"ǿ":{"ha":797,"x_min":51,"x_max":744,"o":"m 653 585 q 714 344 714 494 q 631 76 714 172 q 396 -21 547 -21 q 193 39 269 -21 l 160 0 l 51 0 l 136 100 q 76 344 76 190 q 158 615 76 524 q 393 706 239 706 q 596 646 519 706 l 636 693 l 744 693 l 653 585 m 176 344 q 204 182 176 246 l 535 572 q 394 614 482 614 q 176 344 176 614 m 614 344 q 586 506 614 444 l 256 114 q 394 71 307 71 q 614 344 614 71 m 363 783 l 442 943 l 544 943 l 429 783 l 363 783 z "},"õ":{"ha":790,"x_min":76,"x_max":714,"o":"m 396 -21 q 156 74 236 -21 q 76 344 76 168 q 158 615 76 524 q 393 706 239 706 q 635 609 556 706 q 714 344 714 513 q 631 76 714 172 q 396 -21 547 -21 m 394 71 q 614 344 614 71 q 563 544 614 475 q 394 614 511 614 q 176 344 176 614 q 394 71 176 71 m 203 756 q 197 797 197 776 q 230 880 197 849 q 304 911 263 911 q 363 898 338 911 q 424 860 389 885 q 461 833 446 842 q 493 824 476 824 q 519 835 510 824 q 529 867 529 846 q 526 890 529 874 l 599 890 q 601 861 601 871 q 569 778 601 810 q 482 746 536 746 q 425 760 451 746 q 368 797 399 774 q 331 824 346 815 q 303 832 317 832 q 275 819 286 832 q 264 781 264 806 q 267 756 264 775 l 203 756 z "},"ṍ":{"ha":790,"x_min":76,"x_max":714,"o":"m 396 -21 q 156 74 236 -21 q 76 344 76 168 q 158 615 76 524 q 393 706 239 706 q 635 609 556 706 q 714 344 714 513 q 631 76 714 172 q 396 -21 547 -21 m 394 71 q 614 344 614 71 q 563 544 614 475 q 394 614 511 614 q 176 344 176 614 q 394 71 176 71 m 203 756 q 197 797 197 776 q 230 880 197 849 q 304 911 263 911 q 363 898 338 911 q 424 860 389 885 q 461 833 446 842 q 493 824 476 824 q 519 835 510 824 q 529 867 529 846 q 526 890 529 874 l 599 890 q 601 861 601 871 q 569 778 601 810 q 482 746 536 746 q 425 760 451 746 q 368 797 399 774 q 331 824 346 815 q 303 832 317 832 q 275 819 286 832 q 264 781 264 806 q 267 756 264 775 l 203 756 m 363 1004 l 442 1164 l 544 1164 l 429 1004 l 363 1004 z "},"ṏ":{"ha":790,"x_min":76,"x_max":714,"o":"m 396 -21 q 156 74 236 -21 q 76 344 76 168 q 158 615 76 524 q 393 706 239 706 q 635 609 556 706 q 714 344 714 513 q 631 76 714 172 q 396 -21 547 -21 m 394 71 q 614 344 614 71 q 563 544 614 475 q 394 614 511 614 q 176 344 176 614 q 394 71 176 71 m 203 756 q 197 797 197 776 q 230 880 197 849 q 304 911 263 911 q 363 898 338 911 q 424 860 389 885 q 461 833 446 842 q 493 824 476 824 q 519 835 510 824 q 529 867 529 846 q 526 890 529 874 l 599 890 q 601 861 601 871 q 569 778 601 810 q 482 746 536 746 q 425 760 451 746 q 368 797 399 774 q 331 824 346 815 q 303 832 317 832 q 275 819 286 832 q 264 781 264 806 q 267 756 264 775 l 203 756 m 240 1004 l 240 1114 l 350 1114 l 350 1004 l 240 1004 m 446 1004 l 446 1114 l 556 1114 l 556 1004 l 446 1004 z "},"ȭ":{"ha":790,"x_min":76,"x_max":714,"o":"m 396 -21 q 156 74 236 -21 q 76 344 76 168 q 158 615 76 524 q 393 706 239 706 q 635 609 556 706 q 714 344 714 513 q 631 76 714 172 q 396 -21 547 -21 m 394 71 q 614 344 614 71 q 563 544 614 475 q 394 614 511 614 q 176 344 176 614 q 394 71 176 71 m 203 756 q 197 797 197 776 q 230 880 197 849 q 304 911 263 911 q 363 898 338 911 q 424 860 389 885 q 461 833 446 842 q 493 824 476 824 q 519 835 510 824 q 529 867 529 846 q 526 890 529 874 l 599 890 q 601 861 601 871 q 569 778 601 810 q 482 746 536 746 q 425 760 451 746 q 368 797 399 774 q 331 824 346 815 q 303 832 317 832 q 275 819 286 832 q 264 781 264 806 q 267 756 264 775 l 203 756 m 236 1021 l 236 1094 l 561 1094 l 561 1021 l 236 1021 z "},"œ":{"ha":1300,"x_min":76,"x_max":1226,"o":"m 921 706 q 1153 603 1079 706 q 1224 329 1226 500 l 718 329 q 776 138 718 204 q 943 71 835 71 q 1181 131 1082 71 l 1181 28 q 938 -21 1079 -21 q 774 16 843 -21 q 665 125 704 53 q 558 17 626 54 q 396 -21 489 -21 q 156 74 236 -21 q 76 344 76 168 q 158 615 76 524 q 393 706 239 706 q 664 567 585 706 q 767 671 701 636 q 921 706 832 706 m 394 71 q 614 344 614 71 q 563 544 614 475 q 394 614 511 614 q 176 344 176 614 q 394 71 176 71 m 921 614 q 782 572 829 614 q 722 421 735 529 l 1118 421 q 1063 566 1111 518 q 921 614 1015 614 z "},"p":{"ha":790,"x_min":111,"x_max":714,"o":"m 392 706 q 622 616 531 706 q 714 329 714 526 q 628 74 714 167 q 383 -19 542 -19 q 300 -8 347 -19 q 211 21 253 3 l 211 -301 l 111 -301 l 111 568 q 195 674 111 644 q 392 706 279 704 m 383 72 q 551 142 493 72 q 608 329 608 211 q 561 537 608 460 q 390 614 514 614 q 263 597 315 614 q 211 550 211 579 l 211 121 q 383 72 294 72 z "},"þ":{"ha":790,"x_min":111,"x_max":714,"o":"m 392 706 q 622 616 531 706 q 714 329 714 526 q 628 74 714 167 q 383 -19 542 -19 q 300 -8 347 -19 q 211 21 253 3 l 211 -278 l 111 -278 l 111 957 l 211 957 l 211 679 q 392 706 286 706 m 383 72 q 551 142 493 72 q 608 329 608 211 q 561 537 608 460 q 390 614 514 614 q 263 597 315 614 q 211 550 211 579 l 211 121 q 383 72 294 72 z "},"q":{"ha":790,"x_min":76,"x_max":679,"o":"m 424 706 q 608 668 536 706 q 679 540 679 631 l 679 -301 l 579 -301 l 579 21 q 490 -8 538 3 q 407 -19 443 -19 q 163 74 249 -19 q 76 329 76 167 q 176 624 78 542 q 424 706 275 706 m 182 329 q 240 142 182 211 q 407 72 297 72 q 579 121 496 72 l 579 540 q 529 595 579 576 q 419 614 479 614 q 232 538 282 614 q 182 329 182 461 z "},"r":{"ha":524,"x_min":111,"x_max":475,"o":"m 111 638 q 251 683 164 660 q 431 706 338 706 q 475 697 444 706 l 475 608 q 408 613 442 613 q 324 607 363 613 q 211 589 285 601 l 211 0 l 111 0 l 111 638 z "},"ŕ":{"ha":524,"x_min":111,"x_max":475,"o":"m 111 638 q 251 683 164 660 q 431 706 338 706 q 475 697 444 706 l 475 608 q 408 613 442 613 q 324 607 363 613 q 211 589 285 601 l 211 0 l 111 0 l 111 638 m 215 783 l 294 943 l 397 943 l 282 783 l 215 783 z "},"ř":{"ha":524,"x_min":111,"x_max":475,"o":"m 111 638 q 251 683 164 660 q 431 706 338 706 q 475 697 444 706 l 475 608 q 408 613 442 613 q 324 607 363 613 q 211 589 285 601 l 211 0 l 111 0 l 111 638 m 224 783 l 111 950 l 189 950 l 251 853 l 314 950 l 392 950 l 281 783 l 224 783 z "},"ŗ":{"ha":524,"x_min":67,"x_max":475,"o":"m 111 638 q 251 683 164 660 q 431 706 338 706 q 475 697 444 706 l 475 608 q 408 613 442 613 q 324 607 363 613 q 211 589 285 601 l 211 0 l 111 0 l 111 638 m 67 -193 q 111 -145 100 -179 q 122 -68 122 -111 l 206 -68 q 164 -207 206 -158 q 67 -268 122 -256 l 67 -193 z "},"ȑ":{"ha":524,"x_min":50,"x_max":475,"o":"m 111 638 q 251 683 164 660 q 431 706 338 706 q 475 697 444 706 l 475 608 q 408 613 442 613 q 324 607 363 613 q 211 589 285 601 l 211 0 l 111 0 l 111 638 m 165 783 l 50 943 l 151 943 l 231 783 l 165 783 m 351 783 l 236 943 l 338 943 l 417 783 l 351 783 z "},"ȓ":{"ha":524,"x_min":64,"x_max":475,"o":"m 111 638 q 251 683 164 660 q 431 706 338 706 q 475 697 444 706 l 475 608 q 408 613 442 613 q 324 607 363 613 q 211 589 285 601 l 211 0 l 111 0 l 111 638 m 251 901 q 374 860 322 901 q 439 743 425 819 l 367 743 q 251 829 332 829 q 136 743 168 829 l 64 743 q 131 860 81 819 q 251 901 182 901 z "},"ṟ":{"ha":524,"x_min":-26,"x_max":475,"o":"m 111 638 q 251 683 164 660 q 431 706 338 706 q 475 697 444 706 l 475 608 q 408 613 442 613 q 324 607 363 613 q 211 589 285 601 l 211 0 l 111 0 l 111 638 m -26 -165 l -26 -92 l 299 -92 l 299 -165 l -26 -165 z "},"s":{"ha":633,"x_min":76,"x_max":557,"o":"m 307 -21 q 186 -7 236 -21 q 76 38 136 7 l 76 143 q 192 87 147 103 q 300 71 238 71 q 413 101 369 71 q 457 181 457 132 q 431 245 457 224 q 347 289 404 267 l 311 304 q 188 344 232 326 q 112 401 144 363 q 79 507 79 440 q 114 618 79 574 q 204 684 149 663 q 321 706 260 706 q 415 693 376 706 q 519 651 453 681 l 519 551 q 413 600 450 586 q 326 614 376 614 q 222 590 265 614 q 179 521 179 565 q 201 462 179 485 q 255 426 222 439 q 343 397 288 413 q 453 357 413 375 q 526 299 494 339 q 557 193 557 260 q 521 74 557 122 q 427 3 485 26 q 307 -21 369 -21 z "},"ś":{"ha":633,"x_min":76,"x_max":557,"o":"m 307 -21 q 186 -7 236 -21 q 76 38 136 7 l 76 143 q 192 87 147 103 q 300 71 238 71 q 413 101 369 71 q 457 181 457 132 q 431 245 457 224 q 347 289 404 267 l 311 304 q 188 344 232 326 q 112 401 144 363 q 79 507 79 440 q 114 618 79 574 q 204 684 149 663 q 321 706 260 706 q 415 693 376 706 q 519 651 453 681 l 519 551 q 413 600 450 586 q 326 614 376 614 q 222 590 265 614 q 179 521 179 565 q 201 462 179 485 q 255 426 222 439 q 343 397 288 413 q 453 357 413 375 q 526 299 494 339 q 557 193 557 260 q 521 74 557 122 q 427 3 485 26 q 307 -21 369 -21 m 288 783 l 367 943 l 469 943 l 354 783 l 288 783 z "},"ṥ":{"ha":633,"x_min":76,"x_max":557,"o":"m 307 -21 q 186 -7 236 -21 q 76 38 136 7 l 76 143 q 192 87 147 103 q 300 71 238 71 q 413 101 369 71 q 457 181 457 132 q 431 245 457 224 q 347 289 404 267 l 311 304 q 188 344 232 326 q 112 401 144 363 q 79 507 79 440 q 114 618 79 574 q 204 684 149 663 q 321 706 260 706 q 415 693 376 706 q 519 651 453 681 l 519 551 q 413 600 450 586 q 326 614 376 614 q 222 590 265 614 q 179 521 179 565 q 201 462 179 485 q 255 426 222 439 q 343 397 288 413 q 453 357 413 375 q 526 299 494 339 q 557 193 557 260 q 521 74 557 122 q 427 3 485 26 q 307 -21 369 -21 m 288 783 l 367 943 l 469 943 l 354 783 l 288 783 m 324 1033 l 324 1143 l 433 1143 l 433 1033 l 324 1033 z "},"š":{"ha":633,"x_min":76,"x_max":557,"o":"m 307 -21 q 186 -7 236 -21 q 76 38 136 7 l 76 143 q 192 87 147 103 q 300 71 238 71 q 413 101 369 71 q 457 181 457 132 q 431 245 457 224 q 347 289 404 267 l 311 304 q 188 344 232 326 q 112 401 144 363 q 79 507 79 440 q 114 618 79 574 q 204 684 149 663 q 321 706 260 706 q 415 693 376 706 q 519 651 453 681 l 519 551 q 413 600 450 586 q 326 614 376 614 q 222 590 265 614 q 179 521 179 565 q 201 462 179 485 q 255 426 222 439 q 343 397 288 413 q 453 357 413 375 q 526 299 494 339 q 557 193 557 260 q 521 74 557 122 q 427 3 485 26 q 307 -21 369 -21 m 296 783 l 183 950 l 261 950 l 324 853 l 386 950 l 464 950 l 353 783 l 296 783 z "},"ṧ":{"ha":633,"x_min":76,"x_max":557,"o":"m 307 -21 q 186 -7 236 -21 q 76 38 136 7 l 76 143 q 192 87 147 103 q 300 71 238 71 q 413 101 369 71 q 457 181 457 132 q 431 245 457 224 q 347 289 404 267 l 311 304 q 188 344 232 326 q 112 401 144 363 q 79 507 79 440 q 114 618 79 574 q 204 684 149 663 q 321 706 260 706 q 415 693 376 706 q 519 651 453 681 l 519 551 q 413 600 450 586 q 326 614 376 614 q 222 590 265 614 q 179 521 179 565 q 201 462 179 485 q 255 426 222 439 q 343 397 288 413 q 453 357 413 375 q 526 299 494 339 q 557 193 557 260 q 521 74 557 122 q 427 3 485 26 q 307 -21 369 -21 m 296 783 l 183 950 l 261 950 l 324 853 l 386 950 l 464 950 l 353 783 l 296 783 m 268 1040 l 268 1150 l 378 1150 l 378 1040 l 268 1040 z "},"ş":{"ha":633,"x_min":76,"x_max":557,"o":"m 557 193 q 505 56 557 108 q 374 -14 453 3 l 290 -167 l 185 -167 l 289 -21 q 179 -6 226 -19 q 76 38 132 8 l 76 143 q 192 87 147 103 q 300 71 238 71 q 413 101 369 71 q 457 181 457 132 q 431 245 457 224 q 347 289 404 267 l 311 304 q 188 344 232 326 q 112 401 144 363 q 79 507 79 440 q 114 618 79 574 q 204 684 149 663 q 321 706 260 706 q 415 693 376 706 q 519 651 453 681 l 519 551 q 413 600 450 586 q 326 614 376 614 q 222 590 265 614 q 179 521 179 565 q 201 462 179 485 q 255 426 222 439 q 343 397 288 413 q 453 357 413 375 q 526 299 494 339 q 557 193 557 260 z "},"ŝ":{"ha":633,"x_min":76,"x_max":557,"o":"m 307 -21 q 186 -7 236 -21 q 76 38 136 7 l 76 143 q 192 87 147 103 q 300 71 238 71 q 413 101 369 71 q 457 181 457 132 q 431 245 457 224 q 347 289 404 267 l 311 304 q 188 344 232 326 q 112 401 144 363 q 79 507 79 440 q 114 618 79 574 q 204 684 149 663 q 321 706 260 706 q 415 693 376 706 q 519 651 453 681 l 519 551 q 413 600 450 586 q 326 614 376 614 q 222 590 265 614 q 179 521 179 565 q 201 462 179 485 q 255 426 222 439 q 343 397 288 413 q 453 357 413 375 q 526 299 494 339 q 557 193 557 260 q 521 74 557 122 q 427 3 485 26 q 307 -21 369 -21 m 169 783 l 282 950 l 367 950 l 478 783 l 414 783 l 324 881 l 233 783 l 169 783 z "},"ș":{"ha":633,"x_min":76,"x_max":557,"o":"m 307 -21 q 186 -7 236 -21 q 76 38 136 7 l 76 143 q 192 87 147 103 q 300 71 238 71 q 413 101 369 71 q 457 181 457 132 q 431 245 457 224 q 347 289 404 267 l 311 304 q 188 344 232 326 q 112 401 144 363 q 79 507 79 440 q 114 618 79 574 q 204 684 149 663 q 321 706 260 706 q 415 693 376 706 q 519 651 453 681 l 519 551 q 413 600 450 586 q 326 614 376 614 q 222 590 265 614 q 179 521 179 565 q 201 462 179 485 q 255 426 222 439 q 343 397 288 413 q 453 357 413 375 q 526 299 494 339 q 557 193 557 260 q 521 74 557 122 q 427 3 485 26 q 307 -21 369 -21 m 213 -193 q 257 -145 246 -179 q 268 -68 268 -111 l 351 -68 q 310 -207 351 -158 q 213 -268 268 -256 l 213 -193 z "},"ṡ":{"ha":633,"x_min":76,"x_max":557,"o":"m 307 -21 q 186 -7 236 -21 q 76 38 136 7 l 76 143 q 192 87 147 103 q 300 71 238 71 q 413 101 369 71 q 457 181 457 132 q 431 245 457 224 q 347 289 404 267 l 311 304 q 188 344 232 326 q 112 401 144 363 q 79 507 79 440 q 114 618 79 574 q 204 684 149 663 q 321 706 260 706 q 415 693 376 706 q 519 651 453 681 l 519 551 q 413 600 450 586 q 326 614 376 614 q 222 590 265 614 q 179 521 179 565 q 201 462 179 485 q 255 426 222 439 q 343 397 288 413 q 453 357 413 375 q 526 299 494 339 q 557 193 557 260 q 521 74 557 122 q 427 3 485 26 q 307 -21 369 -21 m 268 783 l 268 893 l 378 893 l 378 783 l 268 783 z "},"ṣ":{"ha":633,"x_min":76,"x_max":557,"o":"m 307 -21 q 186 -7 236 -21 q 76 38 136 7 l 76 143 q 192 87 147 103 q 300 71 238 71 q 413 101 369 71 q 457 181 457 132 q 431 245 457 224 q 347 289 404 267 l 311 304 q 188 344 232 326 q 112 401 144 363 q 79 507 79 440 q 114 618 79 574 q 204 684 149 663 q 321 706 260 706 q 415 693 376 706 q 519 651 453 681 l 519 551 q 413 600 450 586 q 326 614 376 614 q 222 590 265 614 q 179 521 179 565 q 201 462 179 485 q 255 426 222 439 q 343 397 288 413 q 453 357 413 375 q 526 299 494 339 q 557 193 557 260 q 521 74 557 122 q 427 3 485 26 q 307 -21 369 -21 m 226 -179 l 226 -69 l 336 -69 l 336 -179 l 226 -179 z "},"ṩ":{"ha":633,"x_min":76,"x_max":557,"o":"m 307 -21 q 186 -7 236 -21 q 76 38 136 7 l 76 143 q 192 87 147 103 q 300 71 238 71 q 413 101 369 71 q 457 181 457 132 q 431 245 457 224 q 347 289 404 267 l 311 304 q 188 344 232 326 q 112 401 144 363 q 79 507 79 440 q 114 618 79 574 q 204 684 149 663 q 321 706 260 706 q 415 693 376 706 q 519 651 453 681 l 519 551 q 413 600 450 586 q 326 614 376 614 q 222 590 265 614 q 179 521 179 565 q 201 462 179 485 q 255 426 222 439 q 343 397 288 413 q 453 357 413 375 q 526 299 494 339 q 557 193 557 260 q 521 74 557 122 q 427 3 485 26 q 307 -21 369 -21 m 226 -179 l 226 -69 l 336 -69 l 336 -179 l 226 -179 m 268 783 l 268 893 l 378 893 l 378 783 l 268 783 z "},"ß":{"ha":813,"x_min":111,"x_max":736,"o":"m 111 588 q 181 842 111 744 q 397 939 250 939 q 608 881 526 939 q 690 721 690 824 q 653 586 690 640 q 561 514 615 532 q 640 465 600 501 q 708 370 681 428 q 736 240 736 313 q 706 110 736 169 q 613 17 675 51 q 463 -18 551 -18 q 346 0 415 -18 l 346 99 q 467 74 413 74 q 590 118 547 74 q 633 246 633 163 q 601 356 633 308 q 516 430 568 404 q 410 456 464 456 l 410 543 q 544 588 500 543 q 588 708 588 632 q 535 815 588 781 q 400 850 482 850 q 211 597 211 850 l 211 0 l 111 0 l 111 588 z "},"t":{"ha":504,"x_min":35,"x_max":435,"o":"m 329 -11 q 204 35 253 -11 q 156 168 156 82 l 156 601 l 35 601 l 35 693 l 156 693 l 156 889 l 256 889 l 256 693 l 435 693 l 435 601 l 256 601 l 256 200 q 275 111 256 139 q 347 83 294 83 q 435 100 399 83 l 435 6 q 385 -6 415 -1 q 329 -11 356 -11 z "},"ŧ":{"ha":479,"x_min":33,"x_max":433,"o":"m 342 -11 q 214 29 274 -11 q 154 185 154 69 l 154 339 l 51 339 l 51 422 l 154 422 l 154 601 l 33 601 l 33 693 l 154 693 l 154 889 l 254 889 l 254 693 l 433 693 l 433 601 l 254 601 l 254 422 l 413 422 l 413 339 l 254 339 l 254 179 q 276 105 254 126 q 354 83 299 83 q 433 100 400 83 l 433 6 q 342 -11 388 -11 z "},"ť":{"ha":525,"x_min":35,"x_max":563,"o":"m 329 -11 q 204 35 253 -11 q 156 168 156 82 l 156 601 l 35 601 l 35 693 l 156 693 l 156 889 l 256 889 l 256 693 l 435 693 l 435 601 l 256 601 l 256 200 q 275 111 256 139 q 347 83 294 83 q 435 100 399 83 l 435 6 q 385 -6 415 -1 q 329 -11 356 -11 m 346 756 l 449 1028 l 563 1028 l 446 756 l 346 756 z "},"ţ":{"ha":504,"x_min":35,"x_max":435,"o":"m 256 601 l 256 200 q 275 111 256 139 q 347 83 294 83 q 435 100 399 83 l 435 6 q 335 -11 399 -8 l 250 -167 l 144 -167 l 258 -7 l 286 -7 q 191 51 226 6 q 156 168 156 96 l 156 601 l 35 601 l 35 693 l 156 693 l 156 889 l 256 889 l 256 693 l 435 693 l 435 601 l 256 601 z "},"ẗ":{"ha":504,"x_min":35,"x_max":435,"o":"m 329 -11 q 204 35 253 -11 q 156 168 156 82 l 156 601 l 35 601 l 35 693 l 156 693 l 156 889 l 256 889 l 256 693 l 435 693 l 435 601 l 256 601 l 256 200 q 275 111 256 139 q 347 83 294 83 q 435 100 399 83 l 435 6 q 385 -6 415 -1 q 329 -11 356 -11 m 42 978 l 42 1088 l 151 1088 l 151 978 l 42 978 m 247 978 l 247 1088 l 357 1088 l 357 978 l 247 978 z "},"ṭ":{"ha":504,"x_min":35,"x_max":435,"o":"m 329 -11 q 204 35 253 -11 q 156 168 156 82 l 156 601 l 35 601 l 35 693 l 156 693 l 156 889 l 256 889 l 256 693 l 435 693 l 435 601 l 256 601 l 256 200 q 275 111 256 139 q 347 83 294 83 q 435 100 399 83 l 435 6 q 385 -6 415 -1 q 329 -11 356 -11 m 186 -179 l 186 -69 l 296 -69 l 296 -179 l 186 -179 z "},"ṯ":{"ha":504,"x_min":35,"x_max":435,"o":"m 329 -11 q 204 35 253 -11 q 156 168 156 82 l 156 601 l 35 601 l 35 693 l 156 693 l 156 889 l 256 889 l 256 693 l 435 693 l 435 601 l 256 601 l 256 200 q 275 111 256 139 q 347 83 294 83 q 435 100 399 83 l 435 6 q 385 -6 415 -1 q 329 -11 356 -11 m 79 -165 l 79 -92 l 404 -92 l 404 -165 l 79 -165 z "},"u":{"ha":803,"x_min":111,"x_max":692,"o":"m 401 -21 q 187 51 263 -21 q 111 254 111 122 l 111 693 l 211 693 l 211 276 q 257 122 211 171 q 401 72 303 72 q 545 122 499 72 q 592 276 592 171 l 592 693 l 692 693 l 692 254 q 616 51 692 122 q 401 -21 540 -21 z "},"ú":{"ha":803,"x_min":111,"x_max":692,"o":"m 401 -21 q 187 51 263 -21 q 111 254 111 122 l 111 693 l 211 693 l 211 276 q 257 122 211 171 q 401 72 303 72 q 545 122 499 72 q 592 276 592 171 l 592 693 l 692 693 l 692 254 q 616 51 692 122 q 401 -21 540 -21 m 365 783 l 444 943 l 547 943 l 432 783 l 365 783 z "},"ŭ":{"ha":803,"x_min":111,"x_max":692,"o":"m 401 -21 q 187 51 263 -21 q 111 254 111 122 l 111 693 l 211 693 l 211 276 q 257 122 211 171 q 401 72 303 72 q 545 122 499 72 q 592 276 592 171 l 592 693 l 692 693 l 692 254 q 616 51 692 122 q 401 -21 540 -21 m 401 757 q 281 798 332 757 q 214 915 231 839 l 286 915 q 401 829 318 829 q 517 915 482 829 l 589 915 q 524 798 575 839 q 401 757 472 757 z "},"ǔ":{"ha":803,"x_min":111,"x_max":692,"o":"m 401 -21 q 187 51 263 -21 q 111 254 111 122 l 111 693 l 211 693 l 211 276 q 257 122 211 171 q 401 72 303 72 q 545 122 499 72 q 592 276 592 171 l 592 693 l 692 693 l 692 254 q 616 51 692 122 q 401 -21 540 -21 m 374 783 l 261 950 l 339 950 l 401 853 l 464 950 l 542 950 l 431 783 l 374 783 z "},"û":{"ha":803,"x_min":111,"x_max":692,"o":"m 401 -21 q 187 51 263 -21 q 111 254 111 122 l 111 693 l 211 693 l 211 276 q 257 122 211 171 q 401 72 303 72 q 545 122 499 72 q 592 276 592 171 l 592 693 l 692 693 l 692 254 q 616 51 692 122 q 401 -21 540 -21 m 247 783 l 360 950 l 444 950 l 556 783 l 492 783 l 401 881 l 311 783 l 247 783 z "},"ȕ":{"ha":803,"x_min":111,"x_max":692,"o":"m 401 -21 q 187 51 263 -21 q 111 254 111 122 l 111 693 l 211 693 l 211 276 q 257 122 211 171 q 401 72 303 72 q 545 122 499 72 q 592 276 592 171 l 592 693 l 692 693 l 692 254 q 616 51 692 122 q 401 -21 540 -21 m 315 783 l 200 943 l 301 943 l 381 783 l 315 783 m 501 783 l 386 943 l 488 943 l 567 783 l 501 783 z "},"ü":{"ha":803,"x_min":111,"x_max":692,"o":"m 401 -21 q 187 51 263 -21 q 111 254 111 122 l 111 693 l 211 693 l 211 276 q 257 122 211 171 q 401 72 303 72 q 545 122 499 72 q 592 276 592 171 l 592 693 l 692 693 l 692 254 q 616 51 692 122 q 401 -21 540 -21 m 243 783 l 243 893 l 353 893 l 353 783 l 243 783 m 449 783 l 449 893 l 558 893 l 558 783 l 449 783 z "},"ụ":{"ha":815,"x_min":114,"x_max":694,"o":"m 404 -12 q 190 67 265 -12 q 114 290 114 146 l 114 693 l 214 693 l 214 286 q 260 131 214 181 q 404 81 307 81 q 548 131 501 81 q 594 286 594 181 l 594 693 l 694 693 l 694 290 q 619 67 694 146 q 404 -12 543 -12 m 350 -178 l 350 -68 l 460 -68 l 460 -178 l 350 -178 z "},"ù":{"ha":803,"x_min":111,"x_max":692,"o":"m 401 -21 q 187 51 263 -21 q 111 254 111 122 l 111 693 l 211 693 l 211 276 q 257 122 211 171 q 401 72 303 72 q 545 122 499 72 q 592 276 592 171 l 592 693 l 692 693 l 692 254 q 616 51 692 122 q 401 -21 540 -21 m 371 783 l 256 943 l 357 943 l 436 783 l 371 783 z "},"ủ":{"ha":815,"x_min":114,"x_max":694,"o":"m 385 856 q 424 867 411 857 q 436 889 436 876 q 419 916 436 907 q 371 925 401 925 q 333 922 353 925 l 333 982 q 376 986 353 986 q 465 964 428 986 q 503 892 503 942 q 485 842 503 863 q 431 817 467 822 l 431 783 l 385 783 l 385 856 m 404 -12 q 190 67 265 -12 q 114 290 114 146 l 114 693 l 214 693 l 214 286 q 260 131 214 181 q 404 81 307 81 q 548 131 501 81 q 594 286 594 181 l 594 693 l 694 693 l 694 290 q 619 67 694 146 q 404 -12 543 -12 z "},"ư":{"ha":803,"x_min":111,"x_max":801,"o":"m 801 824 l 801 785 q 771 688 801 728 q 692 632 740 649 l 692 254 q 616 51 692 122 q 401 -21 540 -21 q 187 51 263 -21 q 111 254 111 122 l 111 693 l 211 693 l 211 276 q 257 122 211 171 q 401 72 303 72 q 545 122 499 72 q 592 276 592 171 l 592 693 l 624 693 q 694 722 663 693 q 726 788 726 750 l 726 824 l 801 824 z "},"ứ":{"ha":803,"x_min":111,"x_max":801,"o":"m 801 824 l 801 785 q 771 688 801 728 q 692 632 740 649 l 692 254 q 616 51 692 122 q 401 -21 540 -21 q 187 51 263 -21 q 111 254 111 122 l 111 693 l 211 693 l 211 276 q 257 122 211 171 q 401 72 303 72 q 545 122 499 72 q 592 276 592 171 l 592 693 l 624 693 q 694 722 663 693 q 726 788 726 750 l 726 824 l 801 824 m 365 783 l 444 943 l 547 943 l 432 783 l 365 783 z "},"ự":{"ha":803,"x_min":111,"x_max":801,"o":"m 801 824 l 801 785 q 771 688 801 728 q 692 632 740 649 l 692 254 q 616 51 692 122 q 401 -21 540 -21 q 187 51 263 -21 q 111 254 111 122 l 111 693 l 211 693 l 211 276 q 257 122 211 171 q 401 72 303 72 q 545 122 499 72 q 592 276 592 171 l 592 693 l 624 693 q 694 722 663 693 q 726 788 726 750 l 726 824 l 801 824 m 346 -179 l 346 -69 l 456 -69 l 456 -179 l 346 -179 z "},"ừ":{"ha":803,"x_min":111,"x_max":801,"o":"m 801 824 l 801 785 q 771 688 801 728 q 692 632 740 649 l 692 254 q 616 51 692 122 q 401 -21 540 -21 q 187 51 263 -21 q 111 254 111 122 l 111 693 l 211 693 l 211 276 q 257 122 211 171 q 401 72 303 72 q 545 122 499 72 q 592 276 592 171 l 592 693 l 624 693 q 694 722 663 693 q 726 788 726 750 l 726 824 l 801 824 m 371 783 l 256 943 l 357 943 l 436 783 l 371 783 z "},"ử":{"ha":803,"x_min":111,"x_max":801,"o":"m 801 824 l 801 785 q 771 688 801 728 q 692 632 740 649 l 692 254 q 616 51 692 122 q 401 -21 540 -21 q 187 51 263 -21 q 111 254 111 122 l 111 693 l 211 693 l 211 276 q 257 122 211 171 q 401 72 303 72 q 545 122 499 72 q 592 276 592 171 l 592 693 l 624 693 q 694 722 663 693 q 726 788 726 750 l 726 824 l 801 824 m 367 853 q 406 864 393 854 q 419 886 419 874 q 402 913 419 904 q 353 922 385 922 q 315 919 338 922 l 315 979 q 358 983 336 983 q 449 961 411 983 q 486 889 486 939 q 468 841 486 861 q 413 814 450 821 l 413 781 l 367 781 l 367 853 z "},"ữ":{"ha":803,"x_min":111,"x_max":801,"o":"m 801 824 l 801 785 q 771 688 801 728 q 692 632 740 649 l 692 254 q 616 51 692 122 q 401 -21 540 -21 q 187 51 263 -21 q 111 254 111 122 l 111 693 l 211 693 l 211 276 q 257 122 211 171 q 401 72 303 72 q 545 122 499 72 q 592 276 592 171 l 592 693 l 624 693 q 694 722 663 693 q 726 788 726 750 l 726 824 l 801 824 m 206 756 q 200 797 200 776 q 233 880 200 849 q 307 911 265 911 q 366 898 340 911 q 426 860 392 885 q 464 833 449 842 q 496 824 479 824 q 522 835 513 824 q 532 867 532 846 q 529 890 532 874 l 601 890 q 604 861 604 871 q 572 778 604 810 q 485 746 539 746 q 428 760 454 746 q 371 797 401 774 q 334 824 349 815 q 306 832 319 832 q 278 819 289 832 q 267 781 267 806 q 269 756 267 775 l 206 756 z "},"ű":{"ha":803,"x_min":111,"x_max":692,"o":"m 401 -21 q 187 51 263 -21 q 111 254 111 122 l 111 693 l 211 693 l 211 276 q 257 122 211 171 q 401 72 303 72 q 545 122 499 72 q 592 276 592 171 l 592 693 l 692 693 l 692 254 q 616 51 692 122 q 401 -21 540 -21 m 282 783 l 361 943 l 464 943 l 349 783 l 282 783 m 449 783 l 528 943 l 631 943 l 515 783 l 449 783 z "},"ȗ":{"ha":803,"x_min":111,"x_max":692,"o":"m 401 -21 q 187 51 263 -21 q 111 254 111 122 l 111 693 l 211 693 l 211 276 q 257 122 211 171 q 401 72 303 72 q 545 122 499 72 q 592 276 592 171 l 592 693 l 692 693 l 692 254 q 616 51 692 122 q 401 -21 540 -21 m 401 901 q 524 860 472 901 q 589 743 575 819 l 517 743 q 401 829 482 829 q 286 743 318 829 l 214 743 q 281 860 231 819 q 401 901 332 901 z "},"ū":{"ha":803,"x_min":111,"x_max":692,"o":"m 401 -21 q 187 51 263 -21 q 111 254 111 122 l 111 693 l 211 693 l 211 276 q 257 122 211 171 q 401 72 303 72 q 545 122 499 72 q 592 276 592 171 l 592 693 l 692 693 l 692 254 q 616 51 692 122 q 401 -21 540 -21 m 239 800 l 239 874 l 564 874 l 564 800 l 239 800 z "},"ṻ":{"ha":803,"x_min":111,"x_max":692,"o":"m 401 -21 q 187 51 263 -21 q 111 254 111 122 l 111 693 l 211 693 l 211 276 q 257 122 211 171 q 401 72 303 72 q 545 122 499 72 q 592 276 592 171 l 592 693 l 692 693 l 692 254 q 616 51 692 122 q 401 -21 540 -21 m 239 800 l 239 874 l 564 874 l 564 800 l 239 800 m 243 964 l 243 1074 l 353 1074 l 353 964 l 243 964 m 449 964 l 449 1074 l 558 1074 l 558 964 l 449 964 z "},"ț":{"ha":479,"x_min":33,"x_max":433,"o":"m 342 -11 q 214 29 274 -11 q 154 185 154 69 l 154 601 l 33 601 l 33 693 l 154 693 l 154 889 l 254 889 l 254 693 l 433 693 l 433 601 l 254 601 l 254 179 q 276 105 254 126 q 354 83 299 83 q 433 100 400 83 l 433 6 q 342 -11 388 -11 m 215 -193 q 272 -68 272 -169 l 354 -68 q 313 -207 354 -158 q 215 -268 271 -256 l 215 -193 z "},"ų":{"ha":803,"x_min":111,"x_max":692,"o":"m 692 693 l 692 254 q 651 93 692 158 q 533 0 610 28 l 539 0 q 446 -58 481 -28 q 411 -118 411 -89 q 458 -165 411 -165 q 535 -128 497 -165 l 535 -215 q 451 -240 490 -240 q 362 -210 394 -240 q 329 -125 329 -179 q 344 -70 329 -99 q 386 -21 358 -42 q 183 55 254 -17 q 111 254 111 126 l 111 693 l 211 693 l 211 276 q 257 122 211 171 q 401 72 303 72 q 545 122 499 72 q 592 276 592 171 l 592 693 l 692 693 z "},"ů":{"ha":803,"x_min":111,"x_max":692,"o":"m 401 -21 q 187 51 263 -21 q 111 254 111 122 l 111 693 l 211 693 l 211 276 q 257 122 211 171 q 401 72 303 72 q 545 122 499 72 q 592 276 592 171 l 592 693 l 692 693 l 692 254 q 616 51 692 122 q 401 -21 540 -21 m 401 743 q 294 774 326 743 q 261 871 261 804 q 294 968 261 938 q 401 999 326 999 q 508 968 475 999 q 542 871 542 938 q 508 774 542 804 q 401 743 475 743 m 401 803 q 460 818 444 803 q 476 871 476 833 q 460 923 476 908 q 401 938 444 938 q 341 923 357 938 q 325 871 325 908 q 341 818 325 833 q 401 803 357 803 z "},"ũ":{"ha":803,"x_min":111,"x_max":692,"o":"m 401 -21 q 187 51 263 -21 q 111 254 111 122 l 111 693 l 211 693 l 211 276 q 257 122 211 171 q 401 72 303 72 q 545 122 499 72 q 592 276 592 171 l 592 693 l 692 693 l 692 254 q 616 51 692 122 q 401 -21 540 -21 m 206 756 q 200 797 200 776 q 233 880 200 849 q 307 911 265 911 q 366 898 340 911 q 426 860 392 885 q 464 833 449 842 q 496 824 479 824 q 522 835 513 824 q 532 867 532 846 q 529 890 532 874 l 601 890 q 604 861 604 871 q 572 778 604 810 q 485 746 539 746 q 428 760 454 746 q 371 797 401 774 q 334 824 349 815 q 306 832 319 832 q 278 819 289 832 q 267 781 267 806 q 269 756 267 775 l 206 756 z "},"ṹ":{"ha":803,"x_min":111,"x_max":692,"o":"m 401 -21 q 187 51 263 -21 q 111 254 111 122 l 111 693 l 211 693 l 211 276 q 257 122 211 171 q 401 72 303 72 q 545 122 499 72 q 592 276 592 171 l 592 693 l 692 693 l 692 254 q 616 51 692 122 q 401 -21 540 -21 m 206 756 q 200 797 200 776 q 233 880 200 849 q 307 911 265 911 q 366 898 340 911 q 426 860 392 885 q 464 833 449 842 q 496 824 479 824 q 522 835 513 824 q 532 867 532 846 q 529 890 532 874 l 601 890 q 604 861 604 871 q 572 778 604 810 q 485 746 539 746 q 428 760 454 746 q 371 797 401 774 q 334 824 349 815 q 306 832 319 832 q 278 819 289 832 q 267 781 267 806 q 269 756 267 775 l 206 756 m 365 1004 l 444 1164 l 547 1164 l 432 1004 l 365 1004 z "},"v":{"ha":786,"x_min":49,"x_max":738,"o":"m 638 693 l 738 693 l 443 0 l 342 0 l 49 693 l 156 693 l 401 110 l 638 693 z "},"w":{"ha":1106,"x_min":49,"x_max":1057,"o":"m 958 693 l 1057 693 l 826 0 l 725 0 l 551 575 l 381 0 l 279 0 l 49 693 l 154 693 l 335 114 l 504 693 l 600 693 l 775 113 l 958 693 z "},"ẃ":{"ha":1106,"x_min":49,"x_max":1057,"o":"m 958 693 l 1057 693 l 826 0 l 725 0 l 551 575 l 381 0 l 279 0 l 49 693 l 154 693 l 335 114 l 504 693 l 600 693 l 775 113 l 958 693 m 518 783 l 597 943 l 700 943 l 585 783 l 518 783 z "},"ŵ":{"ha":1106,"x_min":49,"x_max":1057,"o":"m 958 693 l 1057 693 l 826 0 l 725 0 l 551 575 l 381 0 l 279 0 l 49 693 l 154 693 l 335 114 l 504 693 l 600 693 l 775 113 l 958 693 m 400 783 l 513 950 l 597 950 l 708 783 l 644 783 l 554 881 l 464 783 l 400 783 z "},"ẅ":{"ha":1106,"x_min":49,"x_max":1057,"o":"m 958 693 l 1057 693 l 826 0 l 725 0 l 551 575 l 381 0 l 279 0 l 49 693 l 154 693 l 335 114 l 504 693 l 600 693 l 775 113 l 958 693 m 396 783 l 396 893 l 506 893 l 506 783 l 396 783 m 601 783 l 601 893 l 711 893 l 711 783 l 601 783 z "},"ẁ":{"ha":1106,"x_min":49,"x_max":1057,"o":"m 958 693 l 1057 693 l 826 0 l 725 0 l 551 575 l 381 0 l 279 0 l 49 693 l 154 693 l 335 114 l 504 693 l 600 693 l 775 113 l 958 693 m 524 783 l 408 943 l 510 943 l 589 783 l 524 783 z "},"x":{"ha":739,"x_min":49,"x_max":690,"o":"m 690 0 l 563 0 l 365 271 l 161 0 l 49 0 l 307 349 l 56 693 l 182 693 l 375 431 l 572 693 l 688 693 l 433 350 l 690 0 z "},"y":{"ha":750,"x_min":49,"x_max":701,"o":"m 701 693 l 404 -68 q 303 -224 361 -179 q 186 -268 246 -268 q 121 -256 153 -268 l 121 -164 q 181 -176 149 -176 q 274 -133 240 -176 q 336 -3 307 -90 l 49 693 l 163 693 l 382 128 l 601 693 l 701 693 z "},"ý":{"ha":750,"x_min":49,"x_max":701,"o":"m 701 693 l 404 -68 q 303 -224 361 -179 q 186 -268 246 -268 q 121 -256 153 -268 l 121 -164 q 181 -176 149 -176 q 274 -133 240 -176 q 336 -3 307 -90 l 49 693 l 163 693 l 382 128 l 601 693 l 701 693 m 346 783 l 425 943 l 528 943 l 413 783 l 346 783 z "},"ŷ":{"ha":750,"x_min":49,"x_max":701,"o":"m 701 693 l 404 -68 q 303 -224 361 -179 q 186 -268 246 -268 q 121 -256 153 -268 l 121 -164 q 181 -176 149 -176 q 274 -133 240 -176 q 336 -3 307 -90 l 49 693 l 163 693 l 382 128 l 601 693 l 701 693 m 228 783 l 340 950 l 425 950 l 536 783 l 472 783 l 382 881 l 292 783 l 228 783 z "},"ÿ":{"ha":750,"x_min":49,"x_max":701,"o":"m 701 693 l 404 -68 q 303 -224 361 -179 q 186 -268 246 -268 q 121 -256 153 -268 l 121 -164 q 181 -176 149 -176 q 274 -133 240 -176 q 336 -3 307 -90 l 49 693 l 163 693 l 382 128 l 601 693 l 701 693 m 224 783 l 224 893 l 333 893 l 333 783 l 224 783 m 429 783 l 429 893 l 539 893 l 539 783 l 429 783 z "},"ẏ":{"ha":750,"x_min":49,"x_max":701,"o":"m 701 693 l 404 -68 q 303 -224 361 -179 q 186 -268 246 -268 q 121 -256 153 -268 l 121 -164 q 181 -176 149 -176 q 274 -133 240 -176 q 336 -3 307 -90 l 49 693 l 163 693 l 382 128 l 601 693 l 701 693 m 326 783 l 326 893 l 436 893 l 436 783 l 326 783 z "},"ỵ":{"ha":750,"x_min":49,"x_max":701,"o":"m 701 693 l 404 -68 q 303 -224 361 -179 q 186 -268 246 -268 q 121 -256 153 -268 l 121 -164 q 181 -176 149 -176 q 274 -133 240 -176 q 336 -3 307 -90 l 49 693 l 163 693 l 382 128 l 601 693 l 701 693 m 497 -179 l 497 -69 l 607 -69 l 607 -179 l 497 -179 z "},"ỳ":{"ha":750,"x_min":49,"x_max":701,"o":"m 701 693 l 404 -68 q 303 -224 361 -179 q 186 -268 246 -268 q 121 -256 153 -268 l 121 -164 q 181 -176 149 -176 q 274 -133 240 -176 q 336 -3 307 -90 l 49 693 l 163 693 l 382 128 l 601 693 l 701 693 m 351 783 l 236 943 l 338 943 l 417 783 l 351 783 z "},"ỷ":{"ha":750,"x_min":49,"x_max":701,"o":"m 701 693 l 404 -68 q 303 -224 361 -179 q 186 -268 246 -268 q 121 -256 153 -268 l 121 -164 q 181 -176 149 -176 q 274 -133 240 -176 q 336 -3 307 -90 l 49 693 l 163 693 l 382 128 l 601 693 l 701 693 m 347 853 q 387 864 374 854 q 400 886 400 874 q 383 913 400 904 q 333 922 365 922 q 296 919 318 922 l 296 979 q 339 983 317 983 q 429 961 392 983 q 467 889 467 939 q 449 841 467 861 q 393 814 431 821 l 393 781 l 347 781 l 347 853 z "},"ȳ":{"ha":750,"x_min":49,"x_max":701,"o":"m 701 693 l 404 -68 q 303 -224 361 -179 q 186 -268 246 -268 q 121 -256 153 -268 l 121 -164 q 181 -176 149 -176 q 274 -133 240 -176 q 336 -3 307 -90 l 49 693 l 163 693 l 382 128 l 601 693 l 701 693 m 219 800 l 219 874 l 544 874 l 544 800 l 219 800 z "},"ỹ":{"ha":750,"x_min":49,"x_max":701,"o":"m 701 693 l 404 -68 q 303 -224 361 -179 q 186 -268 246 -268 q 121 -256 153 -268 l 121 -164 q 181 -176 149 -176 q 274 -133 240 -176 q 336 -3 307 -90 l 49 693 l 163 693 l 382 128 l 601 693 l 701 693 m 186 756 q 181 797 181 776 q 213 880 181 849 q 288 911 246 911 q 347 898 321 911 q 407 860 372 885 q 444 833 429 842 q 476 824 460 824 q 503 835 493 824 q 513 867 513 846 q 510 890 513 874 l 582 890 q 585 861 585 871 q 552 778 585 810 q 465 746 519 746 q 408 760 435 746 q 351 797 382 774 q 315 824 329 815 q 286 832 300 832 q 258 819 269 832 q 247 781 247 806 q 250 756 247 775 l 186 756 z "},"z":{"ha":632,"x_min":63,"x_max":569,"o":"m 569 693 l 569 606 l 178 89 l 569 89 l 569 0 l 63 0 l 63 90 l 450 607 l 72 607 l 72 693 l 569 693 z "},"ź":{"ha":632,"x_min":63,"x_max":569,"o":"m 569 693 l 569 606 l 178 89 l 569 89 l 569 0 l 63 0 l 63 90 l 450 607 l 72 607 l 72 693 l 569 693 m 281 783 l 360 943 l 463 943 l 347 783 l 281 783 z "},"ž":{"ha":632,"x_min":63,"x_max":569,"o":"m 569 693 l 569 606 l 178 89 l 569 89 l 569 0 l 63 0 l 63 90 l 450 607 l 72 607 l 72 693 l 569 693 m 289 783 l 176 950 l 254 950 l 317 853 l 379 950 l 457 950 l 346 783 l 289 783 z "},"ż":{"ha":632,"x_min":63,"x_max":569,"o":"m 569 693 l 569 606 l 178 89 l 569 89 l 569 0 l 63 0 l 63 90 l 450 607 l 72 607 l 72 693 l 569 693 m 261 783 l 261 893 l 371 893 l 371 783 l 261 783 z "},"ﬁ":{"ha":825,"x_min":56,"x_max":714,"o":"m 175 601 l 56 601 l 56 693 l 175 693 l 175 731 q 215 902 175 846 q 302 972 256 958 q 399 985 349 985 q 465 976 436 985 l 465 888 q 415 893 438 893 q 343 885 371 893 q 295 842 315 876 q 275 732 275 807 l 275 693 l 465 693 l 465 601 l 275 601 l 275 0 l 175 0 l 175 601 m 603 817 l 603 926 l 714 926 l 714 817 l 603 817 m 608 0 l 608 693 l 708 693 l 708 0 l 608 0 z "},"ﬂ":{"ha":815,"x_min":56,"x_max":704,"o":"m 175 601 l 56 601 l 56 693 l 175 693 l 175 731 q 215 902 175 846 q 302 972 256 958 q 399 985 349 985 q 465 976 436 985 l 465 888 q 415 893 438 893 q 343 885 371 893 q 295 842 315 876 q 275 732 275 807 l 275 693 l 465 693 l 465 601 l 275 601 l 275 0 l 175 0 l 175 601 m 704 0 l 604 0 l 604 957 l 704 957 l 704 0 z "},"ª":{"ha":547,"x_min":106,"x_max":425,"o":"m 267 540 q 157 567 208 540 q 106 664 106 593 q 148 762 106 733 q 267 790 190 790 q 332 785 303 790 q 369 776 361 779 q 261 883 369 883 q 144 860 204 883 l 144 914 q 264 938 204 938 q 425 778 425 938 l 425 661 q 374 566 425 592 q 267 540 324 540 m 267 592 q 369 663 369 592 l 369 726 q 333 735 361 729 q 278 740 304 740 q 194 726 228 740 q 161 665 161 711 q 267 592 161 592 z "},"º":{"ha":579,"x_min":106,"x_max":467,"o":"m 286 540 q 158 584 210 540 q 106 739 106 628 q 158 895 106 851 q 286 939 210 939 q 415 895 363 939 q 467 739 467 851 q 415 584 467 628 q 286 540 363 540 m 286 592 q 382 626 353 592 q 411 739 411 661 q 382 852 411 817 q 286 888 353 888 q 191 852 221 888 q 161 739 161 817 q 191 626 161 661 q 286 592 221 592 z "},"π":{"ha":864,"x_min":46,"x_max":818,"o":"m 197 0 l 197 601 l 46 601 l 46 693 l 818 693 l 818 601 l 667 601 l 667 0 l 575 0 l 575 601 l 289 601 l 289 0 l 197 0 z "},"₀":{"ha":524,"x_min":64,"x_max":457,"o":"m 261 -217 q 64 39 64 -217 q 261 294 64 294 q 408 230 358 294 q 457 39 457 165 q 408 -152 457 -87 q 261 -217 358 -217 m 261 -147 q 337 -108 301 -147 q 372 39 372 -68 q 337 185 372 146 q 261 225 301 225 q 185 185 221 225 q 149 39 149 146 q 185 -108 149 -68 q 261 -147 221 -147 z "},"₁":{"ha":325,"x_min":74,"x_max":226,"o":"m 165 292 l 226 292 l 226 -207 l 132 -207 l 132 165 l 74 128 l 74 233 l 165 292 z "},"₂":{"ha":456,"x_min":74,"x_max":388,"o":"m 388 -125 l 388 -207 l 74 -207 l 74 -160 q 218 -17 151 -101 q 285 142 285 68 q 260 192 285 172 q 194 213 235 213 q 133 200 164 213 q 79 171 101 188 l 79 260 q 214 297 140 297 q 340 256 299 297 q 381 158 381 215 q 331 15 381 90 q 208 -125 282 -60 l 388 -125 z "},"₃":{"ha":449,"x_min":74,"x_max":390,"o":"m 207 -212 q 74 -182 138 -212 l 74 -96 q 200 -129 135 -129 q 269 -110 242 -129 q 297 -51 297 -92 q 268 1 297 -17 q 197 18 239 18 l 143 18 l 143 97 l 200 97 q 250 113 229 97 q 271 164 271 128 q 249 199 271 185 q 193 213 228 213 q 86 186 136 213 l 86 272 q 200 297 142 297 q 325 258 285 297 q 365 164 365 218 q 351 108 365 131 q 319 74 338 86 q 301 63 301 61 q 332 45 307 58 q 374 4 357 32 q 390 -65 390 -24 q 345 -169 390 -126 q 207 -212 300 -212 z "},"₄":{"ha":456,"x_min":40,"x_max":407,"o":"m 336 -7 l 407 -7 l 407 -85 l 336 -85 l 336 -207 l 240 -207 l 240 -85 l 40 -85 l 40 0 l 276 292 l 336 292 l 336 -7 m 128 -7 l 240 -7 l 240 129 l 128 -7 z "},"₅":{"ha":443,"x_min":76,"x_max":389,"o":"m 231 -212 q 88 -182 143 -212 l 88 -99 q 206 -133 146 -133 q 294 -65 294 -133 q 196 22 294 22 q 155 17 174 22 q 124 6 136 11 q 110 -1 113 0 l 76 61 l 101 292 l 357 292 l 357 210 l 175 210 l 161 90 q 250 103 206 103 q 346 68 303 103 q 389 -54 389 33 q 343 -178 389 -143 q 231 -212 297 -212 z "},"₆":{"ha":469,"x_min":36,"x_max":417,"o":"m 247 -212 q 85 -156 135 -212 q 36 21 36 -99 q 114 242 36 188 q 306 297 192 297 q 378 289 336 297 l 378 210 q 311 219 344 219 q 201 191 256 219 q 135 79 146 163 q 247 111 181 111 q 371 69 325 111 q 417 -44 417 28 q 375 -162 417 -112 q 247 -212 333 -212 m 233 -135 q 301 -112 281 -135 q 321 -44 321 -89 q 294 10 321 -14 q 229 33 267 33 q 172 20 197 33 q 132 -8 147 7 q 164 -108 133 -82 q 233 -135 194 -135 z "},"₇":{"ha":438,"x_min":56,"x_max":394,"o":"m 56 292 l 394 292 l 394 240 l 193 -207 l 106 -207 l 292 210 l 56 210 l 56 292 z "},"₈":{"ha":461,"x_min":60,"x_max":404,"o":"m 232 -212 q 102 -166 144 -212 q 60 -58 60 -119 q 78 9 60 -18 q 121 51 97 36 q 144 63 144 65 q 126 73 144 60 q 92 110 107 86 q 78 169 78 135 q 115 260 78 222 q 232 297 153 297 q 347 260 310 297 q 385 169 385 222 q 371 110 385 133 q 339 73 357 86 q 321 63 321 60 q 344 51 321 65 q 385 9 367 36 q 404 -58 404 -18 q 362 -166 404 -119 q 232 -212 319 -212 m 232 97 q 275 115 260 97 q 290 158 290 133 q 232 217 290 217 q 192 203 210 217 q 175 157 175 189 q 189 115 175 133 q 232 97 203 97 m 232 -133 q 290 -112 272 -133 q 308 -58 308 -92 q 286 5 308 -17 q 232 26 264 26 q 178 5 200 26 q 156 -58 156 -17 q 177 -111 156 -89 q 232 -133 199 -133 z "},"₉":{"ha":469,"x_min":40,"x_max":421,"o":"m 153 -212 q 79 -203 115 -212 l 79 -125 q 146 -135 113 -135 q 256 -106 201 -135 q 322 6 311 -78 q 210 -26 276 -26 q 86 15 132 -26 q 40 129 40 57 q 82 247 40 197 q 210 297 124 297 q 372 240 322 297 q 421 64 421 183 q 343 -158 421 -103 q 153 -212 265 -212 m 210 51 q 281 65 253 51 q 325 93 310 78 q 294 194 325 169 q 210 219 263 219 q 151 190 167 219 q 136 129 136 161 q 160 76 136 100 q 210 51 183 51 z "},"⁰":{"ha":524,"x_min":64,"x_max":457,"o":"m 261 635 q 64 890 64 635 q 261 1146 64 1146 q 408 1081 358 1146 q 457 890 457 1017 q 408 699 457 764 q 261 635 358 635 m 261 704 q 337 744 301 704 q 372 890 372 783 q 337 1037 372 997 q 261 1076 301 1076 q 185 1037 221 1076 q 149 890 149 997 q 185 744 149 783 q 261 704 221 704 z "},"¹":{"ha":325,"x_min":74,"x_max":226,"o":"m 165 1142 l 226 1142 l 226 643 l 132 643 l 132 1015 l 74 978 l 74 1083 l 165 1142 z "},"²":{"ha":456,"x_min":74,"x_max":388,"o":"m 388 725 l 388 643 l 74 643 l 74 690 q 218 833 151 749 q 285 992 285 918 q 260 1042 285 1022 q 194 1063 235 1063 q 133 1050 164 1063 q 79 1021 101 1038 l 79 1110 q 214 1147 140 1147 q 340 1106 299 1147 q 381 1008 381 1065 q 331 865 381 940 q 208 725 282 790 l 388 725 z "},"³":{"ha":449,"x_min":74,"x_max":390,"o":"m 207 638 q 74 668 138 638 l 74 754 q 200 721 135 721 q 269 740 242 721 q 297 799 297 758 q 268 851 297 833 q 197 868 239 868 l 143 868 l 143 947 l 200 947 q 250 963 229 947 q 271 1014 271 978 q 249 1049 271 1035 q 193 1063 228 1063 q 86 1036 136 1063 l 86 1122 q 200 1147 142 1147 q 325 1108 285 1147 q 365 1014 365 1068 q 351 958 365 981 q 319 924 338 936 q 301 913 301 911 q 332 895 307 908 q 374 854 357 882 q 390 785 390 826 q 345 681 390 724 q 207 638 300 638 z "},"⁴":{"ha":456,"x_min":40,"x_max":407,"o":"m 336 843 l 407 843 l 407 765 l 336 765 l 336 643 l 240 643 l 240 765 l 40 765 l 40 850 l 276 1142 l 336 1142 l 336 843 m 128 843 l 240 843 l 240 979 l 128 843 z "},"⁵":{"ha":443,"x_min":76,"x_max":389,"o":"m 231 638 q 88 668 143 638 l 88 751 q 206 717 146 717 q 294 785 294 717 q 196 872 294 872 q 155 867 174 872 q 124 856 136 861 q 110 849 113 850 l 76 911 l 101 1142 l 357 1142 l 357 1060 l 175 1060 l 161 940 q 250 953 206 953 q 346 918 303 953 q 389 796 389 883 q 343 672 389 707 q 231 638 297 638 z "},"⁶":{"ha":469,"x_min":36,"x_max":417,"o":"m 247 638 q 85 694 135 638 q 36 871 36 751 q 114 1092 36 1038 q 306 1147 192 1147 q 378 1139 336 1147 l 378 1060 q 311 1069 344 1069 q 201 1041 256 1069 q 135 929 146 1013 q 247 961 181 961 q 371 919 325 961 q 417 806 417 878 q 375 688 417 738 q 247 638 333 638 m 233 715 q 301 738 281 715 q 321 806 321 761 q 294 860 321 836 q 229 883 267 883 q 172 870 197 883 q 132 842 147 857 q 164 742 133 768 q 233 715 194 715 z "},"⁷":{"ha":438,"x_min":56,"x_max":394,"o":"m 56 1142 l 394 1142 l 394 1090 l 193 643 l 106 643 l 292 1060 l 56 1060 l 56 1142 z "},"⁸":{"ha":461,"x_min":60,"x_max":404,"o":"m 232 638 q 102 684 144 638 q 60 792 60 731 q 78 859 60 832 q 121 901 97 886 q 144 913 144 915 q 126 923 144 910 q 92 960 107 936 q 78 1019 78 985 q 115 1110 78 1072 q 232 1147 153 1147 q 347 1110 310 1147 q 385 1019 385 1072 q 371 960 385 983 q 339 923 357 936 q 321 913 321 910 q 344 901 321 915 q 385 859 367 886 q 404 792 404 832 q 362 684 404 731 q 232 638 319 638 m 232 947 q 275 965 260 947 q 290 1008 290 983 q 232 1067 290 1067 q 192 1053 210 1067 q 175 1007 175 1039 q 189 965 175 983 q 232 947 203 947 m 232 717 q 290 738 272 717 q 308 792 308 758 q 286 855 308 833 q 232 876 264 876 q 178 855 200 876 q 156 792 156 833 q 177 739 156 761 q 232 717 199 717 z "},"⁹":{"ha":469,"x_min":40,"x_max":421,"o":"m 153 638 q 79 647 115 638 l 79 725 q 146 715 113 715 q 256 744 201 715 q 322 856 311 772 q 210 824 276 824 q 86 865 132 824 q 40 979 40 907 q 82 1097 40 1047 q 210 1147 124 1147 q 372 1090 322 1147 q 421 914 421 1033 q 343 692 421 747 q 153 638 265 638 m 210 901 q 281 915 253 901 q 325 943 310 928 q 294 1044 325 1019 q 210 1069 263 1069 q 151 1040 167 1069 q 136 979 136 1011 q 160 926 136 950 q 210 901 183 901 z "},"⁄":{"ha":700,"x_min":0,"x_max":700,"o":"m 0 -31 l 607 951 l 700 951 l 93 -31 l 0 -31 z "},"½":{"ha":951,"x_min":74,"x_max":882,"o":"m 165 936 l 226 936 l 226 438 l 132 438 l 132 810 l 74 772 l 74 878 l 165 936 m 83 -31 l 690 951 l 783 951 l 176 -31 l 83 -31 m 882 83 l 882 1 l 568 1 l 568 49 q 713 192 646 107 q 779 350 779 276 q 754 401 779 381 q 689 421 729 421 q 627 408 658 421 q 574 379 596 396 l 574 468 q 708 506 635 506 q 834 465 793 506 q 875 367 875 424 q 826 224 875 299 q 703 83 776 149 l 882 83 z "},"⅓":{"ha":986,"x_min":74,"x_max":986,"o":"m 165 936 l 226 936 l 226 438 l 132 438 l 132 810 l 74 772 l 74 878 l 165 936 m 167 -31 l 774 951 l 867 951 l 260 -31 l 167 -31 m 803 -4 q 669 26 733 -4 l 669 113 q 796 79 731 79 q 865 98 838 79 q 893 157 893 117 q 864 209 893 192 q 793 226 835 226 l 739 226 l 739 306 l 796 306 q 846 321 825 306 q 867 372 867 336 q 845 407 867 393 q 789 421 824 421 q 682 394 732 421 l 682 481 q 796 506 738 506 q 921 466 881 506 q 961 372 961 426 q 947 317 961 339 q 915 282 933 294 q 897 271 897 269 q 928 253 903 267 q 969 213 953 240 q 986 143 986 185 q 941 39 986 82 q 803 -4 896 -4 z "},"¼":{"ha":1026,"x_min":74,"x_max":957,"o":"m 165 936 l 226 936 l 226 438 l 132 438 l 132 810 l 74 772 l 74 878 l 165 936 m 93 -31 l 700 951 l 793 951 l 186 -31 l 93 -31 m 886 201 l 957 201 l 957 124 l 886 124 l 886 1 l 790 1 l 790 124 l 590 124 l 590 208 l 826 500 l 886 500 l 886 201 m 678 201 l 790 201 l 790 338 l 678 201 z "}}}
